<?xml version="1.0" encoding="utf-8"?>
<svg viewBox="0 0 500 500" xmlns="http://www.w3.org/2000/svg" fill="#fff">
  <g id="Capa_x0020_1" transform="matrix(0.055063, 0, 0, 0.055069, -370.439209, -492.397675)" >
    <g id="_2946536762816">
      <path class="fil0" d="M9557.56 13197.99l1201.85 330.43c31.05,75.15 56.36,224.21 87.75,310.68 37.72,103.93 93.94,202.3 123.79,294.27 -499.47,-60.14 -1013.33,-379.16 -1293.2,-754.05 -50.48,-67.61 -72.45,-105.84 -120.19,-181.33zm-149.97 -275.17c-115.11,-223.35 -167.79,-590.35 -169.67,-847.55 61.35,4.23 689.27,189.29 807.25,221.43 150.16,40.9 119.66,32.46 187.62,152.86 166.46,294.88 333.15,575.76 496.98,864.47 -69.83,-0.78 -446.47,-116.38 -538.28,-143.31l-742.07 -207.84c-48.29,-19.67 -16.12,9.84 -41.83,-40.06zm-155.01 -1045.29c11.95,-193.86 131.37,-604.63 233.1,-725.69l534.73 936.86 -767.83 -211.17zm1476.6 1022.83l-312.21 -517.73c-128.63,-221.48 -75.46,-171.47 39.43,-632.93 33.23,-133.47 72.19,-320.41 116.34,-443.9 297.49,149.8 402.48,315.93 573.58,463.14l-144.42 245.76c-153.69,262.62 -239.18,574.01 -272.72,885.66zm1792.46 -816.74c77.56,-4.32 265.77,-70 354.56,-93.46 98.34,-25.99 298.29,-117.76 346.51,-21.77 72.31,143.96 -147.35,168.93 -243.67,194.57l-541.14 150.31c-85.94,23.25 -73.51,43.29 -117.1,117.61l-509.23 889.24c170.96,-30.72 839.08,-245.48 930.51,-258.85 72.29,-10.57 130.83,33.11 123.46,102.32 -9.76,91.67 -188.58,116.33 -326.35,154.12 -201.8,55.35 -658.52,173.02 -833.7,232.68 -68.84,23.45 -90.1,102.73 -153.25,209.85 -68.75,116.64 -120.82,269.74 -227.66,223.6 -128.01,-55.28 1.47,-221.14 47.49,-298.31 127.37,-213.56 135.24,-192.62 99.03,-330.23 -66.08,-251.09 -126.82,-501.62 -193.51,-755.61 -24.29,-92.5 -105.64,-299.84 -42.65,-364.15 44.82,-45.77 118.98,-31.48 150.22,22.49 33.96,58.68 204.12,844.39 252.45,954.71 2.04,-1.88 5.03,-7.82 5.81,-5.96l11.15 -12.35c1.3,-1.65 3.74,-4.73 5.13,-6.59 6.04,-8.15 16.06,-24.74 22.45,-35.78l462.91 -803.1c85.34,-144.25 71.49,-97.53 10.58,-333.62 -31.25,-121.11 -64.21,-240.41 -93.97,-363.82 -22.9,-94.95 -110.76,-294.48 11.67,-326.74 140.93,-37.13 150.26,179.98 175.74,279.67 25.86,101.2 76.09,323.74 103.44,372.72l41.56 -59.07c10,-17.92 20.68,-37.73 33.39,-60.41l343.33 -594.11c35.52,-60.26 99.11,-223.91 209.24,-143.5 87.92,64.21 -8.71,181.63 -45.89,248.37 -129.71,232.77 -287.17,477.76 -412.51,715.17zm-2323.79 -96.94l-411.26 -696.76c-39.21,-67.43 -105.87,-167.96 -131.8,-238.66 264.72,12.37 517.08,65.26 738.94,163.55l-195.88 771.87zm3189.27 -599.4l-84.99 -190.78c-24.49,-59.73 -52.88,-114.74 -86.13,-171.71 -114.68,-196.52 -98.27,-172.89 -371.19,-168.78l-259.98 20.51c-12.28,8.65 -345.67,95.4 -402,115.6 -117.76,42.2 -250.09,108.35 -348.81,166.64 -312.45,184.48 -523.98,437.46 -573.47,462.12 -137.49,-226.76 -581.06,-499.05 -881.78,-618.51 -56.72,-22.53 -363.19,-103.32 -377.04,-114.91 -77.23,6.02 -261.81,-27.34 -368.04,-29.66 -189.95,-4.15 -194.99,-17.93 -278.54,119.17 -461.96,757.91 -391.73,1780.29 124.77,2459.8 143.73,189.09 160.45,178.16 283.55,314.13 247.06,272.87 754.63,506.94 1223.86,582.2 2.63,37.39 -112.25,217.88 -137.43,260.32 -20.6,34.71 -61.16,94.67 -63.94,132.97 -4.51,61.91 38.14,102.89 100.12,99.38 60.52,-3.42 77.4,-41.7 105.01,-91.37 35.93,-64.66 205.17,-377.4 236.32,-384.86 859.34,0 1463.18,-427.25 1802.9,-869.05 174.79,-227.33 348.25,-562.59 419.66,-916.18 41.21,-204.09 57.38,-393.1 42.52,-606.27 -7.31,-104.97 -20.65,-201.03 -40.62,-300.88 -14.64,-73.2 -66.69,-218.57 -64.75,-269.88z" />
      <path class="fil0" d="M13126.09 9554.51c219.95,61.72 808.38,470.02 996.82,645.31 31.56,29.35 57.49,46.96 88.56,76.02 555.19,519.28 1083.17,1301.56 1272.37,2136.41 291.17,1082.11 88.36,2222.78 -364.41,3087.16 -237.75,453.9 -384.2,610.22 -679.37,949.31 -36.69,42.15 -65.26,78.64 -104.67,118.08 -112.06,112.17 -380.02,333.16 -502.94,423.18 -996.48,729.66 -2321.34,1028.58 -3627.73,702.23 -595.01,-148.65 -1120.18,-417.52 -1565.7,-754.03 -192.27,-145.23 -219.83,-182.43 -371.9,-319.75 -131.74,-118.95 -327.17,-335.95 -434.97,-479.26 -36.01,-47.87 -63.63,-86.69 -98.86,-135.66 -197.98,-275.16 -358.8,-569.99 -489.87,-893.05 -963.44,-2374.66 324.94,-5061.9 2800.99,-5800.25 794.8,-237.01 1626.11,-229.17 2431.3,-6.09 107.96,29.91 618.47,201.54 650.38,250.39zm269.44 -93.26c-158.35,-54.96 -317.08,-153.74 -495.66,-218.19 -179.43,-64.76 -342.9,-117.39 -534.05,-169.31 -384.91,-104.54 -870.83,-145.02 -1290.71,-128.85 -659.59,58.32 -1069.7,127.47 -1677.53,399.12 -235.96,105.45 -478.28,238.5 -669.07,373.6 -108.45,76.8 -199.94,141.56 -303.67,223.68 -96.87,76.69 -193.81,160.23 -278.4,248.87 -117.42,123.03 -257.9,247.77 -374.76,398.78 -226.62,292.84 -326.05,414.96 -524.37,788.66 -1359.95,2562.67 64.33,5802.03 2928.59,6508.45 1435.06,353.93 2829.96,-12.64 3875.63,-817.59 144.14,-110.96 291.43,-239.6 417.81,-367.71 256.63,-260.13 492.61,-555.96 690.46,-879.76 439.78,-719.76 677.73,-1601.35 645.36,-2491.57 -24.02,-660.39 -163.23,-1160.1 -390.76,-1701.58 -166.64,-396.59 -479.07,-867.96 -769.77,-1188.13l-265.6 -261.7c-26.56,-26.33 -35.66,-41.93 -63.45,-64.95 -251.91,-208.77 -309.39,-262.89 -597.32,-457.53 -41.22,-27.87 -308.56,-176.87 -322.73,-194.29z" />
      <path class="fil0" d="M13820.68 16204.43c-113.98,104.71 -223.17,198.19 -353.7,291 -1075.02,764.38 -2415.31,942.12 -3646.76,421.64 -474.03,-200.35 -907.73,-494.75 -1247.86,-861.83 -477.88,-515.75 -703.69,-929.87 -909.17,-1622.19 -47.43,-159.81 -221.01,-100.33 -192.63,33.68 163.79,773.42 738.01,1588 1323.23,2058.66 1301.52,1046.72 3054.3,1171.76 4504.24,316.53 310.26,-183.01 381.93,-275.42 605.3,-449.37 121.01,-94.25 389.41,-397.35 504.48,-550.14 194.42,-258.15 326.48,-488.62 465.55,-800.39 38.89,-87.19 225.03,-551.99 196.8,-641.42 -17.27,-54.73 -88.26,-84.27 -145.03,-45.22 -45.03,30.98 -50.28,97.97 -64.16,147.22 -165.85,587.97 -382.05,923.26 -732.07,1376.92 -81.1,105.12 -209.33,234.08 -308.22,324.91z" />
      <path class="fil0" d="M13881.26 10822.78l130.5 120.93c77.81,76.5 280.71,334.59 335.04,423.27 60.34,104.59 134.99,201.1 207.37,335.06 63.4,117.33 120.54,248.84 174.84,376.63 54.73,128.78 99.86,272.88 140.32,410.24 71.47,242.57 193.4,96.78 202.36,65.26 13.36,-46.96 -7.27,-85.27 -16.68,-131.79 -22.34,-38.19 -72.54,-224.47 -97.83,-290.87 -36.32,-95.37 -71.88,-182.69 -112.38,-274.17 -110.12,-248.68 -281.18,-531.74 -440.37,-743.58 -131.84,-175.44 -396.54,-469.41 -568.04,-604.01 -36.81,-28.9 -68.59,-58.26 -108.19,-90.82l-340.4 -245.56c-396.63,-263.86 -932.31,-469.86 -1413.13,-556.88 -67.9,-12.29 -294.2,-26.72 -332.48,-53.07 -95.79,13.4 -328.86,-11.05 -449.94,-8.95 -144.31,2.49 -285.96,13.81 -428.74,32.79 -781.42,103.87 -1333.44,369.96 -1940.17,822.73l-472.38 441.71c-159.98,189.57 -261.43,311 -398.93,527.06 -175.49,275.77 -337.17,616.93 -436.72,946.42 -33.3,110.22 -108.84,324.33 78.93,291.6 73.53,-36.95 76.42,-132.05 101,-216.85 139.63,-481.87 412.17,-963.45 731.93,-1343.14 28.15,-33.43 51.99,-53.07 78.71,-85.06 83.76,-100.25 103.78,-102.93 155.6,-161.04 299.09,-335.4 944.96,-710.09 1389.9,-860.05 1039.48,-350.35 2167.34,-245.02 3108.1,310.15 139.42,82.27 434.83,281.09 558.54,402.57 30.42,29.87 58.65,43.94 88.65,75.79l74.59 83.63z" />
      <path class="fil0" d="M12734.25 16037.2l3.18 44.09 236.25 -0.09 4.85 -460.32c89.57,86.3 263.21,316.62 359.31,427.48 44.71,51.59 120.2,32.84 230.67,32.84 11.14,-141.74 3.01,-696.73 2.88,-879.04l-243.69 2.39 -0.27 456.52c-61.3,-51.5 -142.99,-166.69 -201.25,-233.45 -219.62,-251.64 -113.19,-225.46 -392.03,-225.46l0.1 835.04z" />
      <path class="fil0" d="M9932.41 16076.82l706.13 4.58 2.87 -190.64 -454.14 0c-11.58,-65.32 -6.64,-91.22 -5.81,-161.15l386.71 0 2.92 -187.52 -386.75 0 -0.08 -146.62c92.79,0.07 369.79,11.89 439.63,-7.2l0 -178.85c-55.56,-15.07 -636.03,-15.07 -691.58,0l0.1 867.4z" />
      <path class="fil0" d="M11586.71 15986.3l0.61 -357.89 -220.1 -4.85 0.02 241.55c-212.98,69.03 -423.15,-28.96 -380.57,-279.56 27.2,-160.11 231.73,-290.83 463.42,-102.06 52.11,-40.34 105.6,-85.96 151.4,-137.76 -145.25,-243.21 -829.28,-244.99 -867.36,257.61 -31.83,420.19 426.4,651.02 852.58,382.96z" />
      <path class="fil0" d="M12152.99 15452.39l104.93 274.01 -220.77 -1.25 115.84 -272.76zm-511.51 626.47l251.39 2.32 71.93 -170.26 370.51 0.72 68.55 167.41 253.74 2.43c-6.27,-28.91 -361.62,-868.23 -398.84,-879.32l-233.57 0.45 -383.71 876.25z" />
      <path class="fil0" d="M9259.61 16081.62l243.62 -0.41 375.13 -877.79 -246.47 -0.95c-18.66,69.52 -212.79,530.32 -245.11,566.78l-233.79 -565.76 -265.7 -0.42 372.32 878.55z" />
      <path class="fil0" d="M7483.13 13252.18c-130.76,33.49 -249.71,187.78 -198.47,364.28 37.08,127.67 177.33,243.93 356.17,193.38 355.88,-100.6 223.93,-655.4 -157.7,-557.66z" />
      <path class="fil0" d="M14897.15 13256.28c-365.91,113.77 -197.1,665.34 171.67,551.41 130.56,-40.34 241.39,-186.56 189.82,-360.46 -39.18,-132.1 -189.04,-244.57 -361.49,-190.95z" />
    </g>
  </g>
</svg>