<?xml version="1.0" encoding="utf-8"?>
<svg viewBox="0 0 500 500" xmlns="http://www.w3.org/2000/svg">
  <path d="M 187.57 390.466 C 187.57 399.049 180.547 406.073 171.963 406.073 C 163.38 406.073 156.356 399.049 156.356 390.466 L 156.356 187.571 C 156.356 178.987 163.38 171.964 171.963 171.964 C 180.547 171.964 187.57 178.987 187.57 187.571 L 187.57 390.466 Z M 265.607 390.466 C 265.607 399.049 258.583 406.073 250 406.073 C 241.417 406.073 234.393 399.049 234.393 390.466 L 234.393 187.571 C 234.393 178.987 241.417 171.964 250 171.964 C 258.583 171.964 265.607 178.987 265.607 187.571 L 265.607 390.466 Z M 343.644 390.466 C 343.644 399.049 336.62 406.073 328.037 406.073 C 319.451 406.073 312.429 399.049 312.429 390.466 L 312.429 187.571 C 312.429 178.987 319.451 171.964 328.037 171.964 C 336.62 171.964 343.644 178.987 343.644 187.571 L 343.644 390.466 Z M 341.204 24.611 L 377.004 78.32 L 445.091 78.32 C 458.064 78.32 468.502 88.806 468.502 101.731 C 468.502 114.704 458.064 125.141 445.091 125.141 L 437.288 125.141 L 437.288 421.68 C 437.288 464.796 402.365 499.717 359.251 499.717 L 140.749 499.717 C 97.654 499.717 62.712 464.796 62.712 421.68 L 62.712 125.141 L 54.908 125.141 C 41.984 125.141 31.498 114.704 31.498 101.731 C 31.498 88.806 41.984 78.32 54.908 78.32 L 123.015 78.32 L 158.795 24.611 C 168.94 9.411 186.01 0.283 204.251 0.283 L 295.748 0.283 C 313.989 0.283 331.06 9.412 341.204 24.611 Z M 179.279 78.32 L 320.72 78.32 L 302.187 50.579 C 300.723 48.413 298.284 47.105 295.748 47.105 L 204.251 47.105 C 201.715 47.105 198.398 48.413 197.813 50.579 L 179.279 78.32 Z M 109.535 421.68 C 109.535 438.947 123.513 452.895 140.749 452.895 L 359.251 452.895 C 376.516 452.895 390.465 438.947 390.465 421.68 L 390.465 125.141 L 109.535 125.141 L 109.535 421.68 Z" style=""/>
</svg>