<?xml version="1.0" encoding="UTF-8"?><svg xmlns="http://www.w3.org/2000/svg" viewBox="0 0 439.73 92.35"><defs><style>.d{fill:#231f20;}</style></defs><g id="a"/><g id="b"><g id="c"><g><polygon class="d" points="103.56 92.19 105.52 92.19 105.52 84.31 115.12 84.31 115.12 82.61 105.52 82.61 105.52 75.32 116.29 75.32 116.29 73.62 103.56 73.62 103.56 92.19"/><rect class="d" x="120.75" y="78.24" width="1.88" height="13.95"/><path class="d" d="M121.7,72.51c-.77,0-1.38,.61-1.38,1.33s.61,1.35,1.38,1.35,1.38-.61,1.38-1.38c0-.72-.61-1.3-1.38-1.3"/><path class="d" d="M136.05,78.13c-2.41,0-4.3,.98-5.3,2.68v-2.57h-1.8v13.95h1.88v-7.32c0-3.18,1.88-5.04,4.88-5.04,2.65,0,4.19,1.51,4.19,4.46v7.9h1.88v-8.09c0-4.01-2.33-5.97-5.73-5.97"/><path class="d" d="M153.42,78.13c-3.93,0-6.82,2.94-6.82,7.08s2.97,7.11,7.32,7.11c2.2,0,4.14-.8,5.38-2.28l-1.06-1.22c-1.06,1.22-2.57,1.83-4.27,1.83-3.05,0-5.28-1.94-5.49-4.85h11.67c0-.21,.03-.42,.03-.58,0-4.19-2.84-7.08-6.76-7.08m-4.93,6.26c.24-2.73,2.23-4.64,4.93-4.64s4.72,1.91,4.96,4.64h-9.89Z"/><path class="d" d="M174.1,78.5c0-1.86,1.51-3.37,4.91-3.37,1.64,0,3.5,.5,5.09,1.54l.66-1.57c-1.49-1.03-3.66-1.64-5.76-1.64-4.72,0-6.84,2.36-6.84,5.09,0,6.87,11.43,3.74,11.43,8.83,0,1.83-1.51,3.29-4.99,3.29-2.44,0-4.8-.95-6.13-2.25l-.77,1.51c1.38,1.43,4.11,2.41,6.9,2.41,4.75,0,6.92-2.33,6.92-5.07,0-6.76-11.43-3.69-11.43-8.78"/><path class="d" d="M195.07,90.7c-1.56,0-2.41-.9-2.41-2.55v-8.33h4.24v-1.59h-4.24v-3.05h-1.88v3.05h-2.49v1.59h2.49v8.43c0,2.57,1.46,4.06,4.08,4.06,1.09,0,2.2-.32,2.94-.98l-.66-1.35c-.53,.48-1.3,.71-2.07,.71"/><path class="d" d="M207.19,78.13c-3.93,0-6.82,2.94-6.82,7.08s2.97,7.11,7.32,7.11c2.2,0,4.14-.8,5.38-2.28l-1.06-1.22c-1.06,1.22-2.57,1.83-4.27,1.83-3.05,0-5.28-1.94-5.49-4.85h11.67c0-.21,.03-.42,.03-.58,0-4.19-2.84-7.08-6.76-7.08m-4.93,6.26c.24-2.73,2.23-4.64,4.93-4.64s4.72,1.91,4.96,4.64h-9.89Z"/><path class="d" d="M223.34,78.13c-2.2,0-4.27,.69-5.67,1.88l.85,1.4c1.14-1.01,2.84-1.65,4.64-1.65,2.6,0,3.95,1.3,3.95,3.69v.85h-4.43c-4.01,0-5.38,1.8-5.38,3.95,0,2.41,1.94,4.06,5.09,4.06,2.31,0,3.95-.88,4.8-2.31v2.18h1.8v-8.65c0-3.61-2.04-5.41-5.65-5.41m3.77,9.87c-.74,1.83-2.31,2.84-4.43,2.84-2.23,0-3.53-1.01-3.53-2.62,0-1.43,.88-2.49,3.58-2.49h4.38v2.28Z"/><polygon class="d" points="247.71 78.24 245.38 78.24 237.05 85.85 237.05 72.51 235.17 72.51 235.17 92.19 237.05 92.19 237.05 88.21 240.34 85.19 245.96 92.19 248.27 92.19 241.74 83.94 247.71 78.24"/><polygon class="d" points="274.15 81.9 262.54 81.9 262.54 73.62 260.57 73.62 260.57 92.19 262.54 92.19 262.54 83.62 274.15 83.62 274.15 92.19 276.09 92.19 276.09 73.62 274.15 73.62 274.15 81.9"/><path class="d" d="M288.5,78.13c-4.08,0-7.11,2.95-7.11,7.08s3.02,7.11,7.11,7.11,7.08-2.97,7.08-7.11-3-7.08-7.08-7.08m0,12.52c-2.97,0-5.2-2.17-5.2-5.44s2.23-5.44,5.2-5.44,5.17,2.18,5.17,5.44-2.2,5.44-5.17,5.44"/><path class="d" d="M311.17,85.56c0,3.18-1.83,5.07-4.75,5.07-2.65,0-4.19-1.51-4.19-4.48v-7.9h-1.88v8.09c0,4,2.33,5.99,5.89,5.99,2.23,0,4.03-.98,5.01-2.68v2.55h1.8v-13.95h-1.88v7.32Z"/><path class="d" d="M319.84,82.06c0-1.33,1.11-2.31,3.63-2.31,1.43,0,2.89,.35,4.11,1.2l.82-1.51c-1.17-.8-3.13-1.3-4.93-1.3-3.55,0-5.52,1.7-5.52,3.98,0,5.52,9.04,2.65,9.04,6.29,0,1.38-1.09,2.28-3.74,2.28-1.96,0-3.85-.69-4.96-1.56l-.85,1.48c1.14,.98,3.37,1.72,5.67,1.72,3.63,0,5.76-1.57,5.76-3.98,0-5.36-9.04-2.52-9.04-6.29"/><path class="d" d="M345.59,85.21c0-4.19-2.84-7.08-6.76-7.08s-6.82,2.94-6.82,7.08,2.97,7.11,7.32,7.11c2.2,0,4.14-.8,5.38-2.28l-1.06-1.22c-1.06,1.22-2.57,1.83-4.27,1.83-3.05,0-5.28-1.94-5.49-4.85h11.67c0-.21,.03-.42,.03-.58m-11.69-.82c.24-2.73,2.23-4.64,4.93-4.64s4.72,1.91,4.96,4.64h-9.89Z"/><path class="d" d="M26.28,.66H2.26C.28,.66-.78,3.1,.67,4.55c.39,.46,.92,.66,1.58,.66H11.76V41.89c-.34,3.17,5.34,3.17,5.01,0V5.21h9.5c3.03,0,2.9-4.55,0-4.55"/><path class="d" d="M71.58,13.59c0-3.89-1.38-6.99-4.09-9.37-2.7-2.38-6.2-3.56-10.49-3.56h-10.89c-1.38,0-2.44,1.05-2.44,2.44V41.89c-.33,3.17,5.34,3.17,5.02,0v-14.98h8.05c.46,0,1.45-.07,1.78-.07l7.2,15.9c.46,1.06,1.18,1.58,2.31,1.58,1.38,0,2.57-1.12,2.57-2.51,0-.33-.07-.66-.26-.99l-6.8-15.17c5.02-1.91,8.05-6.33,8.05-12.07m-14.98,8.97h-7.92V5.08h7.92c6.07,0,9.83,3.37,9.83,8.58s-3.76,8.91-9.83,8.91"/><path class="d" d="M152.29,23.88c-2.37-1.85-3.96-2.64-7.06-3.89l-7.13-2.9c-3.29-1.32-4.95-3.43-4.95-6.33,0-3.89,3.17-6.53,8.39-6.53s7.98,2.77,8.57,7.45c.07,1.12,1.06,1.98,2.32,1.98,1.58,0,2.57-1.25,2.37-2.84-.6-6.66-5.8-10.82-13.26-10.82-3.9,0-7.06,1.06-9.5,3.1-2.44,2.05-3.7,4.75-3.7,8.05,0,4.95,2.97,8.58,8.91,10.89l6.14,2.51c4.81,1.92,7.39,3.89,7.39,8.12,0,4.55-3.5,7.72-9.23,7.72s-8.85-2.9-9.31-7.39c-.12-1.38-.92-2.05-2.31-2.05-1.65,0-2.57,1.32-2.37,2.84,.79,6.86,6.07,10.88,14.05,10.88,4.23,0,7.66-1.12,10.23-3.43,2.58-2.31,3.89-5.34,3.89-9.17,0-3.5-1.12-6.27-3.43-8.18"/><path class="d" d="M259.88,.99c-.46,.46-.73,1.06-.73,1.78V30.94c0,5.48-3.36,9.17-8.97,9.17s-8.9-3.7-8.9-9.17V2.77c0-3.23-5.02-3.17-5.02,0V30.81c0,8.44,5.54,13.85,13.92,13.85,4.16,0,7.59-1.25,10.16-3.76,2.58-2.51,3.82-5.87,3.82-10.1V2.77c0-2.11-2.7-3.37-4.29-1.78"/><path class="d" d="M306.06,39.45h-18.34v-15.37h16.23c2.83,.33,2.83-4.68,0-4.49h-16.23V5.21h17.81c1.32,0,2.24-.92,2.24-2.31s-.92-2.24-2.24-2.24h-20.39c-1.38,0-2.44,1.06-2.44,2.44V41.56c0,1.52,1.06,2.44,2.44,2.44h20.91c3.04,0,2.9-4.55,0-4.55"/><path class="d" d="M349.41,22.83h-8.97c-1.79,0-2.78,2.24-1.45,3.5,.33,.4,.85,.59,1.45,.59h6.4v4.75c0,5.01-3.43,8.44-9.24,8.44s-9.23-3.69-9.23-9.17V13.72c0-5.48,3.5-9.17,9.23-9.17s8.65,2.77,9.17,7.45c.13,1.25,.92,1.91,2.31,1.91,1.52,0,2.44-1.05,2.38-2.44C351.12,4.35,345.57,0,337.59,0c-8.64,0-14.25,5.41-14.25,13.85V30.81c0,4.22,1.32,7.59,3.96,10.1,2.64,2.51,6.07,3.76,10.29,3.76,8.39,0,13.92-5.01,13.92-13.13v-6.53c0-1.32-.85-2.18-2.1-2.18"/><path class="d" d="M381.86,0c-8.7,0-14.25,5.34-14.25,13.86V30.81c0,4.22,1.32,7.59,3.96,10.1,2.57,2.51,6,3.76,10.29,3.76s7.72-1.25,10.37-3.76c2.57-2.51,3.89-5.87,3.89-10.1V13.86c0-4.22-1.33-7.59-3.89-10.1C389.58,1.25,386.16,0,381.86,0m9.17,30.94c0,5.48-3.43,9.17-9.17,9.17s-9.23-3.7-9.23-9.17V13.72c0-5.48,3.5-9.17,9.23-9.17s9.17,3.7,9.17,9.17V30.94Z"/><path class="d" d="M436.3,23.88c-2.37-1.85-3.96-2.64-7.06-3.89l-7.13-2.9c-3.29-1.32-4.95-3.43-4.95-6.33,0-3.89,3.17-6.53,8.39-6.53s7.98,2.77,8.57,7.45c.07,1.12,1.06,1.98,2.32,1.98,1.58,0,2.57-1.25,2.37-2.84-.6-6.66-5.8-10.82-13.26-10.82-3.9,0-7.06,1.06-9.5,3.1-2.44,2.05-3.7,4.75-3.7,8.05,0,4.95,2.97,8.58,8.91,10.89l6.14,2.51c4.81,1.92,7.39,3.89,7.39,8.12,0,4.55-3.5,7.72-9.23,7.72s-8.85-2.9-9.31-7.39c-.12-1.38-.92-2.05-2.31-2.05-1.65,0-2.57,1.32-2.37,2.84,.79,6.86,6.07,10.88,14.05,10.88,4.23,0,7.66-1.12,10.23-3.43,2.58-2.31,3.89-5.34,3.89-9.17,0-3.5-1.12-6.27-3.43-8.18"/><path class="d" d="M197.55,24.28c-1.28,0-2.32,1.04-2.32,2.32v15.26c0,1.28,1.04,2.32,2.32,2.32s2.32-1.04,2.32-2.32v-15.26c0-1.28-1.04-2.32-2.32-2.32"/><path class="d" d="M221.18,.9h-24.58c-1.28,0-2.32,1.04-2.32,2.32s1.04,2.32,2.32,2.32h24.58c1.28,0,2.32-1.04,2.32-2.32s-1.04-2.32-2.32-2.32"/><path class="d" d="M221.18,15.37h-24.58c-1.28,0-2.32,1.04-2.32,2.32s1.04,2.32,2.32,2.32h24.58c1.28,0,2.32-1.04,2.32-2.32s-1.04-2.32-2.32-2.32"/><path class="d" d="M111.49,39.54h-18.43v-15.45h16.31c2.85,.33,2.85-4.71,0-4.51h-16.31V5.12h17.9c1.33,0,2.26-.93,2.26-2.32s-.93-2.26-2.26-2.26h-20.49c-1.39,0-2.45,1.06-2.45,2.45V41.66c0,1.53,1.06,2.45,2.45,2.45h21.02c3.05,0,2.92-4.58,0-4.58"/></g></g></g></svg>