<?xml version="1.0" encoding="UTF-8"?><svg xmlns="http://www.w3.org/2000/svg" viewBox="0 0 591.58 105.89"><defs><style>.d{fill:#231f20;}</style></defs><g id="a"/><g id="b"><g id="c"><g><path class="d" d="M52.95,0C23.75,0,0,23.75,0,52.94s23.75,52.95,52.95,52.95,52.94-23.75,52.94-52.95S82.14,0,52.95,0m0,100.09c-25.99,0-47.14-21.15-47.14-47.14S26.95,5.8,52.95,5.8s47.14,21.15,47.14,47.14-21.15,47.14-47.14,47.14"/><path class="d" d="M60.46,55.94c-1.6,0-2.9,1.3-2.9,2.9v13.15c0,1.6,1.3,2.9,2.9,2.9s2.9-1.3,2.9-2.9v-13.15c0-1.6-1.3-2.9-2.9-2.9"/><path class="d" d="M81.87,33.71h-22.28c-1.6,0-2.9,1.3-2.9,2.9s1.3,2.9,2.9,2.9h22.28c1.6,0,2.9-1.3,2.9-2.9s-1.3-2.9-2.9-2.9"/><path class="d" d="M81.87,47.2h-22.28c-1.6,0-2.9,1.3-2.9,2.9s1.3,2.9,2.9,2.9h22.28c1.6,0,2.9-1.3,2.9-2.9s-1.3-2.9-2.9-2.9"/><path class="d" d="M47.39,33.71H25.11c-1.6,0-2.9,1.3-2.9,2.9s1.3,2.9,2.9,2.9h22.28c1.6,0,2.9-1.3,2.9-2.9s-1.3-2.9-2.9-2.9"/><path class="d" d="M35.08,55.33l9.26-9.26c1.13-1.13,1.13-2.97,0-4.1-1.13-1.13-2.97-1.13-4.1,0l-9.26,9.26c-1.13,1.13-1.13,2.97,0,4.1,.57,.57,1.31,.85,2.05,.85s1.49-.28,2.05-.85"/><path class="d" d="M41.4,51.59c-1.12,1.15-1.1,2.99,.05,4.1,1.6,1.57,2.49,3.66,2.49,5.9,0,4.54-3.7,8.24-8.24,8.24-3.15,0-6.06-1.83-7.43-4.67-.7-1.44-2.43-2.05-3.88-1.35-1.44,.7-2.05,2.43-1.35,3.88,2.33,4.83,7.3,7.95,12.66,7.95,7.74,0,14.05-6.3,14.05-14.05,0-3.82-1.51-7.39-4.24-10.06-1.15-1.12-2.98-1.1-4.1,.05"/><polygon class="d" points="163.41 104.03 165.81 104.03 165.81 94.39 177.57 94.39 177.57 92.31 165.81 92.31 165.81 83.38 179 83.38 179 81.31 163.41 81.31 163.41 104.03"/><rect class="d" x="184.45" y="86.96" width="2.3" height="17.08"/><path class="d" d="M185.62,79.94c-.94,0-1.69,.75-1.69,1.62s.75,1.65,1.69,1.65,1.69-.75,1.69-1.69c0-.88-.75-1.59-1.69-1.59"/><path class="d" d="M203.18,86.83c-2.96,0-5.26,1.2-6.49,3.28v-3.15h-2.21v17.08h2.3v-8.96c0-3.89,2.3-6.17,5.97-6.17,3.25,0,5.13,1.85,5.13,5.46v9.68h2.3v-9.9c0-4.9-2.86-7.31-7.01-7.31"/><path class="d" d="M224.45,86.83c-4.81,0-8.35,3.61-8.35,8.67s3.64,8.7,8.96,8.7c2.7,0,5.06-.98,6.59-2.79l-1.3-1.49c-1.3,1.49-3.15,2.24-5.23,2.24-3.73,0-6.46-2.37-6.72-5.94h14.28c0-.26,.03-.52,.03-.71,0-5.13-3.47-8.67-8.28-8.67m-6.04,7.66c.29-3.35,2.73-5.68,6.04-5.68s5.78,2.34,6.07,5.68h-12.11Z"/><path class="d" d="M249.77,87.28c0-2.27,1.85-4.12,6.01-4.12,2.01,0,4.29,.62,6.23,1.88l.81-1.92c-1.82-1.27-4.48-2.01-7.05-2.01-5.78,0-8.38,2.89-8.38,6.23,0,8.41,13.99,4.58,13.99,10.81,0,2.24-1.85,4.03-6.1,4.03-2.99,0-5.88-1.17-7.5-2.76l-.94,1.85c1.69,1.75,5.03,2.95,8.44,2.95,5.81,0,8.47-2.86,8.47-6.2,0-8.28-13.99-4.51-13.99-10.75"/><path class="d" d="M275.45,102.21c-1.92,0-2.96-1.1-2.96-3.11v-10.2h5.2v-1.95h-5.2v-3.73h-2.3v3.73h-3.05v1.95h3.05v10.32c0,3.15,1.79,4.97,5,4.97,1.33,0,2.7-.39,3.6-1.2l-.81-1.65c-.65,.58-1.59,.88-2.53,.88"/><path class="d" d="M290.28,86.83c-4.81,0-8.35,3.61-8.35,8.67s3.64,8.7,8.96,8.7c2.7,0,5.06-.98,6.59-2.79l-1.3-1.49c-1.3,1.49-3.15,2.24-5.23,2.24-3.73,0-6.46-2.37-6.72-5.94h14.28c0-.26,.03-.52,.03-.71,0-5.13-3.47-8.67-8.28-8.67m-6.04,7.66c.29-3.35,2.73-5.68,6.04-5.68s5.78,2.34,6.07,5.68h-12.11Z"/><path class="d" d="M310.05,86.83c-2.7,0-5.23,.85-6.95,2.31l1.04,1.72c1.39-1.23,3.47-2.01,5.68-2.01,3.18,0,4.84,1.59,4.84,4.51v1.04h-5.42c-4.9,0-6.59,2.21-6.59,4.84,0,2.96,2.37,4.97,6.23,4.97,2.82,0,4.84-1.07,5.88-2.83v2.66h2.21v-10.59c0-4.41-2.5-6.62-6.91-6.62m4.61,12.08c-.91,2.24-2.82,3.47-5.42,3.47-2.73,0-4.32-1.23-4.32-3.21,0-1.75,1.07-3.05,4.38-3.05h5.36v2.79Z"/><polygon class="d" points="339.89 86.96 337.03 86.96 326.84 96.27 326.84 79.94 324.53 79.94 324.53 104.04 326.84 104.04 326.84 99.16 330.86 95.46 337.75 104.04 340.57 104.04 332.58 93.94 339.89 86.96"/><polygon class="d" points="372.26 91.44 358.04 91.44 358.04 81.31 355.63 81.31 355.63 104.04 358.04 104.04 358.04 93.55 372.26 93.55 372.26 104.04 374.63 104.04 374.63 81.31 372.26 81.31 372.26 91.44"/><path class="d" d="M389.82,86.83c-5,0-8.7,3.6-8.7,8.67s3.7,8.7,8.7,8.7,8.67-3.64,8.67-8.7-3.67-8.67-8.67-8.67m0,15.32c-3.64,0-6.36-2.66-6.36-6.65s2.73-6.66,6.36-6.66,6.33,2.66,6.33,6.66-2.7,6.65-6.33,6.65"/><path class="d" d="M417.57,95.92c0,3.9-2.24,6.2-5.81,6.2-3.25,0-5.13-1.85-5.13-5.49v-9.67h-2.31v9.9c0,4.9,2.86,7.34,7.21,7.34,2.73,0,4.93-1.2,6.14-3.28v3.12h2.21v-17.08h-2.3v8.96Z"/><path class="d" d="M428.19,91.63c0-1.62,1.36-2.83,4.45-2.83,1.75,0,3.54,.42,5.03,1.46l1.01-1.85c-1.43-.98-3.83-1.59-6.04-1.59-4.35,0-6.75,2.08-6.75,4.87,0,6.75,11.07,3.25,11.07,7.7,0,1.69-1.33,2.79-4.58,2.79-2.4,0-4.71-.84-6.07-1.92l-1.04,1.82c1.4,1.2,4.12,2.11,6.95,2.11,4.45,0,7.05-1.92,7.05-4.87,0-6.56-11.07-3.08-11.07-7.69"/><path class="d" d="M459.71,95.5c0-5.13-3.47-8.67-8.28-8.67s-8.34,3.61-8.34,8.67,3.64,8.7,8.96,8.7c2.7,0,5.06-.98,6.59-2.79l-1.3-1.49c-1.3,1.49-3.15,2.24-5.23,2.24-3.73,0-6.46-2.37-6.72-5.94h14.29c0-.26,.03-.52,.03-.71m-14.32-1.01c.29-3.35,2.73-5.68,6.04-5.68s5.78,2.34,6.07,5.68h-12.11Z"/><path class="d" d="M178.13,8.09h-24.02c-1.98,0-3.04,2.44-1.58,3.89,.39,.46,.92,.66,1.58,.66h9.5V49.33c-.34,3.17,5.34,3.17,5.02,0V12.65h9.5c3.03,0,2.9-4.55,0-4.55"/><path class="d" d="M223.44,21.02c0-3.89-1.38-6.99-4.09-9.37-2.7-2.38-6.2-3.56-10.49-3.56h-10.89c-1.38,0-2.44,1.05-2.44,2.44V49.33c-.33,3.17,5.34,3.17,5.02,0v-14.98h8.05c.46,0,1.45-.07,1.78-.07l7.2,15.9c.46,1.06,1.18,1.58,2.31,1.58,1.38,0,2.57-1.12,2.57-2.51,0-.33-.07-.66-.26-.99l-6.8-15.17c5.02-1.91,8.05-6.33,8.05-12.07m-14.98,8.97h-7.92V12.51h7.92c6.07,0,9.83,3.37,9.83,8.58s-3.76,8.91-9.83,8.91"/><path class="d" d="M304.14,31.32c-2.37-1.85-3.96-2.64-7.06-3.89l-7.13-2.9c-3.29-1.32-4.95-3.43-4.95-6.33,0-3.89,3.17-6.53,8.39-6.53s7.98,2.77,8.57,7.45c.07,1.12,1.06,1.98,2.31,1.98,1.58,0,2.57-1.25,2.37-2.84-.6-6.66-5.8-10.82-13.26-10.82-3.9,0-7.06,1.06-9.5,3.1-2.44,2.05-3.7,4.75-3.7,8.05,0,4.95,2.97,8.58,8.91,10.89l6.14,2.51c4.81,1.91,7.39,3.89,7.39,8.12,0,4.55-3.5,7.72-9.23,7.72s-8.85-2.9-9.31-7.39c-.12-1.38-.92-2.04-2.31-2.04-1.65,0-2.57,1.32-2.37,2.84,.79,6.86,6.07,10.89,14.05,10.89,4.23,0,7.66-1.12,10.23-3.43,2.58-2.31,3.89-5.34,3.89-9.17,0-3.5-1.12-6.27-3.43-8.18"/><path class="d" d="M411.73,8.42c-.46,.46-.73,1.06-.73,1.78v28.17c0,5.48-3.36,9.17-8.97,9.17s-8.91-3.7-8.91-9.17V10.2c0-3.23-5.02-3.17-5.02,0v28.04c0,8.45,5.54,13.86,13.92,13.86,4.16,0,7.59-1.25,10.16-3.76,2.58-2.51,3.82-5.87,3.82-10.1V10.2c0-2.11-2.7-3.36-4.29-1.78"/><path class="d" d="M457.91,46.89h-18.34v-15.37h16.23c2.83,.33,2.83-4.68,0-4.49h-16.23V12.65h17.81c1.32,0,2.24-.92,2.24-2.31s-.92-2.24-2.24-2.24h-20.39c-1.38,0-2.44,1.05-2.44,2.44V49c0,1.52,1.06,2.44,2.44,2.44h20.91c3.04,0,2.9-4.55,0-4.55"/><path class="d" d="M501.26,30.26h-8.97c-1.79,0-2.78,2.24-1.45,3.5,.33,.39,.85,.59,1.45,.59h6.4v4.75c0,5.01-3.43,8.45-9.24,8.45s-9.23-3.7-9.23-9.17V21.16c0-5.48,3.5-9.17,9.23-9.17s8.65,2.77,9.17,7.46c.13,1.25,.92,1.91,2.31,1.91,1.52,0,2.44-1.05,2.38-2.44-.34-7.12-5.88-11.48-13.86-11.48-8.64,0-14.25,5.41-14.25,13.86v16.95c0,4.22,1.32,7.59,3.96,10.1,2.64,2.51,6.07,3.76,10.29,3.76,8.39,0,13.92-5.01,13.92-13.13v-6.53c0-1.32-.86-2.18-2.1-2.18"/><path class="d" d="M533.71,7.43c-8.7,0-14.25,5.34-14.25,13.85v16.96c0,4.22,1.32,7.59,3.96,10.1,2.57,2.51,6,3.76,10.29,3.76s7.72-1.25,10.37-3.76c2.57-2.51,3.89-5.87,3.89-10.1V21.29c0-4.22-1.33-7.59-3.89-10.1-2.64-2.51-6.07-3.76-10.37-3.76m9.17,30.94c0,5.48-3.43,9.17-9.17,9.17s-9.23-3.7-9.23-9.17V21.16c0-5.48,3.5-9.17,9.23-9.17s9.17,3.69,9.17,9.17v17.22Z"/><path class="d" d="M588.15,31.32c-2.37-1.85-3.96-2.64-7.06-3.89l-7.13-2.9c-3.29-1.32-4.95-3.43-4.95-6.33,0-3.89,3.17-6.53,8.39-6.53s7.98,2.77,8.57,7.45c.07,1.12,1.06,1.98,2.31,1.98,1.58,0,2.57-1.25,2.37-2.84-.59-6.66-5.8-10.82-13.26-10.82-3.9,0-7.06,1.06-9.5,3.1-2.44,2.05-3.7,4.75-3.7,8.05,0,4.95,2.97,8.58,8.91,10.89l6.14,2.51c4.81,1.91,7.39,3.89,7.39,8.12,0,4.55-3.5,7.72-9.23,7.72s-8.85-2.9-9.31-7.39c-.12-1.38-.92-2.04-2.31-2.04-1.65,0-2.57,1.32-2.37,2.84,.79,6.86,6.07,10.89,14.05,10.89,4.23,0,7.66-1.12,10.23-3.43,2.57-2.31,3.89-5.34,3.89-9.17,0-3.5-1.12-6.27-3.43-8.18"/><path class="d" d="M349.4,31.71c-1.28,0-2.32,1.04-2.32,2.32v15.26c0,1.28,1.04,2.32,2.32,2.32s2.32-1.04,2.32-2.32v-15.26c0-1.28-1.04-2.32-2.32-2.32"/><path class="d" d="M373.03,8.34h-24.58c-1.28,0-2.32,1.04-2.32,2.32s1.04,2.32,2.32,2.32h24.58c1.28,0,2.32-1.04,2.32-2.32s-1.04-2.32-2.32-2.32"/><path class="d" d="M373.03,22.8h-24.58c-1.28,0-2.32,1.04-2.32,2.32s1.04,2.32,2.32,2.32h24.58c1.28,0,2.32-1.04,2.32-2.32s-1.04-2.32-2.32-2.32"/><path class="d" d="M263.34,46.97h-18.43v-15.45h16.31c2.85,.33,2.85-4.71,0-4.51h-16.31V12.56h17.9c1.33,0,2.26-.93,2.26-2.32s-.93-2.26-2.26-2.26h-20.49c-1.39,0-2.45,1.06-2.45,2.45V49.1c0,1.52,1.06,2.45,2.45,2.45h21.02c3.05,0,2.92-4.58,0-4.58"/></g></g></g></svg>