<?xml version="1.0" encoding="UTF-8"?><svg xmlns="http://www.w3.org/2000/svg" viewBox="0 0 257.69 139.35"><defs><style>.d{fill:#c5aa94;}</style></defs><g id="a"/><g id="b"><g id="c"><g><path class="d" d="M128.85,0c-16.71,0-30.31,13.6-30.31,30.31s13.59,30.31,30.31,30.31,30.31-13.59,30.31-30.31S145.56,0,128.85,0m0,57.29c-14.88,0-26.98-12.1-26.98-26.98S113.97,3.32,128.85,3.32s26.98,12.1,26.98,26.98-12.1,26.98-26.98,26.98"/><path class="d" d="M133.15,32.02c-.92,0-1.66,.74-1.66,1.66v7.53c0,.92,.74,1.66,1.66,1.66s1.66-.74,1.66-1.66v-7.53c0-.92-.74-1.66-1.66-1.66"/><path class="d" d="M145.4,19.3h-12.75c-.92,0-1.66,.74-1.66,1.66s.74,1.66,1.66,1.66h12.75c.92,0,1.66-.74,1.66-1.66s-.74-1.66-1.66-1.66"/><path class="d" d="M145.4,27.02h-12.75c-.92,0-1.66,.74-1.66,1.66s.74,1.66,1.66,1.66h12.75c.92,0,1.66-.74,1.66-1.66s-.74-1.66-1.66-1.66"/><path class="d" d="M125.67,19.3h-12.75c-.92,0-1.66,.74-1.66,1.66s.74,1.66,1.66,1.66h12.75c.92,0,1.66-.74,1.66-1.66s-.74-1.66-1.66-1.66"/><path class="d" d="M118.62,31.67l5.3-5.3c.65-.65,.65-1.7,0-2.35-.65-.65-1.7-.65-2.35,0l-5.3,5.3c-.65,.65-.65,1.7,0,2.35,.33,.33,.75,.49,1.17,.49s.85-.16,1.17-.49"/><path class="d" d="M122.24,29.53c-.64,.66-.63,1.71,.03,2.35,.92,.89,1.42,2.09,1.42,3.38,0,2.6-2.12,4.72-4.72,4.72-1.8,0-3.47-1.05-4.25-2.67-.4-.83-1.39-1.17-2.22-.77-.83,.4-1.17,1.39-.77,2.22,1.33,2.76,4.18,4.55,7.25,4.55,4.43,0,8.04-3.61,8.04-8.04,0-2.19-.86-4.23-2.43-5.76-.66-.64-1.71-.63-2.35,.03"/><polygon class="d" points="60.69 139.25 61.84 139.25 61.84 134.64 67.47 134.64 67.47 133.64 61.84 133.64 61.84 129.37 68.15 129.37 68.15 128.38 60.69 128.38 60.69 139.25"/><rect class="d" x="70.76" y="131.08" width="1.1" height="8.17"/><path class="d" d="M71.32,127.72c-.45,0-.81,.36-.81,.78s.36,.79,.81,.79,.81-.36,.81-.81c0-.42-.36-.76-.81-.76"/><path class="d" d="M79.73,131.02c-1.41,0-2.52,.58-3.11,1.57v-1.51h-1.06v8.17h1.1v-4.29c0-1.87,1.1-2.95,2.86-2.95,1.55,0,2.46,.89,2.46,2.61v4.63h1.1v-4.74c0-2.35-1.37-3.5-3.36-3.5"/><path class="d" d="M89.91,131.02c-2.3,0-3.99,1.72-3.99,4.15s1.74,4.17,4.29,4.17c1.29,0,2.42-.47,3.16-1.34l-.62-.71c-.62,.71-1.51,1.07-2.5,1.07-1.79,0-3.09-1.13-3.22-2.84h6.84c0-.12,.02-.25,.02-.34,0-2.46-1.66-4.15-3.96-4.15m-2.89,3.67c.14-1.6,1.3-2.72,2.89-2.72s2.77,1.12,2.91,2.72h-5.8Z"/><path class="d" d="M102.03,131.23c0-1.09,.89-1.97,2.88-1.97,.96,0,2.05,.3,2.98,.9l.39-.92c-.87-.61-2.14-.96-3.37-.96-2.77,0-4.01,1.38-4.01,2.98,0,4.03,6.7,2.19,6.7,5.18,0,1.07-.89,1.93-2.92,1.93-1.43,0-2.81-.56-3.59-1.32l-.45,.89c.81,.84,2.41,1.41,4.04,1.41,2.78,0,4.06-1.37,4.06-2.97,0-3.96-6.7-2.16-6.7-5.15"/><path class="d" d="M114.32,138.38c-.92,0-1.41-.53-1.41-1.49v-4.88h2.49v-.93h-2.49v-1.79h-1.1v1.79h-1.46v.93h1.46v4.94c0,1.51,.85,2.38,2.39,2.38,.64,0,1.29-.19,1.72-.58l-.39-.79c-.31,.28-.76,.42-1.21,.42"/><path class="d" d="M121.42,131.02c-2.3,0-3.99,1.72-3.99,4.15s1.74,4.17,4.29,4.17c1.29,0,2.42-.47,3.15-1.34l-.62-.71c-.62,.71-1.51,1.07-2.5,1.07-1.79,0-3.09-1.13-3.22-2.84h6.84c0-.12,.01-.25,.01-.34,0-2.46-1.66-4.15-3.96-4.15m-2.89,3.67c.14-1.6,1.31-2.72,2.89-2.72s2.77,1.12,2.91,2.72h-5.8Z"/><path class="d" d="M130.88,131.02c-1.29,0-2.5,.4-3.33,1.1l.5,.82c.67-.59,1.66-.96,2.72-.96,1.52,0,2.32,.76,2.32,2.16v.5h-2.6c-2.35,0-3.15,1.06-3.15,2.32,0,1.42,1.13,2.38,2.98,2.38,1.35,0,2.32-.51,2.81-1.35v1.28h1.06v-5.07c0-2.11-1.2-3.17-3.31-3.17m2.21,5.78c-.43,1.07-1.35,1.66-2.6,1.66s-2.07-.59-2.07-1.54c0-.84,.51-1.46,2.1-1.46h2.56v1.34Z"/><polygon class="d" points="145.17 131.08 143.8 131.08 138.92 135.54 138.92 127.72 137.82 127.72 137.82 139.25 138.92 139.25 138.92 136.92 140.85 135.15 144.14 139.25 145.49 139.25 141.67 134.42 145.17 131.08"/><polygon class="d" points="160.66 133.22 153.85 133.22 153.85 128.38 152.7 128.38 152.7 139.25 153.85 139.25 153.85 134.23 160.66 134.23 160.66 139.25 161.8 139.25 161.8 128.38 160.66 128.38 160.66 133.22"/><path class="d" d="M169.07,131.02c-2.39,0-4.16,1.72-4.16,4.15s1.77,4.17,4.16,4.17,4.15-1.74,4.15-4.17-1.76-4.15-4.15-4.15m0,7.33c-1.74,0-3.05-1.27-3.05-3.18s1.31-3.19,3.05-3.19,3.03,1.27,3.03,3.19-1.29,3.18-3.03,3.18"/><path class="d" d="M182.35,135.37c0,1.86-1.07,2.97-2.78,2.97-1.55,0-2.46-.89-2.46-2.63v-4.63h-1.1v4.74c0,2.35,1.37,3.51,3.45,3.51,1.3,0,2.36-.58,2.94-1.57v1.49h1.06v-8.17h-1.1v4.29Z"/><path class="d" d="M187.44,133.32c0-.78,.65-1.35,2.13-1.35,.84,0,1.69,.2,2.41,.7l.48-.89c-.68-.47-1.83-.76-2.89-.76-2.08,0-3.23,.99-3.23,2.33,0,3.23,5.3,1.55,5.3,3.68,0,.81-.64,1.34-2.19,1.34-1.15,0-2.25-.4-2.91-.92l-.5,.87c.67,.58,1.97,1.01,3.33,1.01,2.13,0,3.37-.92,3.37-2.33,0-3.14-5.3-1.48-5.3-3.68"/><path class="d" d="M202.53,135.17c0-2.46-1.66-4.15-3.96-4.15s-3.99,1.72-3.99,4.15,1.74,4.17,4.29,4.17c1.29,0,2.42-.47,3.15-1.34l-.62-.71c-.62,.71-1.51,1.07-2.5,1.07-1.79,0-3.09-1.13-3.22-2.84h6.84c0-.12,.01-.25,.01-.34m-6.85-.48c.14-1.6,1.31-2.72,2.89-2.72s2.77,1.12,2.91,2.72h-5.8Z"/><path class="d" d="M15.4,85.62H1.32c-1.16,0-1.78,1.43-.93,2.28,.23,.27,.54,.39,.93,.39H6.89v21.5c-.2,1.86,3.13,1.86,2.94,0v-21.5h5.57c1.77,0,1.7-2.67,0-2.67"/><path class="d" d="M41.95,93.19c0-2.28-.81-4.1-2.4-5.49-1.58-1.39-3.63-2.09-6.15-2.09h-6.38c-.81,0-1.43,.62-1.43,1.43v22.74c-.19,1.86,3.13,1.86,2.94,0v-8.78h4.72c.27,0,.85-.04,1.04-.04l4.22,9.32c.27,.62,.69,.93,1.35,.93,.81,0,1.51-.66,1.51-1.47,0-.19-.04-.39-.15-.58l-3.99-8.89c2.94-1.12,4.72-3.71,4.72-7.08m-8.78,5.26h-4.64v-10.25h4.64c3.56,0,5.76,1.97,5.76,5.03s-2.2,5.22-5.76,5.22"/><path class="d" d="M89.25,99.23c-1.39-1.08-2.32-1.55-4.14-2.28l-4.18-1.7c-1.93-.77-2.9-2.01-2.9-3.71,0-2.28,1.86-3.83,4.92-3.83s4.68,1.62,5.02,4.37c.04,.66,.62,1.16,1.36,1.16,.92,0,1.5-.73,1.39-1.66-.35-3.91-3.4-6.34-7.77-6.34-2.29,0-4.14,.62-5.57,1.82-1.43,1.2-2.17,2.78-2.17,4.72,0,2.9,1.74,5.03,5.22,6.38l3.6,1.47c2.82,1.12,4.33,2.28,4.33,4.76,0,2.67-2.05,4.52-5.41,4.52s-5.18-1.7-5.46-4.33c-.07-.81-.54-1.2-1.35-1.2-.97,0-1.51,.77-1.39,1.66,.46,4.02,3.56,6.38,8.23,6.38,2.48,0,4.49-.66,6-2.01,1.51-1.35,2.28-3.13,2.28-5.38,0-2.05-.66-3.67-2.01-4.79"/><path class="d" d="M152.3,85.81c-.27,.27-.43,.62-.43,1.04v16.51c0,3.21-1.97,5.38-5.26,5.38s-5.22-2.17-5.22-5.38v-16.51c0-1.9-2.94-1.86-2.94,0v16.43c0,4.95,3.25,8.12,8.16,8.12,2.44,0,4.45-.73,5.96-2.2,1.51-1.47,2.24-3.44,2.24-5.92v-16.43c0-1.24-1.58-1.97-2.51-1.04"/><path class="d" d="M179.36,108.35h-10.75v-9.01h9.51c1.66,.19,1.66-2.74,0-2.63h-9.51v-8.43h10.44c.77,0,1.31-.54,1.31-1.35s-.54-1.31-1.31-1.31h-11.95c-.81,0-1.43,.62-1.43,1.43v22.54c0,.89,.62,1.43,1.43,1.43h12.26c1.78,0,1.7-2.67,0-2.67"/><path class="d" d="M204.76,98.61h-5.26c-1.05,0-1.63,1.31-.85,2.05,.19,.23,.5,.35,.85,.35h3.75v2.78c0,2.94-2.01,4.95-5.42,4.95s-5.41-2.17-5.41-5.38v-10.09c0-3.21,2.05-5.38,5.41-5.38s5.07,1.62,5.38,4.37c.08,.73,.54,1.12,1.35,1.12,.89,0,1.43-.62,1.4-1.43-.2-4.18-3.45-6.73-8.12-6.73-5.06,0-8.35,3.17-8.35,8.12v9.94c0,2.47,.77,4.45,2.32,5.92,1.55,1.47,3.56,2.2,6.03,2.2,4.92,0,8.16-2.94,8.16-7.69v-3.83c0-.77-.5-1.28-1.23-1.28"/><path class="d" d="M223.78,85.23c-5.1,0-8.35,3.13-8.35,8.12v9.94c0,2.48,.77,4.45,2.32,5.92,1.51,1.47,3.52,2.2,6.03,2.2s4.53-.73,6.07-2.2c1.5-1.47,2.28-3.44,2.28-5.92v-9.94c0-2.47-.78-4.45-2.28-5.91-1.55-1.47-3.56-2.2-6.07-2.2m5.38,18.13c0,3.21-2.01,5.38-5.38,5.38s-5.41-2.17-5.41-5.38v-10.09c0-3.21,2.05-5.38,5.41-5.38s5.38,2.17,5.38,5.38v10.09Z"/><path class="d" d="M255.68,99.23c-1.39-1.08-2.32-1.55-4.14-2.28l-4.18-1.7c-1.93-.77-2.9-2.01-2.9-3.71,0-2.28,1.86-3.83,4.92-3.83s4.68,1.62,5.02,4.37c.04,.66,.62,1.16,1.36,1.16,.92,0,1.5-.73,1.39-1.66-.35-3.91-3.4-6.34-7.77-6.34-2.29,0-4.14,.62-5.57,1.82-1.43,1.2-2.17,2.78-2.17,4.72,0,2.9,1.74,5.03,5.22,6.38l3.6,1.47c2.82,1.12,4.33,2.28,4.33,4.76,0,2.67-2.05,4.52-5.41,4.52s-5.18-1.7-5.46-4.33c-.07-.81-.54-1.2-1.35-1.2-.97,0-1.51,.77-1.39,1.66,.46,4.02,3.56,6.38,8.23,6.38,2.48,0,4.49-.66,6-2.01,1.51-1.35,2.28-3.13,2.28-5.38,0-2.05-.66-3.67-2.01-4.79"/><path class="d" d="M115.77,99.46c-.75,0-1.36,.61-1.36,1.36v8.94c0,.75,.61,1.36,1.36,1.36s1.36-.61,1.36-1.36v-8.94c0-.75-.61-1.36-1.36-1.36"/><path class="d" d="M129.62,85.76h-14.41c-.75,0-1.36,.61-1.36,1.36s.61,1.36,1.36,1.36h14.41c.75,0,1.36-.61,1.36-1.36s-.61-1.36-1.36-1.36"/><path class="d" d="M129.62,94.24h-14.41c-.75,0-1.36,.61-1.36,1.36s.61,1.36,1.36,1.36h14.41c.75,0,1.36-.61,1.36-1.36s-.61-1.36-1.36-1.36"/><path class="d" d="M65.33,108.4h-10.8v-9.05h9.56c1.67,.2,1.67-2.76,0-2.64h-9.56v-8.47h10.49c.78,0,1.32-.54,1.32-1.36s-.54-1.32-1.32-1.32h-12.01c-.82,0-1.44,.62-1.44,1.44v22.66c0,.89,.62,1.44,1.44,1.44h12.32c1.79,0,1.71-2.68,0-2.68"/></g></g></g></svg>