<?xml version="1.0" encoding="UTF-8"?><svg xmlns="http://www.w3.org/2000/svg" viewBox="0 0 366 197.91"><defs><style>.d{fill:#fff;}</style></defs><g id="a"/><g id="b"><g id="c"><g><path class="d" d="M183,0c-23.73,0-43.04,19.31-43.04,43.04s19.31,43.04,43.04,43.04,43.04-19.31,43.04-43.04S206.73,0,183,0m0,81.37c-21.13,0-38.32-17.19-38.32-38.32S161.87,4.72,183,4.72s38.32,17.19,38.32,38.33-17.19,38.32-38.32,38.32"/><path class="d" d="M189.11,45.48c-1.3,0-2.36,1.06-2.36,2.36v10.69c0,1.3,1.06,2.36,2.36,2.36s2.36-1.06,2.36-2.36v-10.69c0-1.3-1.06-2.36-2.36-2.36"/><path class="d" d="M206.51,27.41h-18.11c-1.3,0-2.36,1.06-2.36,2.36s1.06,2.36,2.36,2.36h18.11c1.3,0,2.36-1.06,2.36-2.36s-1.06-2.36-2.36-2.36"/><path class="d" d="M206.51,38.37h-18.11c-1.3,0-2.36,1.06-2.36,2.36s1.06,2.36,2.36,2.36h18.11c1.3,0,2.36-1.06,2.36-2.36s-1.06-2.36-2.36-2.36"/><path class="d" d="M178.48,27.41h-18.11c-1.3,0-2.36,1.06-2.36,2.36s1.06,2.36,2.36,2.36h18.11c1.3,0,2.36-1.06,2.36-2.36s-1.06-2.36-2.36-2.36"/><path class="d" d="M168.48,44.98l7.53-7.53c.92-.92,.92-2.42,0-3.34-.92-.92-2.42-.92-3.34,0l-7.53,7.53c-.92,.92-.92,2.41,0,3.34,.46,.46,1.06,.69,1.67,.69s1.21-.23,1.67-.69"/><path class="d" d="M173.61,41.95c-.91,.93-.89,2.43,.04,3.34,1.3,1.27,2.02,2.98,2.02,4.8,0,3.7-3.01,6.7-6.7,6.7-2.56,0-4.93-1.49-6.04-3.8-.57-1.17-1.98-1.67-3.15-1.1-1.17,.57-1.67,1.98-1.1,3.15,1.89,3.93,5.93,6.46,10.29,6.46,6.3,0,11.42-5.12,11.42-11.42,0-3.1-1.22-6.01-3.45-8.18-.93-.91-2.43-.89-3.34,.04"/><polygon class="d" points="86.2 197.78 87.83 197.78 87.83 191.23 95.82 191.23 95.82 189.81 87.83 189.81 87.83 183.74 96.79 183.74 96.79 182.33 86.2 182.33 86.2 197.78"/><rect class="d" x="100.5" y="186.17" width="1.57" height="11.61"/><path class="d" d="M101.3,181.4c-.64,0-1.15,.51-1.15,1.1s.51,1.12,1.15,1.12,1.15-.51,1.15-1.15c0-.6-.51-1.08-1.15-1.08"/><path class="d" d="M113.24,186.08c-2.01,0-3.58,.82-4.42,2.23v-2.14h-1.5v11.61h1.57v-6.09c0-2.65,1.57-4.19,4.06-4.19,2.21,0,3.49,1.26,3.49,3.71v6.58h1.57v-6.73c0-3.33-1.94-4.97-4.77-4.97"/><path class="d" d="M127.69,186.08c-3.27,0-5.67,2.45-5.67,5.89s2.47,5.92,6.09,5.92c1.83,0,3.44-.66,4.48-1.9l-.88-1.02c-.88,1.02-2.14,1.52-3.55,1.52-2.54,0-4.39-1.61-4.57-4.04h9.71c0-.18,.02-.35,.02-.48,0-3.49-2.36-5.89-5.63-5.89m-4.1,5.21c.2-2.27,1.85-3.86,4.1-3.86s3.93,1.59,4.13,3.86h-8.23Z"/><path class="d" d="M144.91,186.39c0-1.55,1.26-2.8,4.08-2.8,1.37,0,2.91,.42,4.24,1.28l.55-1.3c-1.23-.86-3.05-1.37-4.79-1.37-3.93,0-5.69,1.96-5.69,4.24,0,5.72,9.51,3.11,9.51,7.35,0,1.52-1.26,2.74-4.15,2.74-2.03,0-4-.79-5.1-1.88l-.64,1.26c1.15,1.19,3.42,2.01,5.74,2.01,3.95,0,5.76-1.94,5.76-4.21,0-5.63-9.51-3.07-9.51-7.31"/><path class="d" d="M162.37,196.54c-1.3,0-2.01-.75-2.01-2.12v-6.93h3.53v-1.32h-3.53v-2.54h-1.57v2.54h-2.08v1.32h2.08v7.02c0,2.14,1.21,3.38,3.4,3.38,.91,0,1.83-.27,2.45-.82l-.55-1.12c-.44,.4-1.08,.6-1.72,.6"/><path class="d" d="M172.45,186.08c-3.27,0-5.67,2.45-5.67,5.89s2.47,5.92,6.09,5.92c1.83,0,3.44-.66,4.48-1.9l-.88-1.02c-.88,1.02-2.14,1.52-3.56,1.52-2.54,0-4.39-1.61-4.57-4.04h9.71c0-.18,.02-.35,.02-.48,0-3.49-2.36-5.89-5.63-5.89m-4.1,5.21c.2-2.27,1.85-3.86,4.1-3.86s3.93,1.59,4.13,3.86h-8.23Z"/><path class="d" d="M185.9,186.08c-1.83,0-3.55,.57-4.72,1.57l.71,1.17c.95-.84,2.36-1.37,3.86-1.37,2.16,0,3.29,1.08,3.29,3.07v.71h-3.69c-3.33,0-4.48,1.5-4.48,3.29,0,2.01,1.61,3.38,4.24,3.38,1.92,0,3.29-.73,4-1.92v1.81h1.5v-7.2c0-3-1.7-4.5-4.7-4.5m3.13,8.21c-.62,1.52-1.92,2.36-3.69,2.36-1.85,0-2.94-.84-2.94-2.18,0-1.19,.73-2.07,2.98-2.07h3.64v1.9Z"/><polygon class="d" points="206.18 186.17 204.24 186.17 197.31 192.51 197.31 181.4 195.74 181.4 195.74 197.78 197.31 197.78 197.31 194.47 200.04 191.95 204.72 197.78 206.64 197.78 201.21 190.92 206.18 186.17"/><polygon class="d" points="228.19 189.22 218.52 189.22 218.52 182.33 216.88 182.33 216.88 197.78 218.52 197.78 218.52 190.65 228.19 190.65 228.19 197.78 229.8 197.78 229.8 182.33 228.19 182.33 228.19 189.22"/><path class="d" d="M240.13,186.08c-3.4,0-5.92,2.45-5.92,5.89s2.52,5.92,5.92,5.92,5.89-2.47,5.89-5.92-2.49-5.89-5.89-5.89m0,10.42c-2.47,0-4.33-1.81-4.33-4.52s1.85-4.53,4.33-4.53,4.3,1.81,4.3,4.53-1.83,4.52-4.3,4.52"/><path class="d" d="M259,192.26c0,2.65-1.52,4.22-3.95,4.22-2.21,0-3.49-1.26-3.49-3.73v-6.58h-1.57v6.73c0,3.33,1.94,4.99,4.9,4.99,1.85,0,3.35-.82,4.17-2.23v2.12h1.5v-11.61h-1.57v6.09Z"/><path class="d" d="M266.21,189.35c0-1.1,.93-1.92,3.03-1.92,1.19,0,2.41,.29,3.42,.99l.68-1.26c-.97-.66-2.6-1.08-4.1-1.08-2.96,0-4.59,1.41-4.59,3.31,0,4.59,7.53,2.21,7.53,5.23,0,1.15-.9,1.9-3.11,1.9-1.63,0-3.2-.57-4.13-1.3l-.71,1.24c.95,.82,2.8,1.44,4.72,1.44,3.03,0,4.79-1.3,4.79-3.31,0-4.46-7.53-2.1-7.53-5.23"/><path class="d" d="M287.65,191.98c0-3.49-2.36-5.89-5.63-5.89s-5.67,2.45-5.67,5.89,2.47,5.92,6.09,5.92c1.83,0,3.44-.66,4.48-1.9l-.88-1.02c-.88,1.02-2.14,1.52-3.55,1.52-2.54,0-4.39-1.61-4.57-4.04h9.71c0-.18,.02-.35,.02-.48m-9.73-.68c.2-2.27,1.85-3.86,4.11-3.86s3.93,1.59,4.13,3.86h-8.23Z"/><path class="d" d="M21.87,121.6H1.88c-1.65,0-2.53,2.03-1.32,3.24,.33,.38,.77,.55,1.32,.55h7.91v30.53c-.28,2.64,4.45,2.64,4.17,0v-30.53h7.91c2.52,0,2.42-3.79,0-3.79"/><path class="d" d="M59.58,132.36c0-3.24-1.15-5.82-3.41-7.8-2.25-1.98-5.16-2.97-8.73-2.97h-9.06c-1.15,0-2.03,.88-2.03,2.03v32.29c-.27,2.64,4.45,2.64,4.17,0v-12.47h6.7c.38,0,1.21-.05,1.48-.05l5.99,13.23c.38,.88,.98,1.32,1.92,1.32,1.15,0,2.14-.93,2.14-2.09,0-.27-.06-.55-.22-.82l-5.66-12.63c4.17-1.59,6.7-5.27,6.7-10.05m-12.47,7.47h-6.59v-14.55h6.59c5.05,0,8.18,2.8,8.18,7.14s-3.13,7.41-8.18,7.41"/><path class="d" d="M126.76,140.93c-1.98-1.54-3.3-2.2-5.88-3.24l-5.93-2.42c-2.74-1.1-4.12-2.86-4.12-5.27,0-3.24,2.64-5.44,6.98-5.44s6.65,2.31,7.13,6.21c.05,.93,.88,1.65,1.93,1.65,1.31,0,2.14-1.04,1.97-2.36-.5-5.55-4.83-9.01-11.04-9.01-3.25,0-5.88,.88-7.91,2.58-2.03,1.7-3.08,3.95-3.08,6.7,0,4.12,2.47,7.14,7.41,9.06l5.11,2.09c4.01,1.59,6.15,3.24,6.15,6.76,0,3.79-2.91,6.42-7.68,6.42s-7.36-2.42-7.75-6.15c-.1-1.15-.77-1.7-1.92-1.7-1.38,0-2.14,1.1-1.98,2.36,.66,5.71,5.05,9.06,11.69,9.06,3.52,0,6.37-.93,8.52-2.86,2.14-1.92,3.24-4.45,3.24-7.63,0-2.91-.93-5.22-2.85-6.81"/><path class="d" d="M216.31,121.87c-.38,.38-.61,.88-.61,1.48v23.45c0,4.56-2.8,7.63-7.47,7.63s-7.41-3.08-7.41-7.63v-23.45c0-2.69-4.17-2.63-4.17,0v23.34c0,7.03,4.61,11.53,11.59,11.53,3.46,0,6.32-1.04,8.46-3.13,2.14-2.09,3.18-4.89,3.18-8.4v-23.34c0-1.76-2.25-2.8-3.57-1.48"/><path class="d" d="M254.74,153.89h-15.27v-12.79h13.51c2.36,.27,2.36-3.9,0-3.74h-13.51v-11.97h14.83c1.09,0,1.86-.77,1.86-1.92s-.77-1.87-1.86-1.87h-16.97c-1.15,0-2.03,.88-2.03,2.03v32.01c0,1.26,.88,2.03,2.03,2.03h17.41c2.53,0,2.42-3.79,0-3.79"/><path class="d" d="M290.82,140.05h-7.47c-1.49,0-2.31,1.87-1.21,2.91,.27,.33,.71,.49,1.21,.49h5.33v3.95c0,4.17-2.85,7.03-7.69,7.03s-7.69-3.08-7.69-7.63v-14.33c0-4.56,2.91-7.63,7.69-7.63s7.2,2.31,7.64,6.21c.11,1.04,.77,1.59,1.92,1.59,1.26,0,2.03-.88,1.98-2.03-.28-5.93-4.89-9.55-11.54-9.55-7.19,0-11.86,4.5-11.86,11.53v14.11c0,3.51,1.09,6.32,3.3,8.4,2.2,2.09,5.05,3.13,8.56,3.13,6.98,0,11.59-4.17,11.59-10.93v-5.44c0-1.1-.71-1.81-1.75-1.81"/><path class="d" d="M317.84,121.05c-7.24,0-11.86,4.45-11.86,11.53v14.11c0,3.51,1.1,6.32,3.29,8.4,2.14,2.09,5,3.13,8.56,3.13s6.43-1.04,8.63-3.13c2.14-2.09,3.24-4.89,3.24-8.4v-14.11c0-3.51-1.1-6.32-3.24-8.4-2.2-2.09-5.05-3.13-8.63-3.13m7.64,25.75c0,4.56-2.85,7.63-7.64,7.63s-7.68-3.08-7.68-7.63v-14.33c0-4.56,2.91-7.63,7.68-7.63s7.64,3.08,7.64,7.63v14.33Z"/><path class="d" d="M363.15,140.93c-1.98-1.54-3.3-2.2-5.88-3.24l-5.93-2.42c-2.74-1.1-4.12-2.86-4.12-5.27,0-3.24,2.64-5.44,6.98-5.44s6.64,2.31,7.13,6.21c.05,.93,.88,1.65,1.93,1.65,1.31,0,2.14-1.04,1.98-2.36-.5-5.55-4.83-9.01-11.04-9.01-3.25,0-5.88,.88-7.91,2.58-2.03,1.7-3.08,3.95-3.08,6.7,0,4.12,2.47,7.14,7.41,9.06l5.11,2.09c4.01,1.59,6.15,3.24,6.15,6.76,0,3.79-2.91,6.42-7.68,6.42s-7.36-2.42-7.75-6.15c-.1-1.15-.77-1.7-1.92-1.7-1.38,0-2.14,1.1-1.98,2.36,.66,5.71,5.06,9.06,11.69,9.06,3.52,0,6.37-.93,8.52-2.86,2.14-1.92,3.24-4.45,3.24-7.63,0-2.91-.94-5.22-2.85-6.81"/><path class="d" d="M164.43,141.26c-1.07,0-1.93,.87-1.93,1.93v12.7c0,1.07,.87,1.93,1.93,1.93s1.93-.86,1.93-1.93v-12.7c0-1.07-.87-1.93-1.93-1.93"/><path class="d" d="M184.09,121.8h-20.46c-1.07,0-1.93,.87-1.93,1.93s.87,1.93,1.93,1.93h20.46c1.07,0,1.93-.87,1.93-1.93s-.87-1.93-1.93-1.93"/><path class="d" d="M184.09,133.84h-20.46c-1.07,0-1.93,.87-1.93,1.93s.87,1.93,1.93,1.93h20.46c1.07,0,1.93-.86,1.93-1.93s-.87-1.93-1.93-1.93"/><path class="d" d="M92.79,153.96h-15.34v-12.86h13.58c2.37,.28,2.37-3.92,0-3.75h-13.58v-12.03h14.9c1.1,0,1.88-.77,1.88-1.93s-.77-1.88-1.88-1.88h-17.06c-1.16,0-2.04,.88-2.04,2.04v32.18c0,1.27,.88,2.04,2.04,2.04h17.5c2.54,0,2.43-3.81,0-3.81"/></g></g></g></svg>