<?xml version="1.0" encoding="UTF-8"?><svg xmlns="http://www.w3.org/2000/svg" viewBox="0 0 105.89 105.89"><defs><style>.d{fill:#fff;}</style></defs><g id="a"/><g id="b"><g id="c"><g><path class="d" d="M52.95,0C23.75,0,0,23.75,0,52.94s23.75,52.95,52.95,52.95,52.94-23.75,52.94-52.95S82.14,0,52.95,0m0,100.09c-25.99,0-47.14-21.15-47.14-47.14S26.95,5.8,52.95,5.8s47.14,21.15,47.14,47.14-21.15,47.14-47.14,47.14"/><path class="d" d="M60.46,55.94c-1.6,0-2.9,1.3-2.9,2.9v13.15c0,1.6,1.3,2.9,2.9,2.9s2.9-1.3,2.9-2.9v-13.15c0-1.6-1.3-2.9-2.9-2.9"/><path class="d" d="M81.87,33.71h-22.28c-1.6,0-2.9,1.3-2.9,2.9s1.3,2.9,2.9,2.9h22.28c1.6,0,2.9-1.3,2.9-2.9s-1.3-2.9-2.9-2.9"/><path class="d" d="M81.87,47.2h-22.28c-1.6,0-2.9,1.3-2.9,2.9s1.3,2.9,2.9,2.9h22.28c1.6,0,2.9-1.3,2.9-2.9s-1.3-2.9-2.9-2.9"/><path class="d" d="M47.39,33.71H25.11c-1.6,0-2.9,1.3-2.9,2.9s1.3,2.9,2.9,2.9h22.28c1.6,0,2.9-1.3,2.9-2.9s-1.3-2.9-2.9-2.9"/><path class="d" d="M35.08,55.33l9.26-9.26c1.13-1.13,1.13-2.97,0-4.1-1.13-1.13-2.97-1.13-4.1,0l-9.26,9.26c-1.13,1.13-1.13,2.97,0,4.1,.57,.57,1.31,.85,2.05,.85s1.49-.28,2.05-.85"/><path class="d" d="M41.4,51.59c-1.12,1.15-1.1,2.99,.05,4.1,1.6,1.57,2.49,3.66,2.49,5.9,0,4.54-3.7,8.24-8.24,8.24-3.15,0-6.06-1.83-7.43-4.67-.7-1.44-2.43-2.05-3.88-1.35-1.44,.7-2.05,2.43-1.35,3.88,2.33,4.83,7.3,7.95,12.66,7.95,7.74,0,14.05-6.3,14.05-14.05,0-3.82-1.51-7.39-4.24-10.06-1.15-1.12-2.98-1.1-4.1,.05"/></g></g></g></svg>