<svg id="Layer_1" data-name="Layer 1" xmlns="http://www.w3.org/2000/svg" xmlns:xlink="http://www.w3.org/1999/xlink" viewBox="0 0 630.65 78.83"><defs><style>.cls-1{fill:none;}.cls-2{clip-path:url(#clip-path);}.cls-3{opacity:0.58;}.cls-4{fill:#E18F36;}</style><clipPath id="clip-path"><rect class="cls-1" x="-26.28" y="-26.28" width="683.2" height="472.99"/></clipPath></defs><title>borde</title><g class="cls-2"><g class="cls-2"><g class="cls-3"><g class="cls-2"><path class="cls-4" d="M20.8-5.48a7.76,7.76,0,0,0-5.49-2.27v-7.56H7.75A7.72,7.72,0,0,0,5.48-20.8L0-26.27-5.48-20.8a7.76,7.76,0,0,0-2.27,5.49h-7.57v7.56A7.76,7.76,0,0,0-20.8-5.48L-26.28,0l5.48,5.48a7.71,7.71,0,0,0,5.48,2.27v7.57h7.57A7.76,7.76,0,0,0-5.48,20.8L0,26.28,5.48,20.8a7.71,7.71,0,0,0,2.27-5.48h7.56V7.75A7.72,7.72,0,0,0,20.8,5.48L26.28,0ZM19.61,4.29a6,6,0,0,1-4.3,1.78H13.63v7.57H6.07v1.68a6,6,0,0,1-1.78,4.29L0,23.9l-4.29-4.29a6,6,0,0,1-1.78-4.29V13.64h-7.56V6.07h-1.69A6,6,0,0,1-19.6,4.29L-23.9,0l4.29-4.29a6,6,0,0,1,4.29-1.78h1.69v-7.56h7.56v-1.68a6,6,0,0,1,1.78-4.3L0-23.9l4.29,4.29a6,6,0,0,1,1.78,4.3v1.68h7.56v7.56h1.68a6,6,0,0,1,4.3,1.78L23.9,0Z"/><path class="cls-4" d="M73.35-5.48a7.74,7.74,0,0,0-5.48-2.27v-7.56H60.3A7.72,7.72,0,0,0,58-20.8l-5.48-5.47L47.07-20.8a7.75,7.75,0,0,0-2.26,5.49H37.24v7.56a7.72,7.72,0,0,0-5.48,2.27L26.28,0l5.48,5.48a7.68,7.68,0,0,0,5.48,2.27v7.57h7.57a7.75,7.75,0,0,0,2.26,5.48l5.48,5.48L58,20.8a7.71,7.71,0,0,0,2.27-5.48h7.57V7.75a7.7,7.7,0,0,0,5.48-2.27L78.83,0ZM72.16,4.29a6,6,0,0,1-4.29,1.78H66.19v7.57H58.62v1.68a6.05,6.05,0,0,1-1.77,4.29l-4.3,4.29-4.29-4.29a6.05,6.05,0,0,1-1.77-4.29V13.64H38.92V6.07H37.24A6,6,0,0,1,33,4.29L28.65,0,33-4.29a6,6,0,0,1,4.29-1.78h1.68v-7.56h7.57v-1.68a6.06,6.06,0,0,1,1.77-4.3l4.29-4.29,4.29,4.29a6,6,0,0,1,1.78,4.3v1.68h7.57v7.56h1.68a6,6,0,0,1,4.29,1.78L76.45,0Z"/><path class="cls-4" d="M20.8,47.07a7.76,7.76,0,0,0-5.49-2.27V37.24H7.75a7.7,7.7,0,0,0-2.27-5.48L0,26.28l-5.48,5.48a7.74,7.74,0,0,0-2.27,5.48h-7.57V44.8a7.76,7.76,0,0,0-5.48,2.27l-5.48,5.48L-20.8,58a7.76,7.76,0,0,0,5.48,2.27v7.56h7.57a7.72,7.72,0,0,0,2.27,5.48L0,78.83l5.48-5.48a7.68,7.68,0,0,0,2.27-5.48h7.56V60.31A7.76,7.76,0,0,0,20.8,58l5.48-5.49Zm-1.19,9.78a6.07,6.07,0,0,1-4.3,1.78H13.63v7.56H6.07v1.68a6,6,0,0,1-1.78,4.29L0,76.46l-4.29-4.3a6,6,0,0,1-1.78-4.29V66.19h-7.56V58.63h-1.69a6,6,0,0,1-4.28-1.78l-4.3-4.3,4.29-4.28a6,6,0,0,1,4.29-1.78h1.69V38.92h7.56V37.24a6,6,0,0,1,1.78-4.3L0,28.66,4.29,33a6,6,0,0,1,1.78,4.29v1.68h7.56v7.57h1.68a6,6,0,0,1,4.3,1.78l4.29,4.28Z"/><path class="cls-4" d="M73.35,47.07a7.74,7.74,0,0,0-5.48-2.27V37.24H60.3A7.7,7.7,0,0,0,58,31.76l-5.48-5.48-5.48,5.48a7.73,7.73,0,0,0-2.26,5.48H37.24V44.8a7.72,7.72,0,0,0-5.48,2.27l-5.48,5.48L31.76,58a7.72,7.72,0,0,0,5.48,2.27v7.56h7.57a7.71,7.71,0,0,0,2.26,5.48l5.48,5.48L58,73.35a7.68,7.68,0,0,0,2.27-5.48h7.57V60.31A7.74,7.74,0,0,0,73.35,58l5.48-5.49Zm-1.19,9.78a6,6,0,0,1-4.29,1.78H66.19v7.56H58.62v1.68a6.05,6.05,0,0,1-1.77,4.29l-4.3,4.3-4.29-4.3a6.05,6.05,0,0,1-1.77-4.29V66.19H38.92V58.63H37.24A6,6,0,0,1,33,56.85l-4.3-4.3L33,48.27a6,6,0,0,1,4.29-1.78h1.68V38.92h7.57V37.24a6.08,6.08,0,0,1,1.77-4.3l4.29-4.28L56.84,33a6,6,0,0,1,1.78,4.29v1.68h7.57v7.57h1.68a6,6,0,0,1,4.29,1.78l4.29,4.28Z"/><path class="cls-4" d="M125.91-5.48a7.76,7.76,0,0,0-5.49-2.27v-7.56h-7.56a7.76,7.76,0,0,0-2.27-5.49l-5.48-5.47L99.63-20.8a7.72,7.72,0,0,0-2.27,5.49H89.79v7.56a7.76,7.76,0,0,0-5.48,2.27L78.83,0l5.48,5.48a7.71,7.71,0,0,0,5.48,2.27v7.57h7.57a7.71,7.71,0,0,0,2.27,5.48l5.48,5.48,5.48-5.48a7.76,7.76,0,0,0,2.27-5.48h7.56V7.75a7.72,7.72,0,0,0,5.49-2.27L131.38,0Zm-1.2,9.77a6,6,0,0,1-4.29,1.78h-1.68v7.57h-7.56v1.68a6,6,0,0,1-1.78,4.29l-4.29,4.29-4.29-4.29A6,6,0,0,1,99,15.32V13.64H91.47V6.07H89.79A6,6,0,0,1,85.5,4.29L81.21,0,85.5-4.29a6,6,0,0,1,4.29-1.78h1.68v-7.56H99v-1.68a6,6,0,0,1,1.78-4.3l4.29-4.29,4.29,4.29a6,6,0,0,1,1.78,4.3v1.68h7.56v7.56h1.68a6,6,0,0,1,4.29,1.78L129,0Z"/><path class="cls-4" d="M178.46-5.48A7.74,7.74,0,0,0,173-7.75v-7.56h-7.57a7.72,7.72,0,0,0-2.27-5.49l-5.48-5.47-5.48,5.47a7.76,7.76,0,0,0-2.27,5.49h-7.56v7.56a7.72,7.72,0,0,0-5.48,2.27L131.38,0l5.49,5.48a7.68,7.68,0,0,0,5.48,2.27v7.57h7.56a7.76,7.76,0,0,0,2.27,5.48l5.48,5.48,5.48-5.48a7.71,7.71,0,0,0,2.27-5.48H173V7.75a7.7,7.7,0,0,0,5.48-2.27L183.94,0Zm-1.19,9.77A6,6,0,0,1,173,6.07h-1.69v7.57h-7.56v1.68A6.05,6.05,0,0,1,162,19.61l-4.3,4.29-4.29-4.29a6.05,6.05,0,0,1-1.77-4.29V13.64H144V6.07h-1.68a6,6,0,0,1-4.29-1.78L133.76,0l4.29-4.29a6,6,0,0,1,4.3-1.78H144v-7.56h7.57v-1.68a6.06,6.06,0,0,1,1.77-4.3l4.29-4.29L162-19.61a6,6,0,0,1,1.78,4.3v1.68h7.56v7.56H173a6,6,0,0,1,4.29,1.78L181.56,0Z"/><path class="cls-4" d="M125.91,47.07a7.76,7.76,0,0,0-5.49-2.27V37.24h-7.56a7.74,7.74,0,0,0-2.27-5.48l-5.48-5.48-5.48,5.48a7.7,7.7,0,0,0-2.27,5.48H89.79V44.8a7.76,7.76,0,0,0-5.48,2.27l-5.48,5.48L84.31,58a7.76,7.76,0,0,0,5.48,2.27v7.56h7.57a7.68,7.68,0,0,0,2.27,5.48l5.48,5.48,5.48-5.48a7.72,7.72,0,0,0,2.27-5.48h7.56V60.31A7.76,7.76,0,0,0,125.91,58l5.47-5.49Zm-1.2,9.78a6,6,0,0,1-4.29,1.78h-1.68v7.56h-7.56v1.68a6,6,0,0,1-1.78,4.29l-4.29,4.3-4.29-4.3A6,6,0,0,1,99,67.87V66.19H91.47V58.63H89.79a6.06,6.06,0,0,1-4.29-1.78l-4.29-4.3,4.29-4.28a6,6,0,0,1,4.29-1.78h1.68V38.92H99V37.24a6,6,0,0,1,1.78-4.3l4.29-4.28L109.4,33a6,6,0,0,1,1.78,4.29v1.68h7.56v7.57h1.68a6,6,0,0,1,4.29,1.78l4.3,4.28Z"/><path class="cls-4" d="M178.46,47.07A7.74,7.74,0,0,0,173,44.8V37.24h-7.57a7.7,7.7,0,0,0-2.27-5.48l-5.48-5.48-5.48,5.48a7.74,7.74,0,0,0-2.27,5.48h-7.56V44.8a7.72,7.72,0,0,0-5.48,2.27l-5.49,5.48L136.87,58a7.72,7.72,0,0,0,5.48,2.27v7.56h7.56a7.72,7.72,0,0,0,2.27,5.48l5.48,5.48,5.48-5.48a7.68,7.68,0,0,0,2.27-5.48H173V60.31A7.74,7.74,0,0,0,178.46,58l5.48-5.49Zm-1.19,9.78A6.06,6.06,0,0,1,173,58.63h-1.69v7.56h-7.56v1.68A6.05,6.05,0,0,1,162,72.16l-4.3,4.3-4.29-4.3a6.05,6.05,0,0,1-1.77-4.29V66.19H144V58.63h-1.68a6,6,0,0,1-4.29-1.78l-4.3-4.3,4.29-4.28a6,6,0,0,1,4.3-1.78H144V38.92h7.57V37.24a6.08,6.08,0,0,1,1.77-4.3l4.29-4.28L162,33a6,6,0,0,1,1.78,4.29v1.68h7.56v7.57H173a6,6,0,0,1,4.29,1.78l4.29,4.28Z"/><path class="cls-4" d="M231-5.48a7.74,7.74,0,0,0-5.48-2.27v-7.56H218a7.76,7.76,0,0,0-2.27-5.49l-5.48-5.47-5.49,5.47a7.75,7.75,0,0,0-2.26,5.49H194.9v7.56a7.74,7.74,0,0,0-5.48,2.27L183.94,0l5.48,5.48a7.7,7.7,0,0,0,5.48,2.27v7.57h7.57a7.75,7.75,0,0,0,2.26,5.48l5.49,5.48,5.48-5.48A7.76,7.76,0,0,0,218,15.32h7.56V7.75A7.7,7.7,0,0,0,231,5.48L236.49,0Zm-1.19,9.77a6,6,0,0,1-4.29,1.78h-1.68v7.57h-7.57v1.68a6.05,6.05,0,0,1-1.77,4.29l-4.29,4.29-4.3-4.29a6.05,6.05,0,0,1-1.77-4.29V13.64h-7.57V6.07H194.9a6,6,0,0,1-4.29-1.78L186.31,0l4.3-4.29a6,6,0,0,1,4.29-1.78h1.68v-7.56h7.57v-1.68a6.06,6.06,0,0,1,1.77-4.3l4.3-4.29,4.29,4.29a6.06,6.06,0,0,1,1.77,4.3v1.68h7.57v7.56h1.68a6,6,0,0,1,4.29,1.78L234.11,0Z"/><path class="cls-4" d="M283.57-5.48a7.76,7.76,0,0,0-5.49-2.27v-7.56h-7.56a7.72,7.72,0,0,0-2.27-5.49l-5.48-5.47-5.48,5.47A7.76,7.76,0,0,0,255-15.31h-7.57v7.56A7.76,7.76,0,0,0,242-5.48L236.49,0,242,5.48a7.71,7.71,0,0,0,5.48,2.27v7.57H255a7.76,7.76,0,0,0,2.27,5.48l5.48,5.48,5.48-5.48a7.71,7.71,0,0,0,2.27-5.48h7.56V7.75a7.72,7.72,0,0,0,5.49-2.27L289.05,0Zm-1.19,9.77a6,6,0,0,1-4.3,1.78H276.4v7.57h-7.56v1.68a6,6,0,0,1-1.78,4.29l-4.29,4.29-4.29-4.29a6,6,0,0,1-1.78-4.29V13.64h-7.56V6.07h-1.69a6,6,0,0,1-4.28-1.78L238.87,0l4.29-4.29a6,6,0,0,1,4.29-1.78h1.69v-7.56h7.56v-1.68a6,6,0,0,1,1.78-4.3l4.29-4.29,4.29,4.29a6,6,0,0,1,1.78,4.3v1.68h7.56v7.56h1.68a6,6,0,0,1,4.3,1.78L286.67,0Z"/><path class="cls-4" d="M231,47.07a7.74,7.74,0,0,0-5.48-2.27V37.24H218a7.74,7.74,0,0,0-2.27-5.48l-5.48-5.48-5.49,5.48a7.73,7.73,0,0,0-2.26,5.48H194.9V44.8a7.74,7.74,0,0,0-5.48,2.27l-5.48,5.48L189.42,58a7.74,7.74,0,0,0,5.48,2.27v7.56h7.57a7.71,7.71,0,0,0,2.26,5.48l5.49,5.48,5.48-5.48A7.72,7.72,0,0,0,218,67.87h7.56V60.31A7.74,7.74,0,0,0,231,58l5.48-5.49Zm-1.19,9.78a6,6,0,0,1-4.29,1.78h-1.68v7.56h-7.57v1.68a6.05,6.05,0,0,1-1.77,4.29l-4.29,4.3-4.3-4.3a6.05,6.05,0,0,1-1.77-4.29V66.19h-7.57V58.63H194.9a6.06,6.06,0,0,1-4.29-1.78l-4.3-4.3,4.3-4.28a6,6,0,0,1,4.29-1.78h1.68V38.92h7.57V37.24a6.08,6.08,0,0,1,1.77-4.3l4.3-4.28L214.51,33a6,6,0,0,1,1.77,4.29v1.68h7.57v7.57h1.68a6,6,0,0,1,4.29,1.78l4.29,4.28Z"/><path class="cls-4" d="M283.57,47.07a7.76,7.76,0,0,0-5.49-2.27V37.24h-7.56a7.7,7.7,0,0,0-2.27-5.48l-5.48-5.48-5.48,5.48A7.74,7.74,0,0,0,255,37.24h-7.57V44.8A7.76,7.76,0,0,0,242,47.07l-5.48,5.48L242,58a7.76,7.76,0,0,0,5.48,2.27v7.56H255a7.72,7.72,0,0,0,2.27,5.48l5.48,5.48,5.48-5.48a7.68,7.68,0,0,0,2.27-5.48h7.56V60.31A7.76,7.76,0,0,0,283.57,58l5.48-5.49Zm-1.19,9.78a6.07,6.07,0,0,1-4.3,1.78H276.4v7.56h-7.56v1.68a6,6,0,0,1-1.78,4.29l-4.29,4.3-4.29-4.3a6,6,0,0,1-1.78-4.29V66.19h-7.56V58.63h-1.69a6,6,0,0,1-4.28-1.78l-4.3-4.3,4.29-4.28a6,6,0,0,1,4.29-1.78h1.69V38.92h7.56V37.24a6,6,0,0,1,1.78-4.3l4.29-4.28L267.06,33a6,6,0,0,1,1.78,4.29v1.68h7.56v7.57h1.68a6,6,0,0,1,4.3,1.78l4.29,4.28Z"/><path class="cls-4" d="M336.12-5.48a7.74,7.74,0,0,0-5.48-2.27v-7.56h-7.57a7.72,7.72,0,0,0-2.27-5.49l-5.48-5.47-5.48,5.47a7.75,7.75,0,0,0-2.26,5.49H300v7.56a7.72,7.72,0,0,0-5.48,2.27L289.05,0l5.48,5.48A7.68,7.68,0,0,0,300,7.75v7.57h7.57a7.75,7.75,0,0,0,2.26,5.48l5.48,5.48,5.48-5.48a7.71,7.71,0,0,0,2.27-5.48h7.57V7.75a7.7,7.7,0,0,0,5.48-2.27L341.6,0Zm-1.19,9.77a6,6,0,0,1-4.29,1.78H329v7.57h-7.57v1.68a6.05,6.05,0,0,1-1.77,4.29l-4.3,4.29L311,19.61a6.05,6.05,0,0,1-1.77-4.29V13.64h-7.57V6.07H300a6,6,0,0,1-4.29-1.78L291.42,0l4.3-4.29A6,6,0,0,1,300-6.07h1.68v-7.56h7.57v-1.68a6.06,6.06,0,0,1,1.77-4.3l4.29-4.29,4.29,4.29a6,6,0,0,1,1.78,4.3v1.68H329v7.56h1.68a6,6,0,0,1,4.29,1.78L339.22,0Z"/><path class="cls-4" d="M388.68-5.48a7.76,7.76,0,0,0-5.49-2.27v-7.56h-7.56a7.76,7.76,0,0,0-2.27-5.49l-5.48-5.47L362.4-20.8a7.72,7.72,0,0,0-2.27,5.49h-7.57v7.56a7.76,7.76,0,0,0-5.48,2.27L341.6,0l5.48,5.48a7.71,7.71,0,0,0,5.48,2.27v7.57h7.57a7.71,7.71,0,0,0,2.27,5.48l5.48,5.48,5.48-5.48a7.76,7.76,0,0,0,2.27-5.48h7.56V7.75a7.72,7.72,0,0,0,5.49-2.27L394.15,0Zm-1.2,9.77a6,6,0,0,1-4.29,1.78h-1.68v7.57H374v1.68a6,6,0,0,1-1.78,4.29l-4.29,4.29-4.29-4.29a6,6,0,0,1-1.78-4.29V13.64h-7.57V6.07h-1.68a6,6,0,0,1-4.29-1.78L344,0l4.29-4.29a6,6,0,0,1,4.29-1.78h1.68v-7.56h7.57v-1.68a6,6,0,0,1,1.78-4.3l4.29-4.29,4.29,4.29a6,6,0,0,1,1.78,4.3v1.68h7.56v7.56h1.68a6,6,0,0,1,4.29,1.78L391.78,0Z"/><path class="cls-4" d="M336.12,47.07a7.74,7.74,0,0,0-5.48-2.27V37.24h-7.57a7.7,7.7,0,0,0-2.27-5.48l-5.48-5.48-5.48,5.48a7.73,7.73,0,0,0-2.26,5.48H300V44.8a7.72,7.72,0,0,0-5.48,2.27l-5.48,5.48L294.53,58A7.72,7.72,0,0,0,300,60.31v7.56h7.57a7.71,7.71,0,0,0,2.26,5.48l5.48,5.48,5.48-5.48a7.68,7.68,0,0,0,2.27-5.48h7.57V60.31A7.74,7.74,0,0,0,336.12,58l5.48-5.49Zm-1.19,9.78a6,6,0,0,1-4.29,1.78H329v7.56h-7.57v1.68a6.05,6.05,0,0,1-1.77,4.29l-4.3,4.3L311,72.16a6.05,6.05,0,0,1-1.77-4.29V66.19h-7.57V58.63H300a6,6,0,0,1-4.29-1.78l-4.3-4.3,4.3-4.28A6,6,0,0,1,300,46.49h1.68V38.92h7.57V37.24a6.08,6.08,0,0,1,1.77-4.3l4.29-4.28L319.61,33a6,6,0,0,1,1.78,4.29v1.68H329v7.57h1.68a6,6,0,0,1,4.29,1.78l4.29,4.28Z"/><path class="cls-4" d="M388.68,47.07a7.76,7.76,0,0,0-5.49-2.27V37.24h-7.56a7.74,7.74,0,0,0-2.27-5.48l-5.48-5.48-5.48,5.48a7.7,7.7,0,0,0-2.27,5.48h-7.57V44.8a7.76,7.76,0,0,0-5.48,2.27l-5.48,5.48L347.08,58a7.76,7.76,0,0,0,5.48,2.27v7.56h7.57a7.68,7.68,0,0,0,2.27,5.48l5.48,5.48,5.48-5.48a7.72,7.72,0,0,0,2.27-5.48h7.56V60.31A7.76,7.76,0,0,0,388.68,58l5.47-5.49Zm-1.2,9.78a6,6,0,0,1-4.29,1.78h-1.68v7.56H374v1.68a6,6,0,0,1-1.78,4.29l-4.29,4.3-4.29-4.3a6,6,0,0,1-1.78-4.29V66.19h-7.57V58.63h-1.68a6.06,6.06,0,0,1-4.29-1.78L344,52.55l4.29-4.28a6,6,0,0,1,4.29-1.78h1.68V38.92h7.57V37.24a6,6,0,0,1,1.78-4.3l4.29-4.28L372.17,33A6,6,0,0,1,374,37.24v1.68h7.56v7.57h1.68a6,6,0,0,1,4.29,1.78l4.3,4.28Z"/><path class="cls-4" d="M441.23-5.48a7.74,7.74,0,0,0-5.48-2.27v-7.56h-7.57a7.72,7.72,0,0,0-2.27-5.49l-5.48-5.47L415-20.8a7.76,7.76,0,0,0-2.27,5.49h-7.56v7.56a7.72,7.72,0,0,0-5.48,2.27L394.15,0l5.49,5.48a7.68,7.68,0,0,0,5.48,2.27v7.57h7.56A7.76,7.76,0,0,0,415,20.8l5.48,5.48,5.48-5.48a7.71,7.71,0,0,0,2.27-5.48h7.57V7.75a7.7,7.7,0,0,0,5.48-2.27L446.71,0ZM440,4.29a6,6,0,0,1-4.29,1.78h-1.69v7.57H426.5v1.68a6.05,6.05,0,0,1-1.77,4.29l-4.3,4.29-4.29-4.29a6.05,6.05,0,0,1-1.77-4.29V13.64H406.8V6.07h-1.68a6,6,0,0,1-4.29-1.78L396.53,0l4.29-4.29a6,6,0,0,1,4.3-1.78h1.68v-7.56h7.57v-1.68a6.06,6.06,0,0,1,1.77-4.3l4.29-4.29,4.29,4.29a6,6,0,0,1,1.78,4.3v1.68h7.56v7.56h1.69A6,6,0,0,1,440-4.29L444.33,0Z"/><path class="cls-4" d="M493.78-5.48a7.74,7.74,0,0,0-5.48-2.27v-7.56h-7.56a7.76,7.76,0,0,0-2.27-5.49L473-26.27,467.5-20.8a7.75,7.75,0,0,0-2.26,5.49h-7.57v7.56a7.74,7.74,0,0,0-5.48,2.27L446.71,0l5.48,5.48a7.7,7.7,0,0,0,5.48,2.27v7.57h7.57a7.75,7.75,0,0,0,2.26,5.48L473,26.28l5.48-5.48a7.76,7.76,0,0,0,2.27-5.48h7.56V7.75a7.7,7.7,0,0,0,5.48-2.27L499.26,0Zm-1.19,9.77a6,6,0,0,1-4.29,1.78h-1.68v7.57h-7.57v1.68a6.05,6.05,0,0,1-1.77,4.29L473,23.9l-4.3-4.29a6.05,6.05,0,0,1-1.77-4.29V13.64h-7.57V6.07h-1.68a6,6,0,0,1-4.29-1.78L449.08,0l4.3-4.29a6,6,0,0,1,4.29-1.78h1.68v-7.56h7.57v-1.68a6.06,6.06,0,0,1,1.77-4.3L473-23.9l4.29,4.29a6.06,6.06,0,0,1,1.77,4.3v1.68h7.57v7.56h1.68a6,6,0,0,1,4.29,1.78L496.88,0Z"/><path class="cls-4" d="M441.23,47.07a7.74,7.74,0,0,0-5.48-2.27V37.24h-7.57a7.7,7.7,0,0,0-2.27-5.48l-5.48-5.48L415,31.76a7.74,7.74,0,0,0-2.27,5.48h-7.56V44.8a7.72,7.72,0,0,0-5.48,2.27l-5.49,5.48L399.64,58a7.72,7.72,0,0,0,5.48,2.27v7.56h7.56A7.72,7.72,0,0,0,415,73.35l5.48,5.48,5.48-5.48a7.68,7.68,0,0,0,2.27-5.48h7.57V60.31A7.74,7.74,0,0,0,441.23,58l5.48-5.49ZM440,56.85a6.06,6.06,0,0,1-4.29,1.78h-1.69v7.56H426.5v1.68a6.05,6.05,0,0,1-1.77,4.29l-4.3,4.3-4.29-4.3a6.05,6.05,0,0,1-1.77-4.29V66.19H406.8V58.63h-1.68a6,6,0,0,1-4.29-1.78l-4.3-4.3,4.29-4.28a6,6,0,0,1,4.3-1.78h1.68V38.92h7.57V37.24a6.08,6.08,0,0,1,1.77-4.3l4.29-4.28L424.72,33a6,6,0,0,1,1.78,4.29v1.68h7.56v7.57h1.69A6,6,0,0,1,440,48.27l4.29,4.28Z"/><path class="cls-4" d="M493.78,47.07a7.74,7.74,0,0,0-5.48-2.27V37.24h-7.56a7.74,7.74,0,0,0-2.27-5.48L473,26.28l-5.49,5.48a7.73,7.73,0,0,0-2.26,5.48h-7.57V44.8a7.74,7.74,0,0,0-5.48,2.27l-5.48,5.48L452.19,58a7.74,7.74,0,0,0,5.48,2.27v7.56h7.57a7.71,7.71,0,0,0,2.26,5.48L473,78.83l5.48-5.48a7.72,7.72,0,0,0,2.27-5.48h7.56V60.31A7.74,7.74,0,0,0,493.78,58l5.48-5.49Zm-1.19,9.78a6,6,0,0,1-4.29,1.78h-1.68v7.56h-7.57v1.68a6.05,6.05,0,0,1-1.77,4.29L473,76.46l-4.3-4.3a6.05,6.05,0,0,1-1.77-4.29V66.19h-7.57V58.63h-1.68a6.06,6.06,0,0,1-4.29-1.78l-4.3-4.3,4.3-4.28a6,6,0,0,1,4.29-1.78h1.68V38.92h7.57V37.24a6.08,6.08,0,0,1,1.77-4.3l4.3-4.28L477.28,33a6,6,0,0,1,1.77,4.29v1.68h7.57v7.57h1.68a6,6,0,0,1,4.29,1.78l4.29,4.28Z"/><path class="cls-4" d="M546.34-5.48a7.75,7.75,0,0,0-5.49-2.27v-7.56h-7.56A7.72,7.72,0,0,0,531-20.8l-5.48-5.47-5.48,5.47a7.76,7.76,0,0,0-2.27,5.49h-7.57v7.56a7.76,7.76,0,0,0-5.48,2.27L499.26,0l5.48,5.48a7.71,7.71,0,0,0,5.48,2.27v7.57h7.57a7.76,7.76,0,0,0,2.27,5.48l5.48,5.48L531,20.8a7.71,7.71,0,0,0,2.27-5.48h7.56V7.75a7.7,7.7,0,0,0,5.49-2.27L551.82,0Zm-1.19,9.77a6,6,0,0,1-4.3,1.78h-1.68v7.57h-7.56v1.68a6,6,0,0,1-1.78,4.29l-4.29,4.29-4.29-4.29a6,6,0,0,1-1.78-4.29V13.64h-7.56V6.07h-1.69a6,6,0,0,1-4.28-1.78L501.64,0l4.29-4.29a6,6,0,0,1,4.29-1.78h1.69v-7.56h7.56v-1.68a6,6,0,0,1,1.78-4.3l4.29-4.29,4.29,4.29a6,6,0,0,1,1.78,4.3v1.68h7.56v7.56h1.68a6,6,0,0,1,4.3,1.78L549.44,0Z"/><path class="cls-4" d="M598.89-5.48a7.74,7.74,0,0,0-5.48-2.27v-7.56h-7.56a7.73,7.73,0,0,0-2.28-5.49l-5.47-5.47-5.49,5.47a7.75,7.75,0,0,0-2.26,5.49h-7.57v7.56a7.74,7.74,0,0,0-5.48,2.27L551.82,0l5.48,5.48a7.7,7.7,0,0,0,5.48,2.27v7.57h7.57a7.75,7.75,0,0,0,2.26,5.48l5.49,5.48,5.47-5.48a7.73,7.73,0,0,0,2.28-5.48h7.56V7.75a7.7,7.7,0,0,0,5.48-2.27L604.37,0ZM597.7,4.29a6,6,0,0,1-4.29,1.78h-1.68v7.57h-7.57v1.68a6.05,6.05,0,0,1-1.77,4.29L578.1,23.9l-4.3-4.29A6.05,6.05,0,0,1,572,15.32V13.64h-7.57V6.07h-1.68a6,6,0,0,1-4.29-1.78L554.19,0l4.3-4.29a6,6,0,0,1,4.29-1.78h1.68v-7.56H572v-1.68a6.06,6.06,0,0,1,1.77-4.3l4.3-4.29,4.28,4.29a6,6,0,0,1,1.78,4.3v1.68h7.57v7.56h1.68a6,6,0,0,1,4.29,1.78L602,0Z"/><path class="cls-4" d="M546.34,47.07a7.75,7.75,0,0,0-5.49-2.27V37.24h-7.56A7.7,7.7,0,0,0,531,31.76l-5.48-5.48-5.48,5.48a7.74,7.74,0,0,0-2.27,5.48h-7.57V44.8a7.76,7.76,0,0,0-5.48,2.27l-5.48,5.48L504.74,58a7.76,7.76,0,0,0,5.48,2.27v7.56h7.57a7.72,7.72,0,0,0,2.27,5.48l5.48,5.48L531,73.35a7.68,7.68,0,0,0,2.27-5.48h7.56V60.31A7.75,7.75,0,0,0,546.34,58l5.48-5.49Zm-1.19,9.78a6.07,6.07,0,0,1-4.3,1.78h-1.68v7.56h-7.56v1.68a6,6,0,0,1-1.78,4.29l-4.29,4.3-4.29-4.3a6,6,0,0,1-1.78-4.29V66.19h-7.56V58.63h-1.69a6,6,0,0,1-4.28-1.78l-4.3-4.3,4.29-4.28a6,6,0,0,1,4.29-1.78h1.69V38.92h7.56V37.24a6,6,0,0,1,1.78-4.3l4.29-4.28L529.83,33a6,6,0,0,1,1.78,4.29v1.68h7.56v7.57h1.68a6,6,0,0,1,4.3,1.78l4.29,4.28Z"/><path class="cls-4" d="M598.89,47.07a7.74,7.74,0,0,0-5.48-2.27V37.24h-7.56a7.71,7.71,0,0,0-2.28-5.48l-5.47-5.48-5.49,5.48a7.73,7.73,0,0,0-2.26,5.48h-7.57V44.8a7.74,7.74,0,0,0-5.48,2.27l-5.48,5.48L557.3,58a7.74,7.74,0,0,0,5.48,2.27v7.56h7.57a7.71,7.71,0,0,0,2.26,5.48l5.49,5.48,5.47-5.48a7.69,7.69,0,0,0,2.28-5.48h7.56V60.31A7.74,7.74,0,0,0,598.89,58l5.48-5.49Zm-1.19,9.78a6,6,0,0,1-4.29,1.78h-1.68v7.56h-7.57v1.68a6.05,6.05,0,0,1-1.77,4.29l-4.29,4.3-4.3-4.3A6.05,6.05,0,0,1,572,67.87V66.19h-7.57V58.63h-1.68a6,6,0,0,1-4.29-1.78l-4.3-4.3,4.3-4.28a6,6,0,0,1,4.29-1.78h1.68V38.92H572V37.24a6.08,6.08,0,0,1,1.77-4.3l4.3-4.28L582.38,33a6,6,0,0,1,1.78,4.29v1.68h7.57v7.57h1.68a6,6,0,0,1,4.29,1.78L602,52.55Z"/><path class="cls-4" d="M651.45-5.48A7.76,7.76,0,0,0,646-7.75v-7.56H638.4a7.72,7.72,0,0,0-2.27-5.49l-5.48-5.47-5.48,5.47a7.72,7.72,0,0,0-2.27,5.49h-7.57v7.56a7.76,7.76,0,0,0-5.48,2.27L604.37,0l5.48,5.48a7.71,7.71,0,0,0,5.48,2.27v7.57h7.57a7.71,7.71,0,0,0,2.27,5.48l5.48,5.48,5.48-5.48a7.71,7.71,0,0,0,2.27-5.48H646V7.75a7.72,7.72,0,0,0,5.49-2.27L656.92,0Zm-1.19,9.77A6,6,0,0,1,646,6.07h-1.68v7.57h-7.56v1.68a6,6,0,0,1-1.78,4.29l-4.29,4.29-4.29-4.29a6,6,0,0,1-1.78-4.29V13.64H617V6.07h-1.68A6,6,0,0,1,611,4.29L606.75,0,611-4.29a6,6,0,0,1,4.29-1.78H617v-7.56h7.57v-1.68a6,6,0,0,1,1.78-4.3l4.29-4.29,4.29,4.29a6,6,0,0,1,1.78,4.3v1.68h7.56v7.56H646a6,6,0,0,1,4.3,1.78L654.55,0Z"/><path class="cls-4" d="M651.45,47.07A7.76,7.76,0,0,0,646,44.8V37.24H638.4a7.7,7.7,0,0,0-2.27-5.48l-5.48-5.48-5.48,5.48a7.7,7.7,0,0,0-2.27,5.48h-7.57V44.8a7.76,7.76,0,0,0-5.48,2.27l-5.48,5.48L609.85,58a7.76,7.76,0,0,0,5.48,2.27v7.56h7.57a7.68,7.68,0,0,0,2.27,5.48l5.48,5.48,5.48-5.48a7.68,7.68,0,0,0,2.27-5.48H646V60.31A7.76,7.76,0,0,0,651.45,58l5.47-5.49Zm-1.19,9.78a6.07,6.07,0,0,1-4.3,1.78h-1.68v7.56h-7.56v1.68a6,6,0,0,1-1.78,4.29l-4.29,4.3-4.29-4.3a6,6,0,0,1-1.78-4.29V66.19H617V58.63h-1.68A6.06,6.06,0,0,1,611,56.85l-4.29-4.3L611,48.27a6,6,0,0,1,4.29-1.78H617V38.92h7.57V37.24a6,6,0,0,1,1.78-4.3l4.29-4.28L634.94,33a6,6,0,0,1,1.78,4.29v1.68h7.56v7.57H646a6,6,0,0,1,4.3,1.78l4.29,4.28Z"/></g></g><g class="cls-3"><path class="cls-4" d="M236.49,20.28h0a6,6,0,1,0,6,6,6,6,0,0,0-6-6"/><rect class="cls-4" x="283.05" y="20.28" width="11.99" height="11.99"/><path class="cls-4" d="M131.38,20.28h0a6,6,0,1,0,6,6,6,6,0,0,0-6-6"/><rect class="cls-4" x="177.94" y="20.28" width="11.99" height="11.99"/><path class="cls-4" d="M26.28,20.28h0a6,6,0,1,0,6,6,6,6,0,0,0-6-6"/><rect class="cls-4" x="72.84" y="20.28" width="11.99" height="11.99"/><path class="cls-4" d="M341.6,20.28h0a6,6,0,1,0,6,6,6,6,0,0,0-6-6"/><rect class="cls-4" x="388.16" y="20.28" width="11.99" height="11.99"/><path class="cls-4" d="M446.71,20.28h0a6,6,0,1,0,6,6,6,6,0,0,0-6-6"/><rect class="cls-4" x="493.27" y="20.28" width="11.99" height="11.99"/><path class="cls-4" d="M551.82,20.28h0a6,6,0,1,0,6,6,6,6,0,0,0-6-6"/><rect class="cls-4" x="598.38" y="20.28" width="11.99" height="11.99"/></g></g></g><polygon class="cls-4" points="-26.28 -26.27 -26.28 0 -26.28 0 -26.28 105.11 0 78.83 0 0 630.65 0 630.65 78.83 656.92 52.55 656.92 -26.27 -26.28 -26.27"/></svg>