<?xml version="1.0" encoding="utf-8"?>
<!-- Generator: Adobe Illustrator 24.0.2, SVG Export Plug-In . SVG Version: 6.00 Build 0)  -->
<svg version="1.1" id="Layer_1" xmlns="http://www.w3.org/2000/svg" xmlns:xlink="http://www.w3.org/1999/xlink" x="0px" y="0px"
	 viewBox="0 0 630.65 78.83" style="enable-background:new 0 0 630.65 78.83;" xml:space="preserve">
<style type="text/css">
	.st0{fill:none;}
	.st1{fill:#D1D1CB;}
</style>
<g>
	<path class="st0" d="M510.22,6.07h1.68v7.56h7.57v1.68c0,1.62,0.63,3.14,1.78,4.29l4.29,4.3l4.29-4.3
		c1.14-1.14,1.78-2.67,1.78-4.29v-1.68h7.56V6.07h1.68c1.62,0,3.15-0.63,4.29-1.78l4.3-4.29h-47.8l4.3,4.29
		C507.08,5.44,508.6,6.07,510.22,6.07z"/>
	<path class="st0" d="M624.58,37.24v1.68h-7.57v7.56h-1.68c-1.62,0-3.14,0.63-4.29,1.78l-4.29,4.29l4.3,4.29
		c1.14,1.15,2.67,1.78,4.29,1.78h1.68v7.56h7.57v1.68c0,1.62,0.63,3.14,1.78,4.29l4.29,4.3v-47.8l-4.29,4.29
		C625.21,34.09,624.58,35.62,624.58,37.24z"/>
	<path class="st0" d="M562.78,6.07h1.68v7.56h7.57v1.68c0,1.62,0.63,3.14,1.78,4.29l4.29,4.3l4.29-4.3
		c1.14-1.14,1.78-2.67,1.78-4.29v-1.68h7.56V6.07h1.68c1.62,0,3.15-0.63,4.29-1.78L601.99,0h-47.8l4.3,4.29
		C559.63,5.44,561.16,6.07,562.78,6.07z"/>
	<path class="st0" d="M405.12,6.07h1.68v7.56h7.57v1.68c0,1.62,0.63,3.14,1.77,4.29l4.29,4.3l4.29-4.3
		c1.14-1.14,1.77-2.67,1.77-4.29v-1.68h7.56V6.07h1.68c1.62,0,3.15-0.63,4.29-1.78L444.33,0h-47.8l4.3,4.29
		C401.97,5.44,403.5,6.07,405.12,6.07z"/>
	<path class="st0" d="M540.85,7.75v7.56h-7.56c0,1.99-0.75,3.97-2.27,5.48l-5.48,5.48l5.48,5.48c1.52,1.52,2.27,3.5,2.27,5.48h7.56
		v7.56c1.98,0,3.97,0.76,5.48,2.27l5.48,5.48l-5.48,5.48c-1.51,1.51-3.5,2.27-5.48,2.27v7.56h-7.56c0,1.99-0.75,3.97-2.27,5.48
		l-5.48,5.48h52.55l-5.48-5.48c-1.51-1.51-2.27-3.49-2.27-5.48h-7.57v-7.56c-1.98,0-3.97-0.76-5.48-2.27l-5.48-5.48l5.48-5.48
		c1.51-1.51,3.5-2.27,5.48-2.27v-7.56h7.57c0-1.98,0.75-3.97,2.27-5.48l5.48-5.48l-5.48-5.48c-1.51-1.51-2.27-3.49-2.27-5.48h-7.57
		V7.75c-1.98,0-3.97-0.76-5.48-2.27L551.82,0l0,0l-5.48,5.48C544.83,6.99,542.84,7.75,540.85,7.75z M551.82,20.28
		c3.31,0,5.99,2.68,5.99,5.99s-2.68,5.99-5.99,5.99s-6-2.68-6-5.99C545.82,22.97,548.51,20.28,551.82,20.28z"/>
	<path class="st0" d="M488.3,7.75v7.56h-7.56c0,1.99-0.75,3.97-2.27,5.48l-5.48,5.48l5.48,5.48c1.52,1.52,2.27,3.5,2.27,5.48h7.56
		v7.56c1.98,0,3.97,0.76,5.48,2.27l5.48,5.48l-5.48,5.48c-1.51,1.51-3.5,2.27-5.48,2.27v7.56h-7.56c0,1.99-0.75,3.97-2.27,5.48
		l-5.48,5.48h52.55l-5.48-5.48c-1.51-1.51-2.27-3.49-2.27-5.48h-7.57v-7.56c-1.98,0-3.97-0.76-5.48-2.27l-5.48-5.48l5.48-5.48
		c1.51-1.51,3.5-2.27,5.48-2.27v-7.56h7.57c0-1.98,0.75-3.97,2.27-5.48l5.48-5.48l-5.48-5.48c-1.51-1.51-2.27-3.49-2.27-5.48h-7.57
		V7.75c-1.98,0-3.97-0.76-5.48-2.27L499.26,0l0,0l-5.48,5.48C492.27,6.99,490.28,7.75,488.3,7.75z M505.26,20.28v11.99h-11.99V20.28
		H505.26z"/>
	<path class="st0" d="M435.75,7.75v7.56h-7.56c0,1.99-0.75,3.97-2.27,5.48l-5.48,5.48l5.48,5.48c1.52,1.52,2.27,3.5,2.27,5.48h7.56
		v7.56c1.98,0,3.97,0.76,5.48,2.27l5.48,5.48l-5.48,5.48c-1.51,1.51-3.5,2.27-5.48,2.27v7.56h-7.56c0,1.99-0.75,3.97-2.27,5.48
		l-5.48,5.48h52.55l-5.48-5.48c-1.51-1.51-2.27-3.49-2.27-5.48h-7.57v-7.56c-1.98,0-3.97-0.76-5.48-2.27l-5.48-5.48l5.48-5.48
		c1.51-1.51,3.5-2.27,5.48-2.27v-7.56h7.57c0-1.98,0.75-3.97,2.27-5.48l5.48-5.48l-5.48-5.48c-1.51-1.51-2.27-3.49-2.27-5.48h-7.57
		V7.75c-1.98,0-3.97-0.76-5.48-2.27L446.71,0l0,0l-5.48,5.48C439.72,6.99,437.73,7.75,435.75,7.75z M446.71,20.28
		c3.31,0,5.99,2.68,5.99,5.99s-2.68,5.99-5.99,5.99s-5.99-2.68-5.99-5.99C440.71,22.97,443.4,20.28,446.71,20.28z"/>
	<path class="st0" d="M457.67,6.07h1.68v7.56h7.57v1.68c0,1.62,0.63,3.14,1.77,4.29l4.29,4.3l4.29-4.3
		c1.14-1.14,1.77-2.67,1.77-4.29v-1.68h7.56V6.07h1.68c1.62,0,3.15-0.63,4.29-1.78L496.88,0h-47.8l4.3,4.29
		C454.53,5.44,456.05,6.07,457.67,6.07z"/>
	<path class="st0" d="M593.41,7.75v7.56h-7.56c0,1.99-0.75,3.97-2.27,5.48l-5.48,5.48l5.48,5.48c1.52,1.52,2.27,3.5,2.27,5.48h7.56
		v7.56c1.98,0,3.97,0.76,5.48,2.27l5.48,5.48l-5.48,5.48c-1.51,1.51-3.5,2.27-5.48,2.27v7.56h-7.56c0,1.99-0.75,3.97-2.27,5.48
		l-5.48,5.48h52.55l-5.48-5.48c-1.51-1.51-2.27-3.49-2.27-5.48h-7.57v-7.56c-1.98,0-3.97-0.76-5.48-2.27l-5.48-5.48l5.48-5.48
		c1.51-1.51,3.5-2.27,5.48-2.27v-7.56h7.57c0-1.98,0.75-3.97,2.27-5.48l5.48-5.48l-5.48-5.48c-1.51-1.51-2.27-3.49-2.27-5.48h-7.57
		V7.75c-1.98,0-3.97-0.76-5.48-2.27L604.37,0l0,0l-5.48,5.48C597.38,6.99,595.39,7.75,593.41,7.75z M610.37,20.28v11.99h-11.99
		V20.28H610.37z"/>
	<path class="st0" d="M321.39,66.19h7.56v-7.56h1.68c1.62,0,3.15-0.63,4.29-1.78l4.29-4.29l-4.29-4.29
		c-1.14-1.15-2.67-1.78-4.29-1.78h-1.68v-7.56h-7.56v-1.68c0-1.62-0.63-3.15-1.78-4.29l-4.29-4.29l-4.29,4.29
		c-1.14,1.15-1.77,2.67-1.77,4.3v1.68h-7.57v7.56h-1.68c-1.62,0-3.14,0.63-4.29,1.78l-4.29,4.29l4.3,4.29
		c1.14,1.15,2.67,1.78,4.29,1.78h1.68v7.56h7.57v1.68c0,1.62,0.63,3.14,1.77,4.29l4.29,4.3l4.29-4.3c1.14-1.14,1.77-2.66,1.77-4.29
		L321.39,66.19L321.39,66.19z"/>
	<path class="st0" d="M584.16,66.19h7.56v-7.56h1.68c1.62,0,3.15-0.63,4.29-1.78l4.29-4.29l-4.29-4.29
		c-1.14-1.15-2.67-1.78-4.29-1.78h-1.68v-7.56h-7.56v-1.68c0-1.62-0.63-3.15-1.78-4.29l-4.29-4.29l-4.29,4.29
		c-1.14,1.15-1.78,2.67-1.78,4.3v1.68h-7.57v7.56h-1.68c-1.62,0-3.14,0.63-4.29,1.78l-4.29,4.29l4.3,4.29
		c1.14,1.15,2.67,1.78,4.29,1.78h1.68v7.56h7.57v1.68c0,1.62,0.63,3.14,1.78,4.29l4.29,4.3l4.29-4.3c1.14-1.14,1.78-2.66,1.78-4.29
		v-1.69H584.16z"/>
	<path class="st0" d="M268.84,66.19h7.56v-7.56h1.68c1.62,0,3.15-0.63,4.29-1.78l4.29-4.29l-4.29-4.29
		c-1.14-1.15-2.67-1.78-4.29-1.78h-1.68v-7.56h-7.56v-1.68c0-1.62-0.63-3.15-1.78-4.29l-4.29-4.29l-4.29,4.29
		c-1.14,1.15-1.77,2.67-1.77,4.3v1.68h-7.57v7.56h-1.68c-1.62,0-3.14,0.63-4.29,1.78l-4.29,4.29l4.3,4.29
		c1.14,1.15,2.67,1.78,4.29,1.78h1.68v7.56h7.57v1.68c0,1.62,0.63,3.14,1.77,4.29l4.29,4.3l4.29-4.3c1.14-1.14,1.77-2.66,1.77-4.29
		V66.19z"/>
	<path class="st0" d="M373.95,66.19h7.56v-7.56h1.68c1.62,0,3.15-0.63,4.29-1.78l4.29-4.29l-4.29-4.29
		c-1.14-1.15-2.67-1.78-4.29-1.78h-1.68v-7.56h-7.56v-1.68c0-1.62-0.63-3.15-1.78-4.29l-4.29-4.29l-4.29,4.29
		c-1.14,1.15-1.78,2.67-1.78,4.3v1.68h-7.57v7.56h-1.68c-1.62,0-3.14,0.63-4.29,1.78l-4.29,4.29l4.3,4.29
		c1.14,1.15,2.67,1.78,4.29,1.78h1.68v7.56h7.57v1.68c0,1.62,0.63,3.14,1.78,4.29l4.29,4.3l4.29-4.3c1.14-1.14,1.78-2.66,1.78-4.29
		L373.95,66.19L373.95,66.19z"/>
	<path class="st0" d="M426.5,66.19h7.56v-7.56h1.68c1.62,0,3.15-0.63,4.29-1.78l4.29-4.29l-4.29-4.29
		c-1.14-1.15-2.67-1.78-4.29-1.78h-1.68v-7.56h-7.56v-1.68c0-1.62-0.63-3.15-1.78-4.29l-4.29-4.29l-4.29,4.29
		c-1.14,1.15-1.77,2.67-1.77,4.3v1.68h-7.57v7.56h-1.68c-1.62,0-3.14,0.63-4.29,1.78l-4.29,4.29l4.3,4.29
		c1.14,1.15,2.67,1.78,4.29,1.78h1.68v7.56h7.57v1.68c0,1.62,0.63,3.14,1.77,4.29l4.29,4.3l4.29-4.3c1.14-1.14,1.77-2.66,1.77-4.29
		L426.5,66.19L426.5,66.19z"/>
	<path class="st0" d="M531.61,66.19h7.56v-7.56h1.68c1.62,0,3.15-0.63,4.29-1.78l4.29-4.29l-4.29-4.29
		c-1.14-1.15-2.67-1.78-4.29-1.78h-1.68v-7.56h-7.56v-1.68c0-1.62-0.63-3.15-1.78-4.29l-4.29-4.29l-4.29,4.29
		c-1.14,1.15-1.78,2.67-1.78,4.3v1.68h-7.57v7.56h-1.68c-1.62,0-3.14,0.63-4.29,1.78l-4.29,4.29l4.3,4.29
		c1.14,1.15,2.67,1.78,4.29,1.78h1.68v7.56h7.57v1.68c0,1.62,0.63,3.14,1.78,4.29l4.29,4.3l4.29-4.3c1.14-1.14,1.78-2.66,1.78-4.29
		L531.61,66.19L531.61,66.19z"/>
	<path class="st0" d="M479.05,66.19h7.56v-7.56h1.68c1.62,0,3.15-0.63,4.29-1.78l4.29-4.29l-4.29-4.29
		c-1.14-1.15-2.67-1.78-4.29-1.78h-1.68v-7.56h-7.56v-1.68c0-1.62-0.63-3.15-1.78-4.29l-4.29-4.29l-4.29,4.29
		c-1.14,1.15-1.77,2.67-1.77,4.3v1.68h-7.57v7.56h-1.68c-1.62,0-3.14,0.63-4.29,1.78l-4.29,4.29l4.3,4.29
		c1.14,1.15,2.67,1.78,4.29,1.78h1.68v7.56h7.57v1.68c0,1.62,0.63,3.14,1.77,4.29l4.29,4.3l4.29-4.3c1.14-1.14,1.77-2.66,1.77-4.29
		L479.05,66.19L479.05,66.19z"/>
	<path class="st0" d="M172.98,7.75v7.56h-7.56c0,1.99-0.75,3.97-2.27,5.48l-5.48,5.48l5.48,5.48c1.52,1.52,2.27,3.5,2.27,5.48h7.56
		v7.56c1.98,0,3.97,0.76,5.48,2.27l5.48,5.48l-5.48,5.48c-1.51,1.51-3.5,2.27-5.48,2.27v7.56h-7.56c0,1.99-0.75,3.97-2.27,5.48
		l-5.48,5.48h52.55l-5.48-5.48c-1.51-1.51-2.27-3.49-2.27-5.48h-7.57v-7.56c-1.98,0-3.97-0.76-5.48-2.27l-5.48-5.48l5.48-5.48
		c1.51-1.51,3.5-2.27,5.48-2.27v-7.56h7.57c0-1.98,0.75-3.97,2.27-5.48l5.48-5.48l-5.48-5.48c-1.51-1.51-2.27-3.49-2.27-5.48h-7.57
		V7.75c-1.98,0-3.97-0.76-5.48-2.27L183.94,0l0,0l-5.48,5.48C176.95,6.99,174.96,7.75,172.98,7.75z M189.93,20.28v11.99h-11.99
		V20.28H189.93z"/>
	<path class="st0" d="M120.42,7.75v7.56h-7.56c0,1.99-0.75,3.97-2.27,5.48l-5.48,5.48l5.48,5.48c1.52,1.52,2.27,3.5,2.27,5.48h7.56
		v7.56c1.98,0,3.97,0.76,5.48,2.27l5.48,5.48l-5.48,5.48c-1.51,1.51-3.5,2.27-5.48,2.27v7.56h-7.56c0,1.99-0.75,3.97-2.27,5.48
		l-5.48,5.48h52.55l-5.48-5.48c-1.51-1.51-2.27-3.49-2.27-5.48h-7.57v-7.56c-1.98,0-3.97-0.76-5.48-2.27l-5.48-5.48l5.48-5.48
		c1.51-1.51,3.5-2.27,5.48-2.27v-7.56h7.57c0-1.98,0.75-3.97,2.27-5.48l5.48-5.48l-5.48-5.48c-1.51-1.51-2.27-3.49-2.27-5.48h-7.57
		V7.75c-1.98,0-3.97-0.76-5.48-2.27L131.38,0l0,0l-5.48,5.48C124.39,6.99,122.41,7.75,120.42,7.75z M131.38,20.28
		c3.31,0,5.99,2.68,5.99,5.99s-2.68,5.99-5.99,5.99s-5.99-2.68-5.99-5.99C125.39,22.97,128.07,20.28,131.38,20.28z"/>
	<path class="st0" d="M142.35,6.07h1.68v7.56h7.57v1.68c0,1.62,0.63,3.14,1.77,4.29l4.29,4.3l4.29-4.3
		c1.14-1.14,1.77-2.67,1.77-4.29v-1.68h7.56V6.07h1.68c1.62,0,3.15-0.63,4.29-1.78L181.56,0h-47.8l4.3,4.29
		C139.2,5.44,140.73,6.07,142.35,6.07z"/>
	<path class="st0" d="M89.79,6.07h1.68v7.56h7.57v1.68c0,1.62,0.63,3.14,1.78,4.29l4.29,4.3l4.29-4.3c1.14-1.14,1.77-2.67,1.77-4.29
		v-1.68h7.56V6.07h1.68c1.62,0,3.15-0.63,4.29-1.78L129.01,0h-47.8l4.3,4.29C86.65,5.44,88.17,6.07,89.79,6.07z"/>
	<path class="st0" d="M37.24,6.07h1.68v7.56h7.57v1.68c0,1.62,0.63,3.14,1.77,4.29l4.29,4.3l4.29-4.3c1.14-1.14,1.78-2.67,1.78-4.29
		v-1.68h7.56V6.07h1.68c1.62,0,3.15-0.63,4.29-1.78L76.45,0h-47.8l4.3,4.29C34.09,5.44,35.62,6.07,37.24,6.07z"/>
	<path class="st0" d="M383.19,7.75v7.56h-7.56c0,1.99-0.75,3.97-2.27,5.48l-5.48,5.48l5.48,5.48c1.52,1.52,2.27,3.5,2.27,5.48h7.56
		v7.56c1.98,0,3.97,0.76,5.48,2.27l5.48,5.48l-5.48,5.48c-1.51,1.51-3.5,2.27-5.48,2.27v7.56h-7.56c0,1.99-0.75,3.97-2.27,5.48
		l-5.48,5.48h52.55l-5.48-5.48c-1.51-1.51-2.27-3.49-2.27-5.48h-7.57v-7.56c-1.98,0-3.97-0.76-5.48-2.27l-5.48-5.48l5.48-5.48
		c1.51-1.51,3.5-2.27,5.48-2.27v-7.56h7.57c0-1.98,0.75-3.97,2.27-5.48l5.48-5.48l-5.48-5.48c-1.51-1.51-2.27-3.49-2.27-5.48h-7.57
		V7.75c-1.98,0-3.97-0.76-5.48-2.27L394.15,0l0,0l-5.48,5.48C387.16,6.99,385.18,7.75,383.19,7.75z M400.15,20.28v11.99h-11.99
		V20.28H400.15z"/>
	<path class="st0" d="M20.8,5.48c-1.51,1.51-3.5,2.27-5.48,2.27v7.56H7.75c0,1.99-0.75,3.97-2.27,5.48L0,26.28l5.48,5.48
		c1.52,1.52,2.27,3.5,2.27,5.48h7.56v7.56c1.98,0,3.97,0.76,5.48,2.27l5.48,5.48l-5.48,5.48c-1.51,1.51-3.5,2.27-5.48,2.27v7.56
		H7.75c0,1.99-0.75,3.97-2.27,5.48L0,78.83h52.55l-5.48-5.48c-1.51-1.51-2.27-3.49-2.27-5.48h-7.57v-7.56
		c-1.98,0-3.97-0.76-5.48-2.27l-5.48-5.48l5.48-5.48c1.51-1.51,3.5-2.27,5.48-2.27v-7.56h7.57c0-1.98,0.75-3.97,2.27-5.48l5.48-5.48
		l-5.48-5.48c-1.51-1.51-2.27-3.49-2.27-5.48h-7.57V7.75c-1.98,0-3.97-0.76-5.48-2.27L26.28,0l0,0L20.8,5.48z M26.28,20.28
		c3.31,0,5.99,2.68,5.99,5.99s-2.68,5.99-5.99,5.99s-5.99-2.68-5.99-5.99C20.28,22.97,22.96,20.28,26.28,20.28z"/>
	<path class="st0" d="M216.28,66.19h7.56v-7.56h1.68c1.62,0,3.15-0.63,4.29-1.78l4.29-4.29l-4.29-4.29
		c-1.14-1.15-2.67-1.78-4.29-1.78h-1.68v-7.56h-7.56v-1.68c0-1.62-0.63-3.15-1.78-4.29l-4.29-4.29l-4.29,4.29
		c-1.14,1.15-1.78,2.67-1.78,4.3v1.68h-7.57v7.56h-1.68c-1.62,0-3.14,0.63-4.29,1.78l-4.29,4.29l4.3,4.29
		c1.14,1.15,2.67,1.78,4.29,1.78h1.68v7.56h7.57v1.68c0,1.62,0.63,3.14,1.78,4.29l4.29,4.3l4.29-4.3c1.14-1.14,1.78-2.66,1.78-4.29
		v-1.69H216.28z"/>
	<path class="st0" d="M67.87,7.75v7.56H60.3c0,1.99-0.75,3.97-2.27,5.48l-5.48,5.48l5.48,5.48c1.52,1.52,2.27,3.5,2.27,5.48h7.56
		v7.56c1.98,0,3.97,0.76,5.48,2.27l5.48,5.48l-5.48,5.48c-1.51,1.51-3.5,2.27-5.48,2.27v7.56H60.3c0,1.99-0.75,3.97-2.27,5.48
		l-5.48,5.48h52.55l-5.48-5.48c-1.51-1.51-2.27-3.49-2.27-5.48h-7.57v-7.56c-1.98,0-3.97-0.76-5.48-2.27l-5.48-5.48l5.48-5.48
		c1.51-1.51,3.5-2.27,5.48-2.27v-7.56h7.57c0-1.98,0.75-3.97,2.27-5.48l5.48-5.48l-5.48-5.48c-1.51-1.51-2.27-3.49-2.27-5.48h-7.57
		V7.75c-1.98,0-3.97-0.76-5.48-2.27L78.83,0l0,0l-5.48,5.48C71.84,6.99,69.85,7.75,67.87,7.75z M84.82,20.28v11.99H72.84V20.28
		H84.82z"/>
	<path class="st0" d="M330.64,7.75v7.56h-7.56c0,1.99-0.75,3.97-2.27,5.48l-5.48,5.48l5.48,5.48c1.52,1.52,2.27,3.5,2.27,5.48h7.56
		v7.56c1.98,0,3.97,0.76,5.48,2.27l5.48,5.48l-5.48,5.48c-1.51,1.51-3.5,2.27-5.48,2.27v7.56h-7.56c0,1.99-0.75,3.97-2.27,5.48
		l-5.48,5.48h52.55l-5.48-5.48c-1.51-1.51-2.27-3.49-2.27-5.48h-7.57v-7.56c-1.98,0-3.97-0.76-5.48-2.27l-5.48-5.48l5.48-5.48
		c1.51-1.51,3.5-2.27,5.48-2.27v-7.56h7.57c0-1.98,0.75-3.97,2.27-5.48l5.48-5.48l-5.48-5.48c-1.51-1.51-2.27-3.49-2.27-5.48h-7.57
		V7.75c-1.98,0-3.97-0.76-5.48-2.27L341.6,0l0,0l-5.48,5.48C334.61,6.99,332.62,7.75,330.64,7.75z M341.6,20.28
		c3.31,0,5.99,2.68,5.99,5.99s-2.68,5.99-5.99,5.99s-6-2.68-6-5.99C335.61,22.97,338.29,20.28,341.6,20.28z"/>
	<path class="st0" d="M300.01,6.07h1.68v7.56h7.57v1.68c0,1.62,0.63,3.14,1.77,4.29l4.29,4.3l4.29-4.3
		c1.14-1.14,1.77-2.67,1.77-4.29v-1.68h7.56V6.07h1.68c1.62,0,3.15-0.63,4.29-1.78L339.22,0h-47.8l4.3,4.29
		C296.86,5.44,298.39,6.07,300.01,6.07z"/>
	<path class="st0" d="M352.56,6.07h1.68v7.56h7.57v1.68c0,1.62,0.63,3.14,1.78,4.29l4.29,4.3l4.29-4.3
		c1.14-1.14,1.78-2.67,1.78-4.29v-1.68h7.56V6.07h1.68c1.62,0,3.15-0.63,4.29-1.78l4.3-4.29h-47.8l4.3,4.29
		C349.42,5.44,350.94,6.07,352.56,6.07z"/>
	<path class="st0" d="M225.53,7.75v7.56h-7.56c0,1.99-0.75,3.97-2.27,5.48l-5.48,5.48l5.48,5.48c1.52,1.52,2.27,3.5,2.27,5.48h7.56
		v7.56c1.98,0,3.97,0.76,5.48,2.27l5.48,5.48l-5.48,5.48c-1.51,1.51-3.5,2.27-5.48,2.27v7.56h-7.56c0,1.99-0.75,3.97-2.27,5.48
		l-5.48,5.48h52.55l-5.48-5.48c-1.51-1.51-2.27-3.49-2.27-5.48h-7.57v-7.56c-1.98,0-3.97-0.76-5.48-2.27l-5.48-5.48l5.48-5.48
		c1.51-1.51,3.5-2.27,5.48-2.27v-7.56h7.57c0-1.98,0.75-3.97,2.27-5.48l5.48-5.48l-5.48-5.48c-1.51-1.51-2.27-3.49-2.27-5.48h-7.57
		V7.75c-1.98,0-3.97-0.76-5.48-2.27L236.49,0l0,0l-5.48,5.48C229.5,6.99,227.51,7.75,225.53,7.75z M236.49,20.28
		c3.31,0,5.99,2.68,5.99,5.99s-2.68,5.99-5.99,5.99s-5.99-2.68-5.99-5.99C230.5,22.97,233.18,20.28,236.49,20.28z"/>
	<path class="st0" d="M194.9,6.07h1.68v7.56h7.57v1.68c0,1.62,0.63,3.14,1.78,4.29l4.29,4.3l4.29-4.3c1.14-1.14,1.78-2.67,1.78-4.29
		v-1.68h7.56V6.07h1.68c1.62,0,3.15-0.63,4.29-1.78L234.11,0h-47.8l4.3,4.29C191.76,5.44,193.28,6.07,194.9,6.07z"/>
	<path class="st0" d="M278.08,7.75v7.56h-7.56c0,1.99-0.75,3.97-2.27,5.48l-5.48,5.48l5.48,5.48c1.52,1.52,2.27,3.5,2.27,5.48h7.56
		v7.56c1.98,0,3.97,0.76,5.48,2.27l5.48,5.48l-5.48,5.48c-1.51,1.51-3.5,2.27-5.48,2.27v7.56h-7.56c0,1.99-0.75,3.97-2.27,5.48
		l-5.48,5.48h52.55l-5.48-5.48c-1.51-1.51-2.27-3.49-2.27-5.48H300v-7.56c-1.98,0-3.97-0.76-5.48-2.27l-5.48-5.48l5.48-5.48
		c1.51-1.51,3.5-2.27,5.48-2.27v-7.56h7.57c0-1.98,0.75-3.97,2.27-5.48l5.48-5.48l-5.48-5.48c-1.51-1.51-2.27-3.49-2.27-5.48H300
		V7.75c-1.98,0-3.97-0.76-5.48-2.27L289.05,0l0,0l-5.48,5.48C282.05,6.99,280.07,7.75,278.08,7.75z M295.04,20.28v11.99h-11.99
		V20.28H295.04z"/>
	<path class="st0" d="M247.45,6.07h1.68v7.56h7.57v1.68c0,1.62,0.63,3.14,1.77,4.29l4.29,4.3l4.29-4.3
		c1.14-1.14,1.77-2.67,1.77-4.29v-1.68h7.56V6.07h1.68c1.62,0,3.15-0.63,4.29-1.78L286.67,0h-47.8l4.3,4.29
		C244.31,5.44,245.83,6.07,247.45,6.07z"/>
	<path class="st0" d="M615.33,6.07h1.68v7.56h7.57v1.68c0,1.62,0.63,3.14,1.78,4.29l4.29,4.3V0h-23.9l4.3,4.29
		C612.19,5.44,613.71,6.07,615.33,6.07z"/>
	<path class="st0" d="M163.73,66.19h7.56v-7.56h1.68c1.62,0,3.15-0.63,4.29-1.78l4.29-4.29l-4.29-4.29
		c-1.14-1.15-2.67-1.78-4.29-1.78h-1.68v-7.56h-7.56v-1.68c0-1.62-0.63-3.15-1.78-4.29l-4.29-4.29l-4.29,4.29
		c-1.14,1.15-1.77,2.67-1.77,4.3v1.68h-7.57v7.56h-1.68c-1.62,0-3.14,0.63-4.29,1.78l-4.29,4.29l4.3,4.29
		c1.14,1.15,2.67,1.78,4.29,1.78h1.68v7.56h7.57v1.68c0,1.62,0.63,3.14,1.77,4.29l4.29,4.3l4.29-4.3c1.14-1.14,1.77-2.66,1.77-4.29
		L163.73,66.19L163.73,66.19z"/>
	<path class="st0" d="M6.07,15.32v-1.68h7.56V6.07h1.68c1.62,0,3.15-0.63,4.29-1.78L23.9,0H0v23.9l4.29-4.3
		C5.44,18.46,6.07,16.94,6.07,15.32z"/>
	<path class="st0" d="M6.07,67.87v-1.68h7.56v-7.56h1.68c1.62,0,3.15-0.63,4.29-1.78l4.29-4.29l-4.29-4.29
		c-1.14-1.15-2.67-1.78-4.29-1.78h-1.68v-7.56H6.07v-1.68c0-1.62-0.63-3.15-1.78-4.29L0,28.66v47.8l4.29-4.3
		C5.44,71.01,6.07,69.49,6.07,67.87z"/>
	<path class="st0" d="M58.62,66.19h7.56v-7.56h1.68c1.62,0,3.15-0.63,4.29-1.78l4.29-4.29l-4.29-4.29
		c-1.14-1.15-2.67-1.78-4.29-1.78h-1.68v-7.56h-7.56v-1.68c0-1.62-0.63-3.15-1.78-4.29l-4.29-4.29l-4.29,4.29
		c-1.14,1.15-1.77,2.67-1.77,4.3v1.68h-7.57v7.56h-1.68c-1.62,0-3.14,0.63-4.29,1.78l-4.29,4.29l4.3,4.29
		c1.14,1.15,2.67,1.78,4.29,1.78h1.68v7.56h7.57v1.68c0,1.62,0.63,3.14,1.77,4.29l4.29,4.3l4.29-4.3c1.14-1.14,1.78-2.66,1.78-4.29
		L58.62,66.19L58.62,66.19z"/>
	<path class="st0" d="M111.18,66.19h7.56v-7.56h1.68c1.62,0,3.15-0.63,4.29-1.78l4.29-4.29l-4.29-4.29
		c-1.14-1.15-2.67-1.78-4.29-1.78h-1.68v-7.56h-7.56v-1.68c0-1.62-0.63-3.15-1.78-4.29l-4.29-4.29l-4.29,4.29
		c-1.14,1.15-1.78,2.67-1.78,4.3v1.68h-7.57v7.56h-1.68c-1.62,0-3.14,0.63-4.29,1.78l-4.29,4.29l4.3,4.29
		c1.14,1.15,2.67,1.78,4.29,1.78h1.68v7.56h7.57v1.68c0,1.62,0.63,3.14,1.78,4.29l4.29,4.3l4.29-4.3c1.14-1.14,1.77-2.66,1.77-4.29
		V66.19z"/>
	<path class="st1" d="M5.48,20.8c1.52-1.52,2.27-3.5,2.27-5.48h7.56V7.75c1.98,0,3.97-0.76,5.48-2.27L26.28,0H23.9l-4.29,4.29
		c-1.14,1.15-2.67,1.78-4.29,1.78h-1.68v7.56H6.07v1.68c0,1.62-0.63,3.14-1.77,4.29L0,23.9v2.38l0,0L5.48,20.8z"/>
	<path class="st1" d="M37.24,7.75v7.56h7.57c0,1.99,0.75,3.97,2.27,5.48l5.48,5.48l0,0l0,0l5.48-5.48c1.52-1.51,2.27-3.49,2.27-5.48
		h7.56V7.75c1.98,0,3.97-0.76,5.48-2.27L78.83,0h-2.38l-4.29,4.29c-1.14,1.15-2.67,1.78-4.29,1.78h-1.68v7.56h-7.56v1.68
		c0,1.62-0.63,3.14-1.78,4.29l-4.29,4.3l-4.29-4.3c-1.14-1.14-1.77-2.67-1.77-4.29v-1.68h-7.57V6.07h-1.68
		c-1.62,0-3.14-0.63-4.29-1.78L28.65,0h-2.38l5.48,5.48C33.27,6.99,35.25,7.75,37.24,7.75z"/>
	<path class="st1" d="M7.75,67.87h7.56v-7.56c1.98,0,3.97-0.76,5.48-2.27l5.48-5.48l-5.48-5.48c-1.51-1.51-3.5-2.27-5.48-2.27v-7.56
		H7.75c0-1.98-0.75-3.97-2.27-5.48L0,26.28l0,0v2.38l4.29,4.29c1.15,1.14,1.78,2.67,1.78,4.29v1.68h7.56v7.56h1.68
		c1.62,0,3.15,0.63,4.29,1.78l4.29,4.29l-4.29,4.29c-1.14,1.15-2.67,1.78-4.29,1.78h-1.68v7.56H6.07v1.68
		c0,1.62-0.63,3.14-1.77,4.29L0,76.46v2.38l5.48-5.48C7,71.84,7.75,69.86,7.75,67.87z"/>
	<path class="st1" d="M60.3,67.87h7.56v-7.56c1.98,0,3.97-0.76,5.48-2.27l5.48-5.48l-5.48-5.48c-1.51-1.51-3.5-2.27-5.48-2.27v-7.56
		H60.3c0-1.98-0.75-3.97-2.27-5.48l-5.48-5.48l0,0l0,0l-5.48,5.48c-1.51,1.52-2.27,3.5-2.27,5.48h-7.57v7.56
		c-1.98,0-3.97,0.76-5.48,2.27l-5.48,5.48l5.48,5.48c1.51,1.51,3.5,2.27,5.48,2.27v7.56h7.57c0,1.99,0.75,3.97,2.27,5.48l5.48,5.48
		l5.48-5.48C59.55,71.84,60.3,69.86,60.3,67.87z M52.55,76.46l-4.29-4.3c-1.14-1.14-1.77-2.66-1.77-4.29v-1.68h-7.57v-7.56h-1.68
		c-1.62,0-3.14-0.63-4.29-1.78l-4.3-4.29l4.29-4.29c1.15-1.15,2.67-1.78,4.29-1.78h1.68v-7.56h7.57v-1.68c0-1.62,0.63-3.15,1.77-4.3
		l4.29-4.29l4.29,4.29c1.15,1.14,1.78,2.67,1.78,4.29v1.68h7.56v7.56h1.68c1.62,0,3.15,0.63,4.29,1.78l4.29,4.29l-4.29,4.29
		c-1.14,1.15-2.67,1.78-4.29,1.78h-1.68v7.56h-7.56v1.68c0,1.62-0.63,3.14-1.78,4.29L52.55,76.46z"/>
	<path class="st1" d="M89.79,7.75v7.56h7.57c0,1.99,0.75,3.97,2.27,5.48l5.48,5.48l0,0l0,0l5.48-5.48c1.52-1.51,2.27-3.49,2.27-5.48
		h7.56V7.75c1.98,0,3.97-0.76,5.48-2.27L131.38,0H129l-4.29,4.29c-1.14,1.15-2.67,1.78-4.29,1.78h-1.68v7.56h-7.56v1.68
		c0,1.62-0.63,3.14-1.77,4.29l-4.29,4.3l-4.29-4.3c-1.14-1.14-1.78-2.67-1.78-4.29v-1.68h-7.57V6.07H89.8
		c-1.62,0-3.14-0.63-4.29-1.78L81.21,0h-2.38l5.48,5.48C85.83,6.99,87.81,7.75,89.79,7.75z"/>
	<path class="st1" d="M142.35,7.75v7.56h7.57c0,1.99,0.75,3.97,2.27,5.48l5.48,5.48l0,0l0,0l5.48-5.48
		c1.52-1.51,2.27-3.49,2.27-5.48h7.56V7.75c1.98,0,3.97-0.76,5.48-2.27L183.94,0h-2.38l-4.29,4.29c-1.14,1.15-2.67,1.78-4.29,1.78
		h-1.68v7.56h-7.56v1.68c0,1.62-0.63,3.14-1.77,4.29l-4.29,4.3l-4.29-4.3c-1.14-1.14-1.77-2.67-1.77-4.29v-1.68h-7.57V6.07h-1.68
		c-1.62,0-3.14-0.63-4.29-1.78L133.76,0h-2.38l5.48,5.48C138.38,6.99,140.36,7.75,142.35,7.75z"/>
	<path class="st1" d="M112.86,67.87h7.56v-7.56c1.98,0,3.97-0.76,5.48-2.27l5.48-5.48l-5.48-5.48c-1.51-1.51-3.5-2.27-5.48-2.27
		v-7.56h-7.56c0-1.98-0.75-3.97-2.27-5.48l-5.48-5.48l0,0l0,0l-5.48,5.48c-1.51,1.52-2.27,3.5-2.27,5.48h-7.57v7.56
		c-1.98,0-3.97,0.76-5.48,2.27l-5.48,5.48l5.48,5.48c1.51,1.51,3.5,2.27,5.48,2.27v7.56h7.57c0,1.99,0.75,3.97,2.27,5.48l5.48,5.48
		l5.48-5.48C112.1,71.84,112.86,69.86,112.86,67.87z M105.11,76.46l-4.29-4.3c-1.14-1.14-1.78-2.66-1.78-4.29v-1.68h-7.57v-7.56
		h-1.68c-1.62,0-3.14-0.63-4.29-1.78l-4.3-4.29l4.29-4.29c1.15-1.15,2.67-1.78,4.29-1.78h1.68v-7.56h7.57v-1.68
		c0-1.62,0.63-3.15,1.78-4.3l4.29-4.29l4.29,4.29c1.15,1.14,1.78,2.67,1.78,4.29v1.68h7.56v7.56h1.68c1.62,0,3.15,0.63,4.29,1.78
		l4.29,4.29l-4.29,4.29c-1.14,1.15-2.67,1.78-4.29,1.78h-1.68v7.56h-7.56v1.68c0,1.62-0.63,3.14-1.77,4.29L105.11,76.46z"/>
	<path class="st1" d="M165.41,67.87h7.56v-7.56c1.98,0,3.97-0.76,5.48-2.27l5.48-5.48l-5.48-5.48c-1.51-1.51-3.5-2.27-5.48-2.27
		v-7.56h-7.56c0-1.98-0.75-3.97-2.27-5.48l-5.48-5.48l0,0l0,0l-5.48,5.48c-1.51,1.52-2.27,3.5-2.27,5.48h-7.57v7.56
		c-1.98,0-3.97,0.76-5.48,2.27l-5.48,5.48l5.48,5.48c1.51,1.51,3.5,2.27,5.48,2.27v7.56h7.57c0,1.99,0.75,3.97,2.27,5.48l5.48,5.48
		l5.48-5.48C164.66,71.84,165.41,69.86,165.41,67.87z M157.66,76.46l-4.29-4.3c-1.14-1.14-1.77-2.66-1.77-4.29v-1.68h-7.57v-7.56
		h-1.68c-1.62,0-3.14-0.63-4.29-1.78l-4.3-4.29l4.29-4.29c1.15-1.15,2.67-1.78,4.29-1.78h1.68v-7.56h7.57v-1.68
		c0-1.62,0.63-3.15,1.77-4.3l4.29-4.29l4.29,4.29c1.15,1.14,1.78,2.67,1.78,4.29v1.68h7.56v7.56h1.68c1.62,0,3.15,0.63,4.29,1.78
		l4.29,4.29l-4.29,4.29c-1.14,1.15-2.67,1.78-4.29,1.78h-1.68v7.56h-7.56v1.68c0,1.62-0.63,3.14-1.77,4.29L157.66,76.46z"/>
	<path class="st1" d="M194.9,7.75v7.56h7.57c0,1.99,0.75,3.97,2.27,5.48l5.48,5.48l0,0l0,0l5.48-5.48c1.52-1.51,2.27-3.49,2.27-5.48
		h7.56V7.75c1.98,0,3.97-0.76,5.48-2.27L236.49,0h-2.38l-4.29,4.29c-1.14,1.15-2.67,1.78-4.29,1.78h-1.68v7.56h-7.56v1.68
		c0,1.62-0.63,3.14-1.78,4.29l-4.29,4.3l-4.29-4.3c-1.14-1.14-1.78-2.67-1.78-4.29v-1.68h-7.57V6.07h-1.68
		c-1.62,0-3.14-0.63-4.29-1.78L186.31,0h-2.38l5.48,5.48C190.93,6.99,192.92,7.75,194.9,7.75z"/>
	<path class="st1" d="M247.45,7.75v7.56h7.57c0,1.99,0.75,3.97,2.27,5.48l5.48,5.48l0,0l0,0l5.48-5.48
		c1.52-1.51,2.27-3.49,2.27-5.48h7.56V7.75c1.98,0,3.97-0.76,5.48-2.27L289.05,0h-2.38l-4.29,4.29c-1.14,1.15-2.67,1.78-4.29,1.78
		h-1.68v7.56h-7.56v1.68c0,1.62-0.63,3.14-1.77,4.29l-4.29,4.3l-4.29-4.3c-1.14-1.14-1.77-2.67-1.77-4.29v-1.68h-7.57V6.07h-1.68
		c-1.62,0-3.14-0.63-4.29-1.78L238.87,0h-2.38l5.48,5.48C243.49,6.99,245.47,7.75,247.45,7.75z"/>
	<path class="st1" d="M217.97,67.87h7.56v-7.56c1.98,0,3.97-0.76,5.48-2.27l5.48-5.48l-5.48-5.48c-1.51-1.51-3.5-2.27-5.48-2.27
		v-7.56h-7.56c0-1.98-0.75-3.97-2.27-5.48l-5.48-5.48l0,0l0,0l-5.48,5.48c-1.51,1.52-2.27,3.5-2.27,5.48h-7.57v7.56
		c-1.98,0-3.97,0.76-5.48,2.27l-5.48,5.48l5.48,5.48c1.51,1.51,3.5,2.27,5.48,2.27v7.56h7.57c0,1.99,0.75,3.97,2.27,5.48l5.48,5.48
		l5.48-5.48C217.21,71.84,217.97,69.86,217.97,67.87z M210.22,76.46l-4.29-4.3c-1.14-1.14-1.78-2.66-1.78-4.29v-1.68h-7.57v-7.56
		h-1.68c-1.62,0-3.14-0.63-4.29-1.78l-4.3-4.29l4.29-4.29c1.15-1.15,2.67-1.78,4.29-1.78h1.68v-7.56h7.57v-1.68
		c0-1.62,0.63-3.15,1.78-4.3l4.29-4.29l4.29,4.29c1.15,1.14,1.78,2.67,1.78,4.29v1.68h7.56v7.56h1.68c1.62,0,3.15,0.63,4.29,1.78
		l4.29,4.29l-4.29,4.29c-1.14,1.15-2.67,1.78-4.29,1.78h-1.68v7.56h-7.56v1.68c0,1.62-0.63,3.14-1.78,4.29L210.22,76.46z"/>
	<path class="st1" d="M270.52,67.87h7.56v-7.56c1.98,0,3.97-0.76,5.48-2.27l5.48-5.48l-5.48-5.48c-1.51-1.51-3.5-2.27-5.48-2.27
		v-7.56h-7.56c0-1.98-0.75-3.97-2.27-5.48l-5.48-5.48l0,0l0,0l-5.48,5.48c-1.51,1.52-2.27,3.5-2.27,5.48h-7.57v7.56
		c-1.98,0-3.97,0.76-5.48,2.27l-5.48,5.48l5.48,5.48c1.51,1.51,3.5,2.27,5.48,2.27v7.56h7.57c0,1.99,0.75,3.97,2.27,5.48l5.48,5.48
		l5.48-5.48C269.77,71.84,270.52,69.86,270.52,67.87z M262.77,76.46l-4.29-4.3c-1.14-1.14-1.77-2.66-1.77-4.29v-1.68h-7.57v-7.56
		h-1.68c-1.62,0-3.14-0.63-4.29-1.78l-4.3-4.29l4.29-4.29c1.15-1.15,2.67-1.78,4.29-1.78h1.68v-7.56h7.57v-1.68
		c0-1.62,0.63-3.15,1.77-4.3l4.29-4.29l4.29,4.29c1.15,1.14,1.78,2.67,1.78,4.29v1.68h7.56v7.56h1.68c1.62,0,3.15,0.63,4.29,1.78
		l4.29,4.29l-4.29,4.29c-1.14,1.15-2.67,1.78-4.29,1.78h-1.68v7.56h-7.56v1.68c0,1.62-0.63,3.14-1.77,4.29L262.77,76.46z"/>
	<path class="st1" d="M300.01,7.75v7.56h7.57c0,1.99,0.75,3.97,2.27,5.48l5.48,5.48l0,0l0,0l5.48-5.48
		c1.52-1.51,2.27-3.49,2.27-5.48h7.56V7.75c1.98,0,3.97-0.76,5.48-2.27L341.6,0h-2.38l-4.29,4.29c-1.14,1.15-2.67,1.78-4.29,1.78
		h-1.68v7.56h-7.56v1.68c0,1.62-0.63,3.14-1.77,4.29l-4.29,4.3l-4.29-4.3c-1.14-1.14-1.77-2.67-1.77-4.29v-1.68h-7.57V6.07h-1.68
		c-1.62,0-3.14-0.63-4.29-1.78L291.42,0h-2.38l5.48,5.48C296.04,6.99,298.02,7.75,300.01,7.75z"/>
	<path class="st1" d="M352.56,7.75v7.56h7.57c0,1.99,0.75,3.97,2.27,5.48l5.48,5.48l0,0l0,0l5.48-5.48
		c1.52-1.51,2.27-3.49,2.27-5.48h7.56V7.75c1.98,0,3.97-0.76,5.48-2.27L394.15,0h-2.38l-4.29,4.29c-1.14,1.15-2.67,1.78-4.29,1.78
		h-1.68v7.56h-7.56v1.68c0,1.62-0.63,3.14-1.78,4.29l-4.29,4.3l-4.29-4.3c-1.14-1.14-1.78-2.67-1.78-4.29v-1.68h-7.57V6.07h-1.68
		c-1.62,0-3.14-0.63-4.29-1.78L343.98,0h-2.38l5.48,5.48C348.6,6.99,350.58,7.75,352.56,7.75z"/>
	<path class="st1" d="M323.07,67.87h7.56v-7.56c1.98,0,3.97-0.76,5.48-2.27l5.48-5.48l-5.48-5.48c-1.51-1.51-3.5-2.27-5.48-2.27
		v-7.56h-7.56c0-1.98-0.75-3.97-2.27-5.48l-5.48-5.48l0,0l0,0l-5.48,5.48c-1.51,1.52-2.27,3.5-2.27,5.48H300v7.56
		c-1.98,0-3.97,0.76-5.48,2.27l-5.48,5.48l5.48,5.48c1.51,1.51,3.5,2.27,5.48,2.27v7.56h7.57c0,1.99,0.75,3.97,2.27,5.48l5.48,5.48
		l5.48-5.48C322.32,71.84,323.07,69.86,323.07,67.87z M315.32,76.46l-4.29-4.3c-1.14-1.14-1.77-2.66-1.77-4.29v-1.68h-7.57v-7.56
		h-1.68c-1.62,0-3.14-0.63-4.29-1.78l-4.3-4.29l4.29-4.29c1.15-1.15,2.67-1.78,4.29-1.78h1.68v-7.56h7.57v-1.68
		c0-1.62,0.63-3.15,1.77-4.3l4.29-4.29l4.29,4.29c1.15,1.14,1.78,2.67,1.78,4.29v1.68h7.56v7.56h1.68c1.62,0,3.15,0.63,4.29,1.78
		l4.29,4.29l-4.29,4.29c-1.14,1.15-2.67,1.78-4.29,1.78h-1.68v7.56h-7.56v1.68c0,1.62-0.63,3.14-1.77,4.29L315.32,76.46z"/>
	<path class="st1" d="M375.63,67.87h7.56v-7.56c1.98,0,3.97-0.76,5.48-2.27l5.48-5.48l-5.48-5.48c-1.51-1.51-3.5-2.27-5.48-2.27
		v-7.56h-7.56c0-1.98-0.75-3.97-2.27-5.48l-5.48-5.48l0,0l0,0l-5.48,5.48c-1.51,1.52-2.27,3.5-2.27,5.48h-7.57v7.56
		c-1.98,0-3.97,0.76-5.48,2.27l-5.48,5.48l5.48,5.48c1.51,1.51,3.5,2.27,5.48,2.27v7.56h7.57c0,1.99,0.75,3.97,2.27,5.48l5.48,5.48
		l5.48-5.48C374.87,71.84,375.63,69.86,375.63,67.87z M367.88,76.46l-4.29-4.3c-1.14-1.14-1.78-2.66-1.78-4.29v-1.68h-7.57v-7.56
		h-1.68c-1.62,0-3.14-0.63-4.29-1.78l-4.3-4.29l4.29-4.29c1.15-1.15,2.67-1.78,4.29-1.78h1.68v-7.56h7.57v-1.68
		c0-1.62,0.63-3.15,1.78-4.3l4.29-4.29l4.29,4.29c1.15,1.14,1.78,2.67,1.78,4.29v1.68h7.56v7.56h1.68c1.62,0,3.15,0.63,4.29,1.78
		l4.29,4.29l-4.29,4.29c-1.14,1.15-2.67,1.78-4.29,1.78h-1.68v7.56h-7.56v1.68c0,1.62-0.63,3.14-1.78,4.29L367.88,76.46z"/>
	<path class="st1" d="M405.12,7.75v7.56h7.57c0,1.99,0.75,3.97,2.27,5.48l5.48,5.48l0,0l0,0l5.48-5.48
		c1.52-1.51,2.27-3.49,2.27-5.48h7.56V7.75c1.98,0,3.97-0.76,5.48-2.27L446.71,0h-2.38l-4.29,4.29c-1.14,1.15-2.67,1.78-4.29,1.78
		h-1.68v7.56h-7.56v1.68c0,1.62-0.63,3.14-1.77,4.29l-4.29,4.3l-4.29-4.3c-1.14-1.14-1.77-2.67-1.77-4.29v-1.68h-7.57V6.07h-1.68
		c-1.62,0-3.14-0.63-4.29-1.78L396.53,0h-2.38l5.48,5.48C401.15,6.99,403.13,7.75,405.12,7.75z"/>
	<path class="st1" d="M457.67,7.75v7.56h7.57c0,1.99,0.75,3.97,2.27,5.48l5.48,5.48l0,0l0,0l5.48-5.48
		c1.52-1.51,2.27-3.49,2.27-5.48h7.56V7.75c1.98,0,3.97-0.76,5.48-2.27L499.26,0h-2.38l-4.29,4.29c-1.14,1.15-2.67,1.78-4.29,1.78
		h-1.68v7.56h-7.56v1.68c0,1.62-0.63,3.14-1.77,4.29L473,23.9l-4.29-4.3c-1.14-1.14-1.77-2.67-1.77-4.29v-1.68h-7.57V6.07h-1.68
		c-1.62,0-3.14-0.63-4.29-1.78L449.08,0h-2.38l5.48,5.48C453.7,6.99,455.69,7.75,457.67,7.75z"/>
	<path class="st1" d="M428.18,67.87h7.56v-7.56c1.98,0,3.97-0.76,5.48-2.27l5.48-5.48l-5.48-5.48c-1.51-1.51-3.5-2.27-5.48-2.27
		v-7.56h-7.56c0-1.98-0.75-3.97-2.27-5.48l-5.48-5.48l0,0l0,0l-5.48,5.48c-1.51,1.52-2.27,3.5-2.27,5.48h-7.57v7.56
		c-1.98,0-3.97,0.76-5.48,2.27l-5.48,5.48l5.48,5.48c1.51,1.51,3.5,2.27,5.48,2.27v7.56h7.57c0,1.99,0.75,3.97,2.27,5.48l5.48,5.48
		l5.48-5.48C427.43,71.84,428.18,69.86,428.18,67.87z M420.43,76.46l-4.29-4.3c-1.14-1.14-1.77-2.66-1.77-4.29v-1.68h-7.57v-7.56
		h-1.68c-1.62,0-3.14-0.63-4.29-1.78l-4.3-4.29l4.29-4.29c1.15-1.15,2.67-1.78,4.29-1.78h1.68v-7.56h7.57v-1.68
		c0-1.62,0.63-3.15,1.77-4.3l4.29-4.29l4.29,4.29c1.15,1.14,1.78,2.67,1.78,4.29v1.68h7.56v7.56h1.68c1.62,0,3.15,0.63,4.29,1.78
		l4.29,4.29l-4.29,4.29c-1.14,1.15-2.67,1.78-4.29,1.78h-1.68v7.56h-7.56v1.68c0,1.62-0.63,3.14-1.77,4.29L420.43,76.46z"/>
	<path class="st1" d="M480.74,67.87h7.56v-7.56c1.98,0,3.97-0.76,5.48-2.27l5.48-5.48l-5.48-5.48c-1.51-1.51-3.5-2.27-5.48-2.27
		v-7.56h-7.56c0-1.98-0.75-3.97-2.27-5.48l-5.48-5.48l0,0l0,0l-5.48,5.48c-1.51,1.52-2.27,3.5-2.27,5.48h-7.57v7.56
		c-1.98,0-3.97,0.76-5.48,2.27l-5.48,5.48l5.48,5.48c1.51,1.51,3.5,2.27,5.48,2.27v7.56h7.57c0,1.99,0.75,3.97,2.27,5.48l5.48,5.48
		l5.48-5.48C479.98,71.84,480.74,69.86,480.74,67.87z M472.99,76.46l-4.29-4.3c-1.14-1.14-1.77-2.66-1.77-4.29v-1.68h-7.57v-7.56
		h-1.68c-1.62,0-3.14-0.63-4.29-1.78l-4.3-4.29l4.29-4.29c1.15-1.15,2.67-1.78,4.29-1.78h1.68v-7.56h7.57v-1.68
		c0-1.62,0.63-3.15,1.77-4.3l4.29-4.29l4.29,4.29c1.15,1.14,1.78,2.67,1.78,4.29v1.68h7.56v7.56h1.68c1.62,0,3.15,0.63,4.29,1.78
		l4.29,4.29l-4.29,4.29c-1.14,1.15-2.67,1.78-4.29,1.78h-1.68v7.56h-7.56v1.68c0,1.62-0.63,3.14-1.77,4.29L472.99,76.46z"/>
	<path class="st1" d="M510.22,7.75v7.56h7.57c0,1.99,0.75,3.97,2.27,5.48l5.48,5.48l0,0l0,0l5.48-5.48
		c1.52-1.51,2.27-3.49,2.27-5.48h7.56V7.75c1.98,0,3.97-0.76,5.48-2.27L551.82,0h-2.38l-4.29,4.29c-1.14,1.15-2.67,1.78-4.29,1.78
		h-1.68v7.56h-7.56v1.68c0,1.62-0.63,3.14-1.78,4.29l-4.29,4.3l-4.29-4.3c-1.14-1.14-1.78-2.67-1.78-4.29v-1.68h-7.57V6.07h-1.68
		c-1.62,0-3.14-0.63-4.29-1.78L501.64,0h-2.38l5.48,5.48C506.26,6.99,508.24,7.75,510.22,7.75z"/>
	<path class="st1" d="M562.78,7.75v7.56h7.57c0,1.99,0.75,3.97,2.27,5.48l5.48,5.48l0,0l0,0l5.48-5.48
		c1.52-1.51,2.27-3.49,2.27-5.48h7.56V7.75c1.98,0,3.97-0.76,5.48-2.27L604.37,0h-2.38l-4.29,4.29c-1.14,1.15-2.67,1.78-4.29,1.78
		h-1.68v7.56h-7.56v1.68c0,1.62-0.63,3.14-1.78,4.29l-4.29,4.3l-4.29-4.3c-1.14-1.14-1.78-2.67-1.78-4.29v-1.68h-7.57V6.07h-1.68
		c-1.62,0-3.14-0.63-4.29-1.78L554.19,0h-2.38l5.48,5.48C558.81,6.99,560.8,7.75,562.78,7.75z"/>
	<path class="st1" d="M533.29,67.87h7.56v-7.56c1.98,0,3.97-0.76,5.48-2.27l5.48-5.48l-5.48-5.48c-1.51-1.51-3.5-2.27-5.48-2.27
		v-7.56h-7.56c0-1.98-0.75-3.97-2.27-5.48l-5.48-5.48l0,0l0,0l-5.48,5.48c-1.51,1.52-2.27,3.5-2.27,5.48h-7.57v7.56
		c-1.98,0-3.97,0.76-5.48,2.27l-5.48,5.48l5.48,5.48c1.51,1.51,3.5,2.27,5.48,2.27v7.56h7.57c0,1.99,0.75,3.97,2.27,5.48l5.48,5.48
		l5.48-5.48C532.54,71.84,533.29,69.86,533.29,67.87z M525.54,76.46l-4.29-4.3c-1.14-1.14-1.78-2.66-1.78-4.29v-1.68h-7.57v-7.56
		h-1.68c-1.62,0-3.14-0.63-4.29-1.78l-4.3-4.29l4.29-4.29c1.15-1.15,2.67-1.78,4.29-1.78h1.68v-7.56h7.57v-1.68
		c0-1.62,0.63-3.15,1.78-4.3l4.29-4.29l4.29,4.29c1.15,1.14,1.78,2.67,1.78,4.29v1.68h7.56v7.56h1.68c1.62,0,3.15,0.63,4.29,1.78
		l4.29,4.29l-4.29,4.29c-1.14,1.15-2.67,1.78-4.29,1.78h-1.68v7.56h-7.56v1.68c0,1.62-0.63,3.14-1.78,4.29L525.54,76.46z"/>
	<path class="st1" d="M585.85,67.87h7.56v-7.56c1.98,0,3.97-0.76,5.48-2.27l5.48-5.48l-5.48-5.48c-1.51-1.51-3.5-2.27-5.48-2.27
		v-7.56h-7.56c0-1.98-0.75-3.97-2.27-5.48l-5.48-5.48l0,0l0,0l-5.48,5.48c-1.51,1.52-2.27,3.5-2.27,5.48h-7.57v7.56
		c-1.98,0-3.97,0.76-5.48,2.27l-5.48,5.48l5.48,5.48c1.51,1.51,3.5,2.27,5.48,2.27v7.56h7.57c0,1.99,0.75,3.97,2.27,5.48l5.48,5.48
		l5.48-5.48C585.09,71.84,585.85,69.86,585.85,67.87z M578.1,76.46l-4.29-4.3c-1.14-1.14-1.78-2.66-1.78-4.29v-1.68h-7.57v-7.56
		h-1.68c-1.62,0-3.14-0.63-4.29-1.78l-4.3-4.29l4.29-4.29c1.15-1.15,2.67-1.78,4.29-1.78h1.68v-7.56h7.57v-1.68
		c0-1.62,0.63-3.15,1.78-4.3l4.29-4.29l4.29,4.29c1.15,1.14,1.78,2.67,1.78,4.29v1.68h7.56v7.56h1.68c1.62,0,3.15,0.63,4.29,1.78
		l4.29,4.29l-4.29,4.29c-1.14,1.15-2.67,1.78-4.29,1.78h-1.68v7.56h-7.56v1.68c0,1.62-0.63,3.14-1.78,4.29L578.1,76.46z"/>
	<path class="st1" d="M615.33,7.75v7.56h7.57c0,1.99,0.75,3.97,2.27,5.48l5.48,5.48l0,0V23.9l-4.29-4.3
		c-1.14-1.14-1.78-2.67-1.78-4.29v-1.68h-7.57V6.07h-1.68c-1.62,0-3.14-0.63-4.29-1.78L606.75,0h-2.38l5.48,5.48
		C611.37,6.99,613.35,7.75,615.33,7.75z"/>
	<path class="st1" d="M625.17,31.76c-1.51,1.52-2.27,3.5-2.27,5.48h-7.57v7.56c-1.98,0-3.97,0.76-5.48,2.27l-5.48,5.48l5.48,5.48
		c1.51,1.51,3.5,2.27,5.48,2.27v7.56h7.57c0,1.99,0.75,3.97,2.27,5.48l5.48,5.48v-2.38l-4.29-4.3c-1.14-1.14-1.78-2.66-1.78-4.29
		v-1.68h-7.57v-7.56h-1.68c-1.62,0-3.14-0.63-4.29-1.78l-4.3-4.29l4.29-4.29c1.15-1.15,2.67-1.78,4.29-1.78H617v-7.56h7.57v-1.68
		c0-1.62,0.63-3.15,1.78-4.3l4.29-4.29v-2.38l0,0L625.17,31.76z"/>
	<path class="st1" d="M236.49,32.27c3.31,0,5.99-2.68,5.99-5.99s-2.68-5.99-5.99-5.99s-5.99,2.68-5.99,5.99
		S233.18,32.27,236.49,32.27z"/>
	<rect x="283.05" y="20.28" class="st1" width="11.99" height="11.99"/>
	<path class="st1" d="M131.38,32.27c3.31,0,5.99-2.68,5.99-5.99s-2.68-5.99-5.99-5.99s-5.99,2.68-5.99,5.99
		C125.39,29.59,128.07,32.27,131.38,32.27z"/>
	<rect x="177.94" y="20.28" class="st1" width="11.99" height="11.99"/>
	<path class="st1" d="M20.28,26.28c0,3.31,2.68,5.99,5.99,5.99s5.99-2.68,5.99-5.99s-2.68-5.99-5.99-5.99
		C22.96,20.28,20.28,22.97,20.28,26.28z"/>
	<rect x="72.84" y="20.28" class="st1" width="11.99" height="11.99"/>
	<path class="st1" d="M341.6,32.27c3.31,0,5.99-2.68,5.99-5.99s-2.68-5.99-5.99-5.99s-6,2.68-6,5.99
		C335.61,29.59,338.29,32.27,341.6,32.27z"/>
	<rect x="388.16" y="20.28" class="st1" width="11.99" height="11.99"/>
	<path class="st1" d="M446.71,32.27c3.31,0,5.99-2.68,5.99-5.99s-2.68-5.99-5.99-5.99s-5.99,2.68-5.99,5.99
		C440.71,29.59,443.4,32.27,446.71,32.27z"/>
	<rect x="493.27" y="20.28" class="st1" width="11.99" height="11.99"/>
	<path class="st1" d="M551.82,32.27c3.31,0,5.99-2.68,5.99-5.99s-2.68-5.99-5.99-5.99s-6,2.68-6,5.99S548.51,32.27,551.82,32.27z"/>
	<rect x="598.38" y="20.28" class="st1" width="11.99" height="11.99"/>
</g>
</svg>
