<svg id="Layer_1" data-name="Layer 1" xmlns="http://www.w3.org/2000/svg" viewBox="0 0 154.77 15.73"><defs><style>.cls-1{fill:#b1b1ac;}</style></defs><title>ornamento</title><path class="cls-1" d="M63.54,7.87,70.39,1l6.85,6.85-6.85,6.84ZM70.39,0,62.52,7.87l7.87,7.86,7.87-7.86Z" transform="translate(0 0)"/><path class="cls-1" d="M70.83,7.87,77.68,1l6.85,6.85-6.85,6.84ZM77.68,0,69.81,7.87l7.87,7.86,7.87-7.86Z" transform="translate(0 0)"/><path class="cls-1" d="M77.86,7.87,84.71,1l6.85,6.85-6.85,6.84ZM84.71,0,76.84,7.87l7.87,7.86,7.87-7.86Z" transform="translate(0 0)"/><path class="cls-1" d="M85,7.87,91.81,1l6.84,6.85-6.84,6.84ZM91.81,0,83.94,7.87l7.87,7.86,7.86-7.86Z" transform="translate(0 0)"/><path class="cls-1" d="M56.12,7.87,63,1l6.84,6.85L63,14.71ZM63,0,55.1,7.87,63,15.73l7.86-7.86Z" transform="translate(0 0)"/><rect class="cls-1" x="69.01" y="6.49" width="2.76" height="2.76" transform="translate(15.05 52.08) rotate(-45)"/><rect class="cls-1" x="76.3" y="6.49" width="2.76" height="2.76" transform="translate(17.19 57.23) rotate(-45)"/><rect class="cls-1" x="83.33" y="6.49" width="2.76" height="2.76" transform="translate(19.25 62.2) rotate(-45)"/><rect class="cls-1" x="102.14" y="6.49" width="2.76" height="2.76" transform="translate(24.76 75.51) rotate(-45)"/><rect class="cls-1" x="49.86" y="6.49" width="2.76" height="2.76" transform="translate(9.45 38.54) rotate(-45)"/><rect class="cls-1" x="9.5" y="7.51" width="41.75" height="0.72"/><rect class="cls-1" x="7.91" y="6.89" width="1.95" height="1.95" transform="translate(-2.96 8.59) rotate(-45)"/><rect class="cls-1" x="1.2" y="4.98" width="5.77" height="5.77" transform="translate(-4.37 5.19) rotate(-45)"/><rect class="cls-1" x="103.53" y="7.51" width="41.75" height="0.72"/><rect class="cls-1" x="144.91" y="6.89" width="1.95" height="1.95" transform="translate(37.17 105.46) rotate(-45)"/><rect class="cls-1" x="147.8" y="4.98" width="5.77" height="5.77" transform="translate(38.57 108.86) rotate(-45)"/></svg>