<svg id="Layer_1" data-name="Layer 1" xmlns="http://www.w3.org/2000/svg" xmlns:xlink="http://www.w3.org/1999/xlink" viewBox="0 0 683.2 472.99"><defs><style>.cls-1{fill:none;}.cls-2{clip-path:url(#clip-path);}.cls-3{opacity:0.58;}.cls-4{fill:#616160;}.cls-5{clip-path:url(#clip-path-4);}</style><clipPath id="clip-path" transform="translate(0 0)"><rect class="cls-1" width="683.2" height="472.99"/></clipPath><clipPath id="clip-path-4" transform="translate(0 0)"><rect class="cls-1" x="46.56" y="46.56" width="590.08" height="379.87"/></clipPath></defs><title>Vector Smart Object</title><g class="cls-2"><g class="cls-2"><g class="cls-3"><g class="cls-2"><path class="cls-4" d="M47.08,20.8a7.72,7.72,0,0,0-5.49-2.27V11H34a7.76,7.76,0,0,0-2.27-5.48L26.28,0,20.8,5.48A7.71,7.71,0,0,0,18.53,11H11v7.57A7.71,7.71,0,0,0,5.48,20.8L0,26.28l5.48,5.48A7.76,7.76,0,0,0,11,34v7.56h7.57a7.68,7.68,0,0,0,2.27,5.48l5.48,5.48,5.48-5.48A7.72,7.72,0,0,0,34,41.59h7.56V34a7.76,7.76,0,0,0,5.49-2.27l5.47-5.48Zm-1.2,9.77a6,6,0,0,1-4.29,1.78H39.91v7.56H32.35v1.68a6,6,0,0,1-1.78,4.29l-4.29,4.3L22,45.88a6,6,0,0,1-1.78-4.29V39.91H12.64V32.35H11a6,6,0,0,1-4.29-1.78L2.38,26.28,6.67,22A6,6,0,0,1,11,20.21h1.68V12.64h7.57V11A6,6,0,0,1,22,6.67l4.29-4.29,4.29,4.29A6,6,0,0,1,32.35,11v1.68h7.56v7.57h1.68A6,6,0,0,1,45.88,22l4.3,4.29Z" transform="translate(0 0)"/><path class="cls-4" d="M99.63,20.8a7.7,7.7,0,0,0-5.48-2.27V11H86.58a7.71,7.71,0,0,0-2.27-5.48L78.83,0,73.35,5.48A7.76,7.76,0,0,0,71.08,11H63.52v7.57A7.68,7.68,0,0,0,58,20.8l-5.49,5.48L58,31.76A7.72,7.72,0,0,0,63.52,34v7.56h7.56a7.72,7.72,0,0,0,2.27,5.48l5.48,5.48,5.48-5.48a7.68,7.68,0,0,0,2.27-5.48h7.57V34a7.74,7.74,0,0,0,5.48-2.27l5.48-5.48Zm-1.19,9.77a6,6,0,0,1-4.29,1.78H92.46v7.56H84.9v1.68a6,6,0,0,1-1.77,4.29l-4.3,4.3-4.29-4.3a6,6,0,0,1-1.77-4.29V39.91H65.2V32.35H63.52a6,6,0,0,1-4.29-1.78l-4.3-4.29L59.22,22a6,6,0,0,1,4.3-1.78H65.2V12.64h7.57V11a6,6,0,0,1,1.77-4.29l4.29-4.29,4.29,4.29A6,6,0,0,1,84.9,11v1.68h7.56v7.57h1.69A6,6,0,0,1,98.44,22l4.29,4.29Z" transform="translate(0 0)"/><path class="cls-4" d="M47.08,73.35a7.76,7.76,0,0,0-5.49-2.27V63.52H34A7.76,7.76,0,0,0,31.76,58l-5.48-5.48L20.8,58a7.72,7.72,0,0,0-2.27,5.49H11v7.56a7.76,7.76,0,0,0-5.48,2.27L0,78.83l5.48,5.48A7.76,7.76,0,0,0,11,86.58v7.57h7.57a7.71,7.71,0,0,0,2.27,5.48l5.48,5.48,5.48-5.48A7.76,7.76,0,0,0,34,94.15h7.56V86.58a7.76,7.76,0,0,0,5.49-2.27l5.47-5.48Zm-1.2,9.77a6,6,0,0,1-4.29,1.78H39.91v7.56H32.35v1.69a6,6,0,0,1-1.78,4.28l-4.29,4.3L22,98.43a6,6,0,0,1-1.78-4.28V92.46H12.64V84.9H11a6,6,0,0,1-4.29-1.78L2.38,78.83l4.29-4.29A6,6,0,0,1,11,72.76h1.68V65.2h7.57V63.52A6,6,0,0,1,22,59.22l4.29-4.29,4.29,4.29a6,6,0,0,1,1.78,4.3V65.2h7.56v7.56h1.68a6,6,0,0,1,4.29,1.78l4.3,4.29Z" transform="translate(0 0)"/><path class="cls-4" d="M99.63,73.35a7.74,7.74,0,0,0-5.48-2.27V63.52H86.58A7.72,7.72,0,0,0,84.31,58l-5.48-5.48L73.35,58a7.76,7.76,0,0,0-2.27,5.49H63.52v7.56A7.72,7.72,0,0,0,58,73.35l-5.49,5.48L58,84.31a7.72,7.72,0,0,0,5.48,2.27v7.57h7.56a7.76,7.76,0,0,0,2.27,5.48l5.48,5.48,5.48-5.48a7.71,7.71,0,0,0,2.27-5.48h7.57V86.58a7.74,7.74,0,0,0,5.48-2.27l5.48-5.48Zm-1.19,9.77a6,6,0,0,1-4.29,1.78H92.46v7.56H84.9v1.69a6,6,0,0,1-1.77,4.28l-4.3,4.3-4.29-4.3a6,6,0,0,1-1.77-4.28V92.46H65.2V84.9H63.52a6,6,0,0,1-4.29-1.78l-4.3-4.29,4.29-4.29a6,6,0,0,1,4.3-1.78H65.2V65.2h7.57V63.52a6.06,6.06,0,0,1,1.77-4.3l4.29-4.29,4.29,4.29a6,6,0,0,1,1.78,4.3V65.2h7.56v7.56h1.69a6,6,0,0,1,4.29,1.78l4.29,4.29Z" transform="translate(0 0)"/><path class="cls-4" d="M152.18,20.8a7.7,7.7,0,0,0-5.48-2.27V11h-7.56a7.76,7.76,0,0,0-2.27-5.48L131.39,0,125.9,5.48A7.75,7.75,0,0,0,123.64,11h-7.57v7.57a7.7,7.7,0,0,0-5.48,2.27l-5.48,5.48,5.48,5.48A7.74,7.74,0,0,0,116.07,34v7.56h7.57a7.71,7.71,0,0,0,2.26,5.48l5.49,5.48,5.48-5.48a7.72,7.72,0,0,0,2.27-5.48h7.56V34a7.74,7.74,0,0,0,5.48-2.27l5.48-5.48ZM151,30.57a6,6,0,0,1-4.29,1.78H145v7.56h-7.57v1.68a6,6,0,0,1-1.77,4.29l-4.29,4.3-4.3-4.3a6,6,0,0,1-1.77-4.29V39.91h-7.57V32.35h-1.68a6,6,0,0,1-4.29-1.78l-4.3-4.29,4.3-4.29a6,6,0,0,1,4.29-1.78h1.68V12.64h7.57V11a6,6,0,0,1,1.77-4.29l4.3-4.29,4.29,4.29A6,6,0,0,1,137.45,11v1.68H145v7.57h1.68A6,6,0,0,1,151,22l4.29,4.29Z" transform="translate(0 0)"/><path class="cls-4" d="M204.74,20.8a7.72,7.72,0,0,0-5.49-2.27V11h-7.56a7.71,7.71,0,0,0-2.27-5.48L183.94,0l-5.48,5.48A7.76,7.76,0,0,0,176.19,11h-7.57v7.57a7.71,7.71,0,0,0-5.48,2.27l-5.48,5.48,5.48,5.48A7.76,7.76,0,0,0,168.62,34v7.56h7.57a7.72,7.72,0,0,0,2.27,5.48l5.48,5.48,5.48-5.48a7.68,7.68,0,0,0,2.27-5.48h7.56V34a7.76,7.76,0,0,0,5.49-2.27l5.48-5.48Zm-1.19,9.77a6,6,0,0,1-4.3,1.78h-1.68v7.56H190v1.68a6,6,0,0,1-1.78,4.29l-4.29,4.3-4.29-4.3a6,6,0,0,1-1.78-4.29V39.91h-7.56V32.35h-1.69a6,6,0,0,1-4.28-1.78L160,26.28,164.33,22a6,6,0,0,1,4.29-1.78h1.69V12.64h7.56V11a6,6,0,0,1,1.78-4.29l4.29-4.29,4.29,4.29A6,6,0,0,1,190,11v1.68h7.56v7.57h1.68a6,6,0,0,1,4.3,1.78l4.29,4.29Z" transform="translate(0 0)"/><path class="cls-4" d="M152.18,73.35a7.74,7.74,0,0,0-5.48-2.27V63.52h-7.56A7.76,7.76,0,0,0,136.87,58l-5.48-5.48L125.9,58a7.75,7.75,0,0,0-2.26,5.49h-7.57v7.56a7.74,7.74,0,0,0-5.48,2.27l-5.48,5.48,5.48,5.48a7.74,7.74,0,0,0,5.48,2.27v7.57h7.57a7.75,7.75,0,0,0,2.26,5.48l5.49,5.48,5.48-5.48a7.76,7.76,0,0,0,2.27-5.48h7.56V86.58a7.74,7.74,0,0,0,5.48-2.27l5.48-5.48ZM151,83.12a6,6,0,0,1-4.29,1.78H145v7.56h-7.57v1.69a6,6,0,0,1-1.77,4.28l-4.29,4.3-4.3-4.3a6,6,0,0,1-1.77-4.28V92.46h-7.57V84.9h-1.68a6,6,0,0,1-4.29-1.78l-4.3-4.29,4.3-4.29a6,6,0,0,1,4.29-1.78h1.68V65.2h7.57V63.52a6.06,6.06,0,0,1,1.77-4.3l4.3-4.29,4.29,4.29a6.06,6.06,0,0,1,1.77,4.3V65.2H145v7.56h1.68A6,6,0,0,1,151,74.54l4.29,4.29Z" transform="translate(0 0)"/><path class="cls-4" d="M204.74,73.35a7.76,7.76,0,0,0-5.49-2.27V63.52h-7.56A7.72,7.72,0,0,0,189.42,58l-5.48-5.48L178.46,58a7.76,7.76,0,0,0-2.27,5.49h-7.57v7.56a7.76,7.76,0,0,0-5.48,2.27l-5.48,5.48,5.48,5.48a7.76,7.76,0,0,0,5.48,2.27v7.57h7.57a7.76,7.76,0,0,0,2.27,5.48l5.48,5.48,5.48-5.48a7.71,7.71,0,0,0,2.27-5.48h7.56V86.58a7.76,7.76,0,0,0,5.49-2.27l5.48-5.48Zm-1.19,9.77a6,6,0,0,1-4.3,1.78h-1.68v7.56H190v1.69a6,6,0,0,1-1.78,4.28l-4.29,4.3-4.29-4.3a6,6,0,0,1-1.78-4.28V92.46h-7.56V84.9h-1.69a6,6,0,0,1-4.28-1.78L160,78.83l4.29-4.29a6,6,0,0,1,4.29-1.78h1.69V65.2h7.56V63.52a6,6,0,0,1,1.78-4.3l4.29-4.29,4.29,4.29a6,6,0,0,1,1.78,4.3V65.2h7.56v7.56h1.68a6,6,0,0,1,4.3,1.78l4.29,4.29Z" transform="translate(0 0)"/><path class="cls-4" d="M47.08,125.9a7.76,7.76,0,0,0-5.49-2.27v-7.56H34a7.74,7.74,0,0,0-2.27-5.48l-5.48-5.48-5.48,5.48a7.7,7.7,0,0,0-2.27,5.48H11v7.56a7.76,7.76,0,0,0-5.48,2.27L0,131.38l5.48,5.49A7.76,7.76,0,0,0,11,139.14v7.56h7.57a7.68,7.68,0,0,0,2.27,5.48l5.48,5.48,5.48-5.48A7.72,7.72,0,0,0,34,146.7h7.56v-7.56a7.76,7.76,0,0,0,5.49-2.27l5.47-5.49Zm-1.2,9.78a6,6,0,0,1-4.29,1.78H39.91V145H32.35v1.68A6,6,0,0,1,30.57,151l-4.29,4.3L22,151a6,6,0,0,1-1.78-4.29V145H12.64v-7.56H11a6.06,6.06,0,0,1-4.29-1.78l-4.29-4.3,4.29-4.28A6,6,0,0,1,11,125.32h1.68v-7.57h7.57v-1.68a6,6,0,0,1,1.78-4.3l4.29-4.28,4.29,4.29a6,6,0,0,1,1.78,4.29v1.68h7.56v7.57h1.68a6,6,0,0,1,4.29,1.78l4.3,4.28Z" transform="translate(0 0)"/><path class="cls-4" d="M99.63,125.9a7.74,7.74,0,0,0-5.48-2.27v-7.56H86.58a7.7,7.7,0,0,0-2.27-5.48l-5.48-5.48-5.48,5.48a7.74,7.74,0,0,0-2.27,5.48H63.52v7.56A7.72,7.72,0,0,0,58,125.9l-5.49,5.48L58,136.87a7.72,7.72,0,0,0,5.48,2.27v7.56h7.56a7.72,7.72,0,0,0,2.27,5.48l5.48,5.48,5.48-5.48a7.68,7.68,0,0,0,2.27-5.48h7.57v-7.56a7.74,7.74,0,0,0,5.48-2.27l5.48-5.49Zm-1.19,9.78a6.06,6.06,0,0,1-4.29,1.78H92.46V145H84.9v1.68A6.05,6.05,0,0,1,83.13,151l-4.3,4.3L74.54,151a6.05,6.05,0,0,1-1.77-4.29V145H65.2v-7.56H63.52a6,6,0,0,1-4.29-1.78l-4.3-4.3,4.29-4.28a6,6,0,0,1,4.3-1.78H65.2v-7.57h7.57v-1.68a6.08,6.08,0,0,1,1.77-4.3l4.29-4.28,4.29,4.29a6,6,0,0,1,1.78,4.29v1.68h7.56v7.57h1.69a6,6,0,0,1,4.29,1.78l4.29,4.28Z" transform="translate(0 0)"/><path class="cls-4" d="M47.08,178.46a7.76,7.76,0,0,0-5.49-2.27v-7.57H34a7.76,7.76,0,0,0-2.27-5.48l-5.48-5.48-5.48,5.48a7.71,7.71,0,0,0-2.27,5.48H11v7.57a7.76,7.76,0,0,0-5.48,2.27L0,183.94l5.48,5.48A7.76,7.76,0,0,0,11,191.69v7.56h7.57a7.68,7.68,0,0,0,2.27,5.48l5.48,5.49,5.48-5.49A7.72,7.72,0,0,0,34,199.25h7.56v-7.56a7.76,7.76,0,0,0,5.49-2.27l5.47-5.48Zm-1.2,9.77A6,6,0,0,1,41.59,190H39.91v7.56H32.35v1.68a6,6,0,0,1-1.78,4.29l-4.29,4.3L22,203.54a6,6,0,0,1-1.78-4.29v-1.68H12.64V190H11a6,6,0,0,1-4.29-1.78l-4.29-4.29,4.29-4.29A6,6,0,0,1,11,177.87h1.68v-7.56h7.57v-1.69A6,6,0,0,1,22,164.33L26.28,160l4.29,4.29a6,6,0,0,1,1.78,4.29v1.69h7.56v7.56h1.68a6,6,0,0,1,4.29,1.78l4.3,4.29Z" transform="translate(0 0)"/><path class="cls-4" d="M99.63,178.46a7.74,7.74,0,0,0-5.48-2.27v-7.57H86.58a7.71,7.71,0,0,0-2.27-5.48l-5.48-5.48-5.48,5.48a7.76,7.76,0,0,0-2.27,5.48H63.52v7.57A7.72,7.72,0,0,0,58,178.46l-5.49,5.48L58,189.42a7.72,7.72,0,0,0,5.48,2.27v7.56h7.56a7.72,7.72,0,0,0,2.27,5.48l5.48,5.49,5.48-5.49a7.68,7.68,0,0,0,2.27-5.48h7.57v-7.56a7.74,7.74,0,0,0,5.48-2.27l5.48-5.48Zm-1.19,9.77A6,6,0,0,1,94.15,190H92.46v7.56H84.9v1.68a6,6,0,0,1-1.77,4.29l-4.3,4.3-4.29-4.3a6,6,0,0,1-1.77-4.29v-1.68H65.2V190H63.52a6,6,0,0,1-4.29-1.78l-4.3-4.29,4.29-4.29a6,6,0,0,1,4.3-1.78H65.2v-7.56h7.57v-1.69a6.05,6.05,0,0,1,1.77-4.29L78.83,160l4.29,4.29a6,6,0,0,1,1.78,4.29v1.69h7.56v7.56h1.69a6,6,0,0,1,4.29,1.78l4.29,4.29Z" transform="translate(0 0)"/><path class="cls-4" d="M152.18,125.9a7.74,7.74,0,0,0-5.48-2.27v-7.56h-7.56a7.74,7.74,0,0,0-2.27-5.48l-5.48-5.48-5.49,5.48a7.73,7.73,0,0,0-2.26,5.48h-7.57v7.56a7.74,7.74,0,0,0-5.48,2.27l-5.48,5.48,5.48,5.49a7.74,7.74,0,0,0,5.48,2.27v7.56h7.57a7.71,7.71,0,0,0,2.26,5.48l5.49,5.48,5.48-5.48a7.72,7.72,0,0,0,2.27-5.48h7.56v-7.56a7.74,7.74,0,0,0,5.48-2.27l5.48-5.49ZM151,135.68a6,6,0,0,1-4.29,1.78H145V145h-7.57v1.68a6.05,6.05,0,0,1-1.77,4.29l-4.29,4.3-4.3-4.3a6.05,6.05,0,0,1-1.77-4.29V145h-7.57v-7.56h-1.68a6.06,6.06,0,0,1-4.29-1.78l-4.3-4.3,4.3-4.28a6,6,0,0,1,4.29-1.78h1.68v-7.57h7.57v-1.68a6.08,6.08,0,0,1,1.77-4.3l4.3-4.28,4.29,4.29a6,6,0,0,1,1.77,4.29v1.68H145v7.57h1.68A6,6,0,0,1,151,127.1l4.29,4.28Z" transform="translate(0 0)"/><path class="cls-4" d="M204.74,125.9a7.76,7.76,0,0,0-5.49-2.27v-7.56h-7.56a7.7,7.7,0,0,0-2.27-5.48l-5.48-5.48-5.48,5.48a7.74,7.74,0,0,0-2.27,5.48h-7.57v7.56a7.76,7.76,0,0,0-5.48,2.27l-5.48,5.48,5.48,5.49a7.76,7.76,0,0,0,5.48,2.27v7.56h7.57a7.72,7.72,0,0,0,2.27,5.48l5.48,5.48,5.48-5.48a7.68,7.68,0,0,0,2.27-5.48h7.56v-7.56a7.76,7.76,0,0,0,5.49-2.27l5.48-5.49Zm-1.19,9.78a6.07,6.07,0,0,1-4.3,1.78h-1.68V145H190v1.68a6,6,0,0,1-1.78,4.29l-4.29,4.3-4.29-4.3a6,6,0,0,1-1.78-4.29V145h-7.56v-7.56h-1.69a6,6,0,0,1-4.28-1.78l-4.3-4.3,4.29-4.28a6,6,0,0,1,4.29-1.78h1.69v-7.57h7.56v-1.68a6,6,0,0,1,1.78-4.3l4.29-4.28,4.29,4.29a6,6,0,0,1,1.78,4.29v1.68h7.56v7.57h1.68a6,6,0,0,1,4.3,1.78l4.29,4.28Z" transform="translate(0 0)"/><path class="cls-4" d="M152.18,178.46a7.74,7.74,0,0,0-5.48-2.27v-7.57h-7.56a7.76,7.76,0,0,0-2.27-5.48l-5.48-5.48-5.49,5.48a7.75,7.75,0,0,0-2.26,5.48h-7.57v7.57a7.74,7.74,0,0,0-5.48,2.27l-5.48,5.48,5.48,5.48a7.74,7.74,0,0,0,5.48,2.27v7.56h7.57a7.71,7.71,0,0,0,2.26,5.48l5.49,5.49,5.48-5.49a7.72,7.72,0,0,0,2.27-5.48h7.56v-7.56a7.74,7.74,0,0,0,5.48-2.27l5.48-5.48ZM151,188.23A6,6,0,0,1,146.7,190H145v7.56h-7.57v1.68a6,6,0,0,1-1.77,4.29l-4.29,4.3-4.3-4.3a6,6,0,0,1-1.77-4.29v-1.68h-7.57V190h-1.68a6,6,0,0,1-4.29-1.78l-4.3-4.29,4.3-4.29a6,6,0,0,1,4.29-1.78h1.68v-7.56h7.57v-1.69a6.05,6.05,0,0,1,1.77-4.29l4.3-4.29,4.29,4.29a6.05,6.05,0,0,1,1.77,4.29v1.69H145v7.56h1.68a6,6,0,0,1,4.29,1.78l4.29,4.29Z" transform="translate(0 0)"/><path class="cls-4" d="M204.74,178.46a7.76,7.76,0,0,0-5.49-2.27v-7.57h-7.56a7.71,7.71,0,0,0-2.27-5.48l-5.48-5.48-5.48,5.48a7.76,7.76,0,0,0-2.27,5.48h-7.57v7.57a7.76,7.76,0,0,0-5.48,2.27l-5.48,5.48,5.48,5.48a7.76,7.76,0,0,0,5.48,2.27v7.56h7.57a7.72,7.72,0,0,0,2.27,5.48l5.48,5.49,5.48-5.49a7.68,7.68,0,0,0,2.27-5.48h7.56v-7.56a7.76,7.76,0,0,0,5.49-2.27l5.48-5.48Zm-1.19,9.77a6,6,0,0,1-4.3,1.78h-1.68v7.56H190v1.68a6,6,0,0,1-1.78,4.29l-4.29,4.3-4.29-4.3a6,6,0,0,1-1.78-4.29v-1.68h-7.56V190h-1.69a6,6,0,0,1-4.28-1.78l-4.3-4.29,4.29-4.29a6,6,0,0,1,4.29-1.78h1.69v-7.56h7.56v-1.69a6,6,0,0,1,1.78-4.29l4.29-4.29,4.29,4.29a6,6,0,0,1,1.78,4.29v1.69h7.56v7.56h1.68a6,6,0,0,1,4.3,1.78l4.29,4.29Z" transform="translate(0 0)"/><path class="cls-4" d="M257.29,20.8a7.7,7.7,0,0,0-5.48-2.27V11h-7.56A7.73,7.73,0,0,0,242,5.48L236.5,0,231,5.48A7.75,7.75,0,0,0,228.75,11h-7.57v7.57a7.7,7.7,0,0,0-5.48,2.27l-5.48,5.48,5.48,5.48A7.74,7.74,0,0,0,221.18,34v7.56h7.57A7.71,7.71,0,0,0,231,47.07l5.49,5.48L242,47.07a7.69,7.69,0,0,0,2.28-5.48h7.56V34a7.74,7.74,0,0,0,5.48-2.27l5.48-5.48Zm-1.19,9.77a6,6,0,0,1-4.29,1.78h-1.68v7.56h-7.57v1.68a6,6,0,0,1-1.77,4.29l-4.29,4.3-4.3-4.3a6,6,0,0,1-1.77-4.29V39.91h-7.57V32.35h-1.68a6,6,0,0,1-4.29-1.78l-4.3-4.29,4.3-4.29a6,6,0,0,1,4.29-1.78h1.68V12.64h7.57V11a6,6,0,0,1,1.77-4.29l4.3-4.29,4.28,4.29A6,6,0,0,1,242.56,11v1.68h7.57v7.57h1.68A6,6,0,0,1,256.1,22l4.29,4.29Z" transform="translate(0 0)"/><path class="cls-4" d="M309.85,20.8a7.72,7.72,0,0,0-5.49-2.27V11H296.8a7.71,7.71,0,0,0-2.27-5.48L289.05,0l-5.48,5.48A7.71,7.71,0,0,0,281.3,11h-7.57v7.57a7.71,7.71,0,0,0-5.48,2.27l-5.48,5.48,5.48,5.48A7.76,7.76,0,0,0,273.73,34v7.56h7.57a7.68,7.68,0,0,0,2.27,5.48l5.48,5.48,5.48-5.48a7.68,7.68,0,0,0,2.27-5.48h7.56V34a7.76,7.76,0,0,0,5.49-2.27l5.47-5.48Zm-1.19,9.77a6,6,0,0,1-4.3,1.78h-1.68v7.56h-7.56v1.68a6,6,0,0,1-1.78,4.29l-4.29,4.3-4.29-4.3A6,6,0,0,1,283,41.59V39.91h-7.57V32.35h-1.68a6,6,0,0,1-4.29-1.78l-4.29-4.29L269.44,22a6,6,0,0,1,4.29-1.78h1.68V12.64H283V11a6,6,0,0,1,1.78-4.29l4.29-4.29,4.29,4.29A6,6,0,0,1,295.12,11v1.68h7.56v7.57h1.68a6,6,0,0,1,4.3,1.78L313,26.28Z" transform="translate(0 0)"/><path class="cls-4" d="M257.29,73.35a7.74,7.74,0,0,0-5.48-2.27V63.52h-7.56A7.73,7.73,0,0,0,242,58l-5.47-5.48L231,58a7.75,7.75,0,0,0-2.26,5.49h-7.57v7.56a7.74,7.74,0,0,0-5.48,2.27l-5.48,5.48,5.48,5.48a7.74,7.74,0,0,0,5.48,2.27v7.57h7.57A7.75,7.75,0,0,0,231,99.63l5.49,5.48L242,99.63a7.73,7.73,0,0,0,2.28-5.48h7.56V86.58a7.74,7.74,0,0,0,5.48-2.27l5.48-5.48Zm-1.19,9.77a6,6,0,0,1-4.29,1.78h-1.68v7.56h-7.57v1.69a6,6,0,0,1-1.77,4.28l-4.29,4.3-4.3-4.3a6,6,0,0,1-1.77-4.28V92.46h-7.57V84.9h-1.68a6,6,0,0,1-4.29-1.78l-4.3-4.29,4.3-4.29a6,6,0,0,1,4.29-1.78h1.68V65.2h7.57V63.52a6.06,6.06,0,0,1,1.77-4.3l4.3-4.29,4.28,4.29a6,6,0,0,1,1.78,4.3V65.2h7.57v7.56h1.68a6,6,0,0,1,4.29,1.78l4.29,4.29Z" transform="translate(0 0)"/><path class="cls-4" d="M309.85,73.35a7.76,7.76,0,0,0-5.49-2.27V63.52H296.8A7.72,7.72,0,0,0,294.53,58l-5.48-5.48L283.57,58a7.72,7.72,0,0,0-2.27,5.49h-7.57v7.56a7.76,7.76,0,0,0-5.48,2.27l-5.48,5.48,5.48,5.48a7.76,7.76,0,0,0,5.48,2.27v7.57h7.57a7.71,7.71,0,0,0,2.27,5.48l5.48,5.48,5.48-5.48a7.71,7.71,0,0,0,2.27-5.48h7.56V86.58a7.76,7.76,0,0,0,5.49-2.27l5.47-5.48Zm-1.19,9.77a6,6,0,0,1-4.3,1.78h-1.68v7.56h-7.56v1.69a6,6,0,0,1-1.78,4.28l-4.29,4.3-4.29-4.3A6,6,0,0,1,283,94.15V92.46h-7.57V84.9h-1.68a6,6,0,0,1-4.29-1.78l-4.29-4.29,4.29-4.29a6,6,0,0,1,4.29-1.78h1.68V65.2H283V63.52a6,6,0,0,1,1.78-4.3l4.29-4.29,4.29,4.29a6,6,0,0,1,1.78,4.3V65.2h7.56v7.56h1.68a6,6,0,0,1,4.3,1.78L313,78.83Z" transform="translate(0 0)"/><path class="cls-4" d="M362.4,20.8a7.7,7.7,0,0,0-5.48-2.27V11h-7.57a7.71,7.71,0,0,0-2.27-5.48L341.6,0l-5.48,5.48A7.76,7.76,0,0,0,333.85,11h-7.56v7.57a7.68,7.68,0,0,0-5.48,2.27l-5.49,5.48,5.49,5.48A7.72,7.72,0,0,0,326.29,34v7.56h7.56a7.72,7.72,0,0,0,2.27,5.48l5.48,5.48,5.48-5.48a7.68,7.68,0,0,0,2.27-5.48h7.57V34a7.74,7.74,0,0,0,5.48-2.27l5.48-5.48Zm-1.19,9.77a6,6,0,0,1-4.29,1.78h-1.68v7.56h-7.57v1.68a6,6,0,0,1-1.77,4.29l-4.3,4.3-4.29-4.3a6,6,0,0,1-1.77-4.29V39.91H328V32.35h-1.68A6,6,0,0,1,322,30.57l-4.3-4.29L322,22a6,6,0,0,1,4.3-1.78H328V12.64h7.57V11a6,6,0,0,1,1.77-4.29l4.29-4.29,4.29,4.29A6,6,0,0,1,347.67,11v1.68h7.57v7.57h1.68A6,6,0,0,1,361.21,22l4.29,4.29Z" transform="translate(0 0)"/><path class="cls-4" d="M415,20.8a7.7,7.7,0,0,0-5.48-2.27V11h-7.56a7.76,7.76,0,0,0-2.27-5.48L394.16,0l-5.48,5.48A7.71,7.71,0,0,0,386.41,11h-7.57v7.57a7.7,7.7,0,0,0-5.48,2.27l-5.48,5.48,5.48,5.48A7.74,7.74,0,0,0,378.84,34v7.56h7.57a7.68,7.68,0,0,0,2.27,5.48l5.48,5.48,5.48-5.48a7.72,7.72,0,0,0,2.27-5.48h7.56V34A7.74,7.74,0,0,0,415,31.76l5.48-5.48Zm-1.19,9.77a6,6,0,0,1-4.29,1.78h-1.68v7.56h-7.56v1.68a6,6,0,0,1-1.78,4.29l-4.29,4.3-4.29-4.3a6,6,0,0,1-1.78-4.29V39.91h-7.57V32.35h-1.68a6,6,0,0,1-4.29-1.78l-4.29-4.29L374.55,22a6,6,0,0,1,4.29-1.78h1.68V12.64h7.57V11a6,6,0,0,1,1.78-4.29l4.29-4.29,4.29,4.29A6,6,0,0,1,400.23,11v1.68h7.56v7.57h1.68A6,6,0,0,1,413.76,22l4.3,4.29Z" transform="translate(0 0)"/><path class="cls-4" d="M362.4,73.35a7.74,7.74,0,0,0-5.48-2.27V63.52h-7.57A7.72,7.72,0,0,0,347.08,58l-5.48-5.48L336.12,58a7.76,7.76,0,0,0-2.27,5.49h-7.56v7.56a7.72,7.72,0,0,0-5.48,2.27l-5.49,5.48,5.49,5.48a7.72,7.72,0,0,0,5.48,2.27v7.57h7.56a7.76,7.76,0,0,0,2.27,5.48l5.48,5.48,5.48-5.48a7.71,7.71,0,0,0,2.27-5.48h7.57V86.58a7.74,7.74,0,0,0,5.48-2.27l5.48-5.48Zm-1.19,9.77a6,6,0,0,1-4.29,1.78h-1.68v7.56h-7.57v1.69a6,6,0,0,1-1.77,4.28l-4.3,4.3-4.29-4.3a6,6,0,0,1-1.77-4.28V92.46H328V84.9h-1.68A6,6,0,0,1,322,83.12l-4.3-4.29L322,74.54a6,6,0,0,1,4.3-1.78H328V65.2h7.57V63.52a6.06,6.06,0,0,1,1.77-4.3l4.29-4.29,4.29,4.29a6,6,0,0,1,1.78,4.3V65.2h7.57v7.56h1.68a6,6,0,0,1,4.29,1.78l4.29,4.29Z" transform="translate(0 0)"/><path class="cls-4" d="M415,73.35a7.74,7.74,0,0,0-5.48-2.27V63.52h-7.56A7.76,7.76,0,0,0,399.64,58l-5.48-5.48L388.68,58a7.72,7.72,0,0,0-2.27,5.49h-7.57v7.56a7.74,7.74,0,0,0-5.48,2.27l-5.48,5.48,5.48,5.48a7.74,7.74,0,0,0,5.48,2.27v7.57h7.57a7.71,7.71,0,0,0,2.27,5.48l5.48,5.48,5.48-5.48a7.76,7.76,0,0,0,2.27-5.48h7.56V86.58A7.74,7.74,0,0,0,415,84.31l5.48-5.48Zm-1.19,9.77a6,6,0,0,1-4.29,1.78h-1.68v7.56h-7.56v1.69a6,6,0,0,1-1.78,4.28l-4.29,4.3-4.29-4.3a6,6,0,0,1-1.78-4.28V92.46h-7.57V84.9h-1.68a6,6,0,0,1-4.29-1.78l-4.29-4.29,4.29-4.29a6,6,0,0,1,4.29-1.78h1.68V65.2h7.57V63.52a6,6,0,0,1,1.78-4.3l4.29-4.29,4.29,4.29a6.07,6.07,0,0,1,1.78,4.3V65.2h7.56v7.56h1.68a6,6,0,0,1,4.29,1.78l4.3,4.29Z" transform="translate(0 0)"/><path class="cls-4" d="M257.29,125.9a7.74,7.74,0,0,0-5.48-2.27v-7.56h-7.56a7.71,7.71,0,0,0-2.28-5.48l-5.47-5.48L231,110.59a7.73,7.73,0,0,0-2.26,5.48h-7.57v7.56a7.74,7.74,0,0,0-5.48,2.27l-5.48,5.48,5.48,5.49a7.74,7.74,0,0,0,5.48,2.27v7.56h7.57a7.71,7.71,0,0,0,2.26,5.48l5.49,5.48,5.47-5.48a7.69,7.69,0,0,0,2.28-5.48h7.56v-7.56a7.74,7.74,0,0,0,5.48-2.27l5.48-5.49Zm-1.19,9.78a6,6,0,0,1-4.29,1.78h-1.68V145h-7.57v1.68a6.05,6.05,0,0,1-1.77,4.29l-4.29,4.3-4.3-4.3a6.05,6.05,0,0,1-1.77-4.29V145h-7.57v-7.56h-1.68a6,6,0,0,1-4.29-1.78l-4.3-4.3,4.3-4.28a6,6,0,0,1,4.29-1.78h1.68v-7.57h7.57v-1.68a6.08,6.08,0,0,1,1.77-4.3l4.3-4.28,4.28,4.29a6,6,0,0,1,1.78,4.29v1.68h7.57v7.57h1.68a6,6,0,0,1,4.29,1.78l4.29,4.28Z" transform="translate(0 0)"/><path class="cls-4" d="M309.85,125.9a7.76,7.76,0,0,0-5.49-2.27v-7.56H296.8a7.7,7.7,0,0,0-2.27-5.48l-5.48-5.48-5.48,5.48a7.7,7.7,0,0,0-2.27,5.48h-7.57v7.56a7.76,7.76,0,0,0-5.48,2.27l-5.48,5.48,5.48,5.49a7.76,7.76,0,0,0,5.48,2.27v7.56h7.57a7.68,7.68,0,0,0,2.27,5.48l5.48,5.48,5.48-5.48a7.68,7.68,0,0,0,2.27-5.48h7.56v-7.56a7.76,7.76,0,0,0,5.49-2.27l5.47-5.49Zm-1.19,9.78a6.07,6.07,0,0,1-4.3,1.78h-1.68V145h-7.56v1.68a6,6,0,0,1-1.78,4.29l-4.29,4.3-4.29-4.3A6,6,0,0,1,283,146.7V145h-7.57v-7.56h-1.68a6.06,6.06,0,0,1-4.29-1.78l-4.29-4.3,4.29-4.28a6,6,0,0,1,4.29-1.78h1.68v-7.57H283v-1.68a6,6,0,0,1,1.78-4.3l4.29-4.28,4.29,4.29a6,6,0,0,1,1.78,4.29v1.68h7.56v7.57h1.68a6,6,0,0,1,4.3,1.78l4.29,4.28Z" transform="translate(0 0)"/><path class="cls-4" d="M257.29,178.46a7.74,7.74,0,0,0-5.48-2.27v-7.57h-7.56a7.73,7.73,0,0,0-2.28-5.48l-5.47-5.48L231,163.14a7.75,7.75,0,0,0-2.26,5.48h-7.57v7.57a7.74,7.74,0,0,0-5.48,2.27l-5.48,5.48,5.48,5.48a7.74,7.74,0,0,0,5.48,2.27v7.56h7.57a7.71,7.71,0,0,0,2.26,5.48l5.49,5.49,5.47-5.49a7.69,7.69,0,0,0,2.28-5.48h7.56v-7.56a7.74,7.74,0,0,0,5.48-2.27l5.48-5.48Zm-1.19,9.77a6,6,0,0,1-4.29,1.78h-1.68v7.56h-7.57v1.68a6,6,0,0,1-1.77,4.29l-4.29,4.3-4.3-4.3a6,6,0,0,1-1.77-4.29v-1.68h-7.57V190h-1.68a6,6,0,0,1-4.29-1.78l-4.3-4.29,4.3-4.29a6,6,0,0,1,4.29-1.78h1.68v-7.56h7.57v-1.69a6.05,6.05,0,0,1,1.77-4.29l4.3-4.29,4.28,4.29a6,6,0,0,1,1.78,4.29v1.69h7.57v7.56h1.68a6,6,0,0,1,4.29,1.78l4.29,4.29Z" transform="translate(0 0)"/><path class="cls-4" d="M309.85,178.46a7.76,7.76,0,0,0-5.49-2.27v-7.57H296.8a7.71,7.71,0,0,0-2.27-5.48l-5.48-5.48-5.48,5.48a7.71,7.71,0,0,0-2.27,5.48h-7.57v7.57a7.76,7.76,0,0,0-5.48,2.27l-5.48,5.48,5.48,5.48a7.76,7.76,0,0,0,5.48,2.27v7.56h7.57a7.68,7.68,0,0,0,2.27,5.48l5.48,5.49,5.48-5.49a7.68,7.68,0,0,0,2.27-5.48h7.56v-7.56a7.76,7.76,0,0,0,5.49-2.27l5.47-5.48Zm-1.19,9.77a6,6,0,0,1-4.3,1.78h-1.68v7.56h-7.56v1.68a6,6,0,0,1-1.78,4.29l-4.29,4.3-4.29-4.3a6,6,0,0,1-1.78-4.29v-1.68h-7.57V190h-1.68a6,6,0,0,1-4.29-1.78l-4.29-4.29,4.29-4.29a6,6,0,0,1,4.29-1.78h1.68v-7.56H283v-1.69a6,6,0,0,1,1.78-4.29l4.29-4.29,4.29,4.29a6,6,0,0,1,1.78,4.29v1.69h7.56v7.56h1.68a6,6,0,0,1,4.3,1.78l4.29,4.29Z" transform="translate(0 0)"/><path class="cls-4" d="M362.4,125.9a7.74,7.74,0,0,0-5.48-2.27v-7.56h-7.57a7.7,7.7,0,0,0-2.27-5.48l-5.48-5.48-5.48,5.48a7.74,7.74,0,0,0-2.27,5.48h-7.56v7.56a7.72,7.72,0,0,0-5.48,2.27l-5.49,5.48,5.49,5.49a7.72,7.72,0,0,0,5.48,2.27v7.56h7.56a7.72,7.72,0,0,0,2.27,5.48l5.48,5.48,5.48-5.48a7.68,7.68,0,0,0,2.27-5.48h7.57v-7.56a7.74,7.74,0,0,0,5.48-2.27l5.48-5.49Zm-1.19,9.78a6,6,0,0,1-4.29,1.78h-1.68V145h-7.57v1.68A6.05,6.05,0,0,1,345.9,151l-4.3,4.3-4.29-4.3a6.05,6.05,0,0,1-1.77-4.29V145H328v-7.56h-1.68a6,6,0,0,1-4.29-1.78l-4.3-4.3L322,127.1a6,6,0,0,1,4.3-1.78H328v-7.57h7.57v-1.68a6.08,6.08,0,0,1,1.77-4.3l4.29-4.28,4.29,4.29a6,6,0,0,1,1.78,4.29v1.68h7.57v7.57h1.68a6,6,0,0,1,4.29,1.78l4.29,4.28Z" transform="translate(0 0)"/><path class="cls-4" d="M415,125.9a7.74,7.74,0,0,0-5.48-2.27v-7.56h-7.56a7.74,7.74,0,0,0-2.27-5.48l-5.48-5.48-5.48,5.48a7.7,7.7,0,0,0-2.27,5.48h-7.57v7.56a7.74,7.74,0,0,0-5.48,2.27l-5.48,5.48,5.48,5.49a7.74,7.74,0,0,0,5.48,2.27v7.56h7.57a7.68,7.68,0,0,0,2.27,5.48l5.48,5.48,5.48-5.48a7.72,7.72,0,0,0,2.27-5.48h7.56v-7.56a7.74,7.74,0,0,0,5.48-2.27l5.48-5.49Zm-1.19,9.78a6,6,0,0,1-4.29,1.78h-1.68V145h-7.56v1.68a6.06,6.06,0,0,1-1.78,4.29l-4.29,4.3-4.29-4.3a6,6,0,0,1-1.78-4.29V145h-7.57v-7.56h-1.68a6.06,6.06,0,0,1-4.29-1.78l-4.29-4.3,4.29-4.28a6,6,0,0,1,4.29-1.78h1.68v-7.57h7.57v-1.68a6,6,0,0,1,1.78-4.3l4.29-4.28,4.29,4.29a6,6,0,0,1,1.78,4.29v1.68h7.56v7.57h1.68a6,6,0,0,1,4.29,1.78l4.3,4.28Z" transform="translate(0 0)"/><path class="cls-4" d="M362.4,178.46a7.74,7.74,0,0,0-5.48-2.27v-7.57h-7.57a7.71,7.71,0,0,0-2.27-5.48l-5.48-5.48-5.48,5.48a7.76,7.76,0,0,0-2.27,5.48h-7.56v7.57a7.72,7.72,0,0,0-5.48,2.27l-5.49,5.48,5.49,5.48a7.72,7.72,0,0,0,5.48,2.27v7.56h7.56a7.72,7.72,0,0,0,2.27,5.48l5.48,5.49,5.48-5.49a7.68,7.68,0,0,0,2.27-5.48h7.57v-7.56a7.74,7.74,0,0,0,5.48-2.27l5.48-5.48Zm-1.19,9.77a6,6,0,0,1-4.29,1.78h-1.68v7.56h-7.57v1.68a6,6,0,0,1-1.77,4.29l-4.3,4.3-4.29-4.3a6,6,0,0,1-1.77-4.29v-1.68H328V190h-1.68a6,6,0,0,1-4.29-1.78l-4.3-4.29,4.29-4.29a6,6,0,0,1,4.3-1.78H328v-7.56h7.57v-1.69a6.05,6.05,0,0,1,1.77-4.29L341.6,160l4.29,4.29a6,6,0,0,1,1.78,4.29v1.69h7.57v7.56h1.68a6,6,0,0,1,4.29,1.78l4.29,4.29Z" transform="translate(0 0)"/><path class="cls-4" d="M415,178.46a7.74,7.74,0,0,0-5.48-2.27v-7.57h-7.56a7.76,7.76,0,0,0-2.27-5.48l-5.48-5.48-5.48,5.48a7.71,7.71,0,0,0-2.27,5.48h-7.57v7.57a7.74,7.74,0,0,0-5.48,2.27l-5.48,5.48,5.48,5.48a7.74,7.74,0,0,0,5.48,2.27v7.56h7.57a7.68,7.68,0,0,0,2.27,5.48l5.48,5.49,5.48-5.49a7.72,7.72,0,0,0,2.27-5.48h7.56v-7.56a7.74,7.74,0,0,0,5.48-2.27l5.48-5.48Zm-1.19,9.77a6,6,0,0,1-4.29,1.78h-1.68v7.56h-7.56v1.68a6,6,0,0,1-1.78,4.29l-4.29,4.3-4.29-4.3a6,6,0,0,1-1.78-4.29v-1.68h-7.57V190h-1.68a6,6,0,0,1-4.29-1.78l-4.29-4.29,4.29-4.29a6,6,0,0,1,4.29-1.78h1.68v-7.56h7.57v-1.69a6,6,0,0,1,1.78-4.29l4.29-4.29,4.29,4.29a6.06,6.06,0,0,1,1.78,4.29v1.69h7.56v7.56h1.68a6,6,0,0,1,4.29,1.78l4.3,4.29Z" transform="translate(0 0)"/><path class="cls-4" d="M467.51,20.8A7.7,7.7,0,0,0,462,18.53V11h-7.57a7.71,7.71,0,0,0-2.27-5.48L446.71,0l-5.48,5.48A7.76,7.76,0,0,0,439,11h-7.57v7.57a7.68,7.68,0,0,0-5.47,2.27l-5.49,5.48,5.49,5.48A7.72,7.72,0,0,0,431.39,34v7.56H439a7.72,7.72,0,0,0,2.27,5.48l5.48,5.48,5.48-5.48a7.68,7.68,0,0,0,2.27-5.48H462V34a7.74,7.74,0,0,0,5.48-2.27L473,26.28Zm-1.19,9.77A6,6,0,0,1,462,32.35h-1.69v7.56h-7.56v1.68A6,6,0,0,1,451,45.88l-4.29,4.3-4.29-4.3a6,6,0,0,1-1.78-4.29V39.91h-7.56V32.35h-1.69a6,6,0,0,1-4.28-1.78l-4.3-4.29L427.1,22a6,6,0,0,1,4.29-1.78h1.69V12.64h7.56V11a6,6,0,0,1,1.78-4.29l4.29-4.29L451,6.67A6,6,0,0,1,452.78,11v1.68h7.56v7.57H462A6,6,0,0,1,466.32,22l4.29,4.29Z" transform="translate(0 0)"/><path class="cls-4" d="M520.06,20.8a7.7,7.7,0,0,0-5.48-2.27V11H507a7.73,7.73,0,0,0-2.28-5.48L499.27,0l-5.49,5.48A7.75,7.75,0,0,0,491.52,11H484v7.57a7.7,7.7,0,0,0-5.48,2.27L473,26.28l5.48,5.48A7.74,7.74,0,0,0,484,34v7.56h7.57a7.71,7.71,0,0,0,2.26,5.48l5.49,5.48,5.47-5.48A7.69,7.69,0,0,0,507,41.59h7.56V34a7.74,7.74,0,0,0,5.48-2.27l5.48-5.48Zm-1.19,9.77a6,6,0,0,1-4.29,1.78H512.9v7.56h-7.57v1.68a6,6,0,0,1-1.77,4.29l-4.29,4.3-4.3-4.3a6,6,0,0,1-1.77-4.29V39.91h-7.57V32.35H484a6,6,0,0,1-4.29-1.78l-4.3-4.29,4.3-4.29A6,6,0,0,1,484,20.21h1.68V12.64h7.57V11A6,6,0,0,1,495,6.67l4.3-4.29,4.28,4.29A6,6,0,0,1,505.33,11v1.68h7.57v7.57h1.68A6,6,0,0,1,518.87,22l4.29,4.29Z" transform="translate(0 0)"/><path class="cls-4" d="M467.51,73.35A7.74,7.74,0,0,0,462,71.08V63.52h-7.57A7.72,7.72,0,0,0,452.19,58l-5.48-5.48L441.23,58A7.76,7.76,0,0,0,439,63.52h-7.57v7.56a7.72,7.72,0,0,0-5.47,2.27l-5.49,5.48,5.49,5.48a7.72,7.72,0,0,0,5.47,2.27v7.57H439a7.76,7.76,0,0,0,2.27,5.48l5.48,5.48,5.48-5.48a7.71,7.71,0,0,0,2.27-5.48H462V86.58a7.74,7.74,0,0,0,5.48-2.27L473,78.83Zm-1.19,9.77A6,6,0,0,1,462,84.9h-1.69v7.56h-7.56v1.69A6,6,0,0,1,451,98.43l-4.29,4.3-4.29-4.3a6,6,0,0,1-1.78-4.28V92.46h-7.56V84.9h-1.69a6,6,0,0,1-4.28-1.78l-4.3-4.29,4.29-4.29a6,6,0,0,1,4.29-1.78h1.69V65.2h7.56V63.52a6.07,6.07,0,0,1,1.78-4.3l4.29-4.29L451,59.22a6,6,0,0,1,1.78,4.3V65.2h7.56v7.56H462a6,6,0,0,1,4.29,1.78l4.29,4.29Z" transform="translate(0 0)"/><path class="cls-4" d="M520.06,73.35a7.74,7.74,0,0,0-5.48-2.27V63.52H507A7.73,7.73,0,0,0,504.74,58l-5.47-5.48L493.78,58a7.75,7.75,0,0,0-2.26,5.49H484v7.56a7.74,7.74,0,0,0-5.48,2.27L473,78.83l5.48,5.48A7.74,7.74,0,0,0,484,86.58v7.57h7.57a7.75,7.75,0,0,0,2.26,5.48l5.49,5.48,5.47-5.48A7.73,7.73,0,0,0,507,94.15h7.56V86.58a7.74,7.74,0,0,0,5.48-2.27l5.48-5.48Zm-1.19,9.77a6,6,0,0,1-4.29,1.78H512.9v7.56h-7.57v1.69a6,6,0,0,1-1.77,4.28l-4.29,4.3-4.3-4.3a6,6,0,0,1-1.77-4.28V92.46h-7.57V84.9H484a6,6,0,0,1-4.29-1.78l-4.3-4.29,4.3-4.29A6,6,0,0,1,484,72.76h1.68V65.2h7.57V63.52a6.06,6.06,0,0,1,1.77-4.3l4.3-4.29,4.28,4.29a6,6,0,0,1,1.78,4.3V65.2h7.57v7.56h1.68a6,6,0,0,1,4.29,1.78l4.29,4.29Z" transform="translate(0 0)"/><path class="cls-4" d="M572.62,20.8a7.72,7.72,0,0,0-5.49-2.27V11h-7.56a7.71,7.71,0,0,0-2.27-5.48L551.82,0l-5.48,5.48A7.71,7.71,0,0,0,544.07,11H536.5v7.57A7.71,7.71,0,0,0,531,20.8l-5.48,5.48L531,31.76A7.76,7.76,0,0,0,536.5,34v7.56h7.57a7.68,7.68,0,0,0,2.27,5.48l5.48,5.48,5.48-5.48a7.68,7.68,0,0,0,2.27-5.48h7.56V34a7.76,7.76,0,0,0,5.49-2.27l5.47-5.48Zm-1.19,9.77a6,6,0,0,1-4.3,1.78h-1.68v7.56h-7.56v1.68a6,6,0,0,1-1.78,4.29l-4.29,4.3-4.29-4.3a6,6,0,0,1-1.78-4.29V39.91h-7.57V32.35H536.5a6,6,0,0,1-4.29-1.78l-4.29-4.29L532.21,22a6,6,0,0,1,4.29-1.78h1.68V12.64h7.57V11a6,6,0,0,1,1.78-4.29l4.29-4.29,4.29,4.29A6,6,0,0,1,557.89,11v1.68h7.56v7.57h1.68a6,6,0,0,1,4.3,1.78l4.29,4.29Z" transform="translate(0 0)"/><path class="cls-4" d="M625.17,20.8a7.7,7.7,0,0,0-5.48-2.27V11h-7.57a7.71,7.71,0,0,0-2.27-5.48L604.37,0l-5.48,5.48A7.76,7.76,0,0,0,596.62,11h-7.56v7.57a7.68,7.68,0,0,0-5.48,2.27l-5.49,5.48,5.49,5.48A7.72,7.72,0,0,0,589.06,34v7.56h7.56a7.72,7.72,0,0,0,2.27,5.48l5.48,5.48,5.48-5.48a7.68,7.68,0,0,0,2.27-5.48h7.57V34a7.74,7.74,0,0,0,5.48-2.27l5.48-5.48ZM624,30.57a6,6,0,0,1-4.29,1.78H618v7.56h-7.57v1.68a6,6,0,0,1-1.77,4.29l-4.3,4.3-4.29-4.3a6,6,0,0,1-1.77-4.29V39.91h-7.57V32.35h-1.68a6,6,0,0,1-4.29-1.78l-4.3-4.29L584.76,22a6,6,0,0,1,4.3-1.78h1.68V12.64h7.57V11a6,6,0,0,1,1.77-4.29l4.29-4.29,4.29,4.29A6,6,0,0,1,610.44,11v1.68H618v7.57h1.68A6,6,0,0,1,624,22l4.29,4.29Z" transform="translate(0 0)"/><path class="cls-4" d="M572.62,73.35a7.76,7.76,0,0,0-5.49-2.27V63.52h-7.56A7.72,7.72,0,0,0,557.3,58l-5.48-5.48L546.34,58a7.72,7.72,0,0,0-2.27,5.49H536.5v7.56A7.76,7.76,0,0,0,531,73.35l-5.48,5.48L531,84.31a7.76,7.76,0,0,0,5.48,2.27v7.57h7.57a7.71,7.71,0,0,0,2.27,5.48l5.48,5.48,5.48-5.48a7.71,7.71,0,0,0,2.27-5.48h7.56V86.58a7.76,7.76,0,0,0,5.49-2.27l5.47-5.48Zm-1.19,9.77a6,6,0,0,1-4.3,1.78h-1.68v7.56h-7.56v1.69a6,6,0,0,1-1.78,4.28l-4.29,4.3-4.29-4.3a6,6,0,0,1-1.78-4.28V92.46h-7.57V84.9H536.5a6,6,0,0,1-4.29-1.78l-4.29-4.29,4.29-4.29a6,6,0,0,1,4.29-1.78h1.68V65.2h7.57V63.52a6,6,0,0,1,1.78-4.3l4.29-4.29,4.29,4.29a6,6,0,0,1,1.78,4.3V65.2h7.56v7.56h1.68a6,6,0,0,1,4.3,1.78l4.29,4.29Z" transform="translate(0 0)"/><path class="cls-4" d="M625.17,73.35a7.74,7.74,0,0,0-5.48-2.27V63.52h-7.57A7.72,7.72,0,0,0,609.85,58l-5.48-5.48L598.89,58a7.76,7.76,0,0,0-2.27,5.49h-7.56v7.56a7.72,7.72,0,0,0-5.48,2.27l-5.49,5.48,5.49,5.48a7.72,7.72,0,0,0,5.48,2.27v7.57h7.56a7.76,7.76,0,0,0,2.27,5.48l5.48,5.48,5.48-5.48a7.71,7.71,0,0,0,2.27-5.48h7.57V86.58a7.74,7.74,0,0,0,5.48-2.27l5.48-5.48ZM624,83.12a6,6,0,0,1-4.29,1.78H618v7.56h-7.57v1.69a6,6,0,0,1-1.77,4.28l-4.3,4.3-4.29-4.3a6,6,0,0,1-1.77-4.28V92.46h-7.57V84.9h-1.68a6,6,0,0,1-4.29-1.78l-4.3-4.29,4.29-4.29a6,6,0,0,1,4.3-1.78h1.68V65.2h7.57V63.52a6.06,6.06,0,0,1,1.77-4.3l4.29-4.29,4.29,4.29a6,6,0,0,1,1.78,4.3V65.2H618v7.56h1.68A6,6,0,0,1,624,74.54l4.29,4.29Z" transform="translate(0 0)"/><path class="cls-4" d="M467.51,125.9a7.74,7.74,0,0,0-5.48-2.27v-7.56h-7.57a7.7,7.7,0,0,0-2.27-5.48l-5.48-5.48-5.48,5.48a7.74,7.74,0,0,0-2.27,5.48h-7.57v7.56a7.72,7.72,0,0,0-5.47,2.27l-5.49,5.48,5.49,5.49a7.72,7.72,0,0,0,5.47,2.27v7.56H439a7.72,7.72,0,0,0,2.27,5.48l5.48,5.48,5.48-5.48a7.68,7.68,0,0,0,2.27-5.48H462v-7.56a7.74,7.74,0,0,0,5.48-2.27l5.48-5.49Zm-1.19,9.78a6.06,6.06,0,0,1-4.29,1.78h-1.69V145h-7.56v1.68A6,6,0,0,1,451,151l-4.29,4.3-4.29-4.3a6.06,6.06,0,0,1-1.78-4.29V145h-7.56v-7.56h-1.69a6,6,0,0,1-4.28-1.78l-4.3-4.3,4.29-4.28a6,6,0,0,1,4.29-1.78h1.69v-7.57h7.56v-1.68a6.09,6.09,0,0,1,1.78-4.3l4.29-4.28,4.29,4.29a6,6,0,0,1,1.78,4.29v1.68h7.56v7.57H462a6,6,0,0,1,4.29,1.78l4.29,4.28Z" transform="translate(0 0)"/><path class="cls-4" d="M520.06,125.9a7.74,7.74,0,0,0-5.48-2.27v-7.56H507a7.71,7.71,0,0,0-2.28-5.48l-5.47-5.48-5.49,5.48a7.73,7.73,0,0,0-2.26,5.48H484v7.56a7.74,7.74,0,0,0-5.48,2.27L473,131.38l5.48,5.49a7.74,7.74,0,0,0,5.48,2.27v7.56h7.57a7.71,7.71,0,0,0,2.26,5.48l5.49,5.48,5.47-5.48A7.69,7.69,0,0,0,507,146.7h7.56v-7.56a7.74,7.74,0,0,0,5.48-2.27l5.48-5.49Zm-1.19,9.78a6,6,0,0,1-4.29,1.78H512.9V145h-7.57v1.68a6.05,6.05,0,0,1-1.77,4.29l-4.29,4.3L495,151a6.05,6.05,0,0,1-1.77-4.29V145h-7.57v-7.56H484a6,6,0,0,1-4.29-1.78l-4.3-4.3,4.3-4.28a6,6,0,0,1,4.29-1.78h1.68v-7.57h7.57v-1.68a6.08,6.08,0,0,1,1.77-4.3l4.3-4.28,4.28,4.29a6,6,0,0,1,1.78,4.29v1.68h7.57v7.57h1.68a6,6,0,0,1,4.29,1.78l4.29,4.28Z" transform="translate(0 0)"/><path class="cls-4" d="M467.51,178.46a7.74,7.74,0,0,0-5.48-2.27v-7.57h-7.57a7.71,7.71,0,0,0-2.27-5.48l-5.48-5.48-5.48,5.48a7.76,7.76,0,0,0-2.27,5.48h-7.57v7.57a7.72,7.72,0,0,0-5.47,2.27l-5.49,5.48,5.49,5.48a7.72,7.72,0,0,0,5.47,2.27v7.56H439a7.72,7.72,0,0,0,2.27,5.48l5.48,5.49,5.48-5.49a7.68,7.68,0,0,0,2.27-5.48H462v-7.56a7.74,7.74,0,0,0,5.48-2.27l5.48-5.48Zm-1.19,9.77A6,6,0,0,1,462,190h-1.69v7.56h-7.56v1.68a6,6,0,0,1-1.78,4.29l-4.29,4.3-4.29-4.3a6,6,0,0,1-1.78-4.29v-1.68h-7.56V190h-1.69a6,6,0,0,1-4.28-1.78l-4.3-4.29,4.29-4.29a6,6,0,0,1,4.29-1.78h1.69v-7.56h7.56v-1.69a6.06,6.06,0,0,1,1.78-4.29l4.29-4.29,4.29,4.29a6,6,0,0,1,1.78,4.29v1.69h7.56v7.56H462a6,6,0,0,1,4.29,1.78l4.29,4.29Z" transform="translate(0 0)"/><path class="cls-4" d="M520.06,178.46a7.74,7.74,0,0,0-5.48-2.27v-7.57H507a7.73,7.73,0,0,0-2.28-5.48l-5.47-5.48-5.49,5.48a7.75,7.75,0,0,0-2.26,5.48H484v7.57a7.74,7.74,0,0,0-5.48,2.27L473,183.94l5.48,5.48a7.74,7.74,0,0,0,5.48,2.27v7.56h7.57a7.71,7.71,0,0,0,2.26,5.48l5.49,5.49,5.47-5.49a7.69,7.69,0,0,0,2.28-5.48h7.56v-7.56a7.74,7.74,0,0,0,5.48-2.27l5.48-5.48Zm-1.19,9.77a6,6,0,0,1-4.29,1.78H512.9v7.56h-7.57v1.68a6,6,0,0,1-1.77,4.29l-4.29,4.3-4.3-4.3a6,6,0,0,1-1.77-4.29v-1.68h-7.57V190H484a6,6,0,0,1-4.29-1.78l-4.3-4.29,4.3-4.29a6,6,0,0,1,4.29-1.78h1.68v-7.56h7.57v-1.69a6.05,6.05,0,0,1,1.77-4.29l4.3-4.29,4.28,4.29a6,6,0,0,1,1.78,4.29v1.69h7.57v7.56h1.68a6,6,0,0,1,4.29,1.78l4.29,4.29Z" transform="translate(0 0)"/><path class="cls-4" d="M572.62,125.9a7.76,7.76,0,0,0-5.49-2.27v-7.56h-7.56a7.7,7.7,0,0,0-2.27-5.48l-5.48-5.48-5.48,5.48a7.7,7.7,0,0,0-2.27,5.48H536.5v7.56A7.76,7.76,0,0,0,531,125.9l-5.48,5.48,5.48,5.49a7.76,7.76,0,0,0,5.48,2.27v7.56h7.57a7.68,7.68,0,0,0,2.27,5.48l5.48,5.48,5.48-5.48a7.68,7.68,0,0,0,2.27-5.48h7.56v-7.56a7.76,7.76,0,0,0,5.49-2.27l5.47-5.49Zm-1.19,9.78a6.07,6.07,0,0,1-4.3,1.78h-1.68V145h-7.56v1.68a6,6,0,0,1-1.78,4.29l-4.29,4.3-4.29-4.3a6,6,0,0,1-1.78-4.29V145h-7.57v-7.56H536.5a6.06,6.06,0,0,1-4.29-1.78l-4.29-4.3,4.29-4.28a6,6,0,0,1,4.29-1.78h1.68v-7.57h7.57v-1.68a6,6,0,0,1,1.78-4.3l4.29-4.28,4.29,4.29a6,6,0,0,1,1.78,4.29v1.68h7.56v7.57h1.68a6,6,0,0,1,4.3,1.78l4.29,4.28Z" transform="translate(0 0)"/><path class="cls-4" d="M625.17,125.9a7.74,7.74,0,0,0-5.48-2.27v-7.56h-7.57a7.7,7.7,0,0,0-2.27-5.48l-5.48-5.48-5.48,5.48a7.74,7.74,0,0,0-2.27,5.48h-7.56v7.56a7.72,7.72,0,0,0-5.48,2.27l-5.49,5.48,5.49,5.49a7.72,7.72,0,0,0,5.48,2.27v7.56h7.56a7.72,7.72,0,0,0,2.27,5.48l5.48,5.48,5.48-5.48a7.68,7.68,0,0,0,2.27-5.48h7.57v-7.56a7.74,7.74,0,0,0,5.48-2.27l5.48-5.49ZM624,135.68a6,6,0,0,1-4.29,1.78H618V145h-7.57v1.68a6.05,6.05,0,0,1-1.77,4.29l-4.3,4.3-4.29-4.3a6.05,6.05,0,0,1-1.77-4.29V145h-7.57v-7.56h-1.68a6,6,0,0,1-4.29-1.78l-4.3-4.3,4.29-4.28a6,6,0,0,1,4.3-1.78h1.68v-7.57h7.57v-1.68a6.08,6.08,0,0,1,1.77-4.3l4.29-4.28,4.29,4.29a6,6,0,0,1,1.78,4.29v1.68H618v7.57h1.68A6,6,0,0,1,624,127.1l4.29,4.28Z" transform="translate(0 0)"/><path class="cls-4" d="M572.62,178.46a7.76,7.76,0,0,0-5.49-2.27v-7.57h-7.56a7.71,7.71,0,0,0-2.27-5.48l-5.48-5.48-5.48,5.48a7.71,7.71,0,0,0-2.27,5.48H536.5v7.57a7.76,7.76,0,0,0-5.48,2.27l-5.48,5.48,5.48,5.48a7.76,7.76,0,0,0,5.48,2.27v7.56h7.57a7.68,7.68,0,0,0,2.27,5.48l5.48,5.49,5.48-5.49a7.68,7.68,0,0,0,2.27-5.48h7.56v-7.56a7.76,7.76,0,0,0,5.49-2.27l5.47-5.48Zm-1.19,9.77a6,6,0,0,1-4.3,1.78h-1.68v7.56h-7.56v1.68a6,6,0,0,1-1.78,4.29l-4.29,4.3-4.29-4.3a6,6,0,0,1-1.78-4.29v-1.68h-7.57V190H536.5a6,6,0,0,1-4.29-1.78l-4.29-4.29,4.29-4.29a6,6,0,0,1,4.29-1.78h1.68v-7.56h7.57v-1.69a6,6,0,0,1,1.78-4.29l4.29-4.29,4.29,4.29a6,6,0,0,1,1.78,4.29v1.69h7.56v7.56h1.68a6,6,0,0,1,4.3,1.78l4.29,4.29Z" transform="translate(0 0)"/><path class="cls-4" d="M625.17,178.46a7.74,7.74,0,0,0-5.48-2.27v-7.57h-7.57a7.71,7.71,0,0,0-2.27-5.48l-5.48-5.48-5.48,5.48a7.76,7.76,0,0,0-2.27,5.48h-7.56v7.57a7.72,7.72,0,0,0-5.48,2.27l-5.49,5.48,5.49,5.48a7.72,7.72,0,0,0,5.48,2.27v7.56h7.56a7.72,7.72,0,0,0,2.27,5.48l5.48,5.49,5.48-5.49a7.68,7.68,0,0,0,2.27-5.48h7.57v-7.56a7.74,7.74,0,0,0,5.48-2.27l5.48-5.48ZM624,188.23a6,6,0,0,1-4.29,1.78H618v7.56h-7.57v1.68a6,6,0,0,1-1.77,4.29l-4.3,4.3-4.29-4.3a6,6,0,0,1-1.77-4.29v-1.68h-7.57V190h-1.68a6,6,0,0,1-4.29-1.78l-4.3-4.29,4.29-4.29a6,6,0,0,1,4.3-1.78h1.68v-7.56h7.57v-1.69a6.05,6.05,0,0,1,1.77-4.29l4.29-4.29,4.29,4.29a6,6,0,0,1,1.78,4.29v1.69H618v7.56h1.68a6,6,0,0,1,4.29,1.78l4.29,4.29Z" transform="translate(0 0)"/><path class="cls-4" d="M677.72,20.8a7.7,7.7,0,0,0-5.48-2.27V11h-7.56a7.76,7.76,0,0,0-2.27-5.48L656.93,0l-5.48,5.48A7.71,7.71,0,0,0,649.18,11h-7.57v7.57a7.7,7.7,0,0,0-5.48,2.27l-5.48,5.48,5.48,5.48A7.74,7.74,0,0,0,641.61,34v7.56h7.57a7.68,7.68,0,0,0,2.27,5.48l5.48,5.48,5.48-5.48a7.72,7.72,0,0,0,2.27-5.48h7.56V34a7.74,7.74,0,0,0,5.48-2.27l5.48-5.48Zm-1.19,9.77a6,6,0,0,1-4.29,1.78h-1.68v7.56H663v1.68a6,6,0,0,1-1.78,4.29l-4.29,4.3-4.29-4.3a6,6,0,0,1-1.78-4.29V39.91h-7.57V32.35h-1.68a6,6,0,0,1-4.29-1.78L633,26.28,637.32,22a6,6,0,0,1,4.29-1.78h1.68V12.64h7.57V11a6,6,0,0,1,1.78-4.29l4.29-4.29,4.29,4.29A6,6,0,0,1,663,11v1.68h7.56v7.57h1.68A6,6,0,0,1,676.53,22l4.3,4.29Z" transform="translate(0 0)"/><path class="cls-4" d="M677.72,73.35a7.74,7.74,0,0,0-5.48-2.27V63.52h-7.56A7.76,7.76,0,0,0,662.41,58l-5.48-5.48L651.45,58a7.72,7.72,0,0,0-2.27,5.49h-7.57v7.56a7.74,7.74,0,0,0-5.48,2.27l-5.48,5.48,5.48,5.48a7.74,7.74,0,0,0,5.48,2.27v7.57h7.57a7.71,7.71,0,0,0,2.27,5.48l5.48,5.48,5.48-5.48a7.76,7.76,0,0,0,2.27-5.48h7.56V86.58a7.74,7.74,0,0,0,5.48-2.27l5.48-5.48Zm-1.19,9.77a6,6,0,0,1-4.29,1.78h-1.68v7.56H663v1.69a6,6,0,0,1-1.78,4.28l-4.29,4.3-4.29-4.3a6,6,0,0,1-1.78-4.28V92.46h-7.57V84.9h-1.68a6,6,0,0,1-4.29-1.78L633,78.83l4.29-4.29a6,6,0,0,1,4.29-1.78h1.68V65.2h7.57V63.52a6,6,0,0,1,1.78-4.3l4.29-4.29,4.29,4.29a6.07,6.07,0,0,1,1.78,4.3V65.2h7.56v7.56h1.68a6,6,0,0,1,4.29,1.78l4.3,4.29Z" transform="translate(0 0)"/><path class="cls-4" d="M677.72,125.9a7.74,7.74,0,0,0-5.48-2.27v-7.56h-7.56a7.74,7.74,0,0,0-2.27-5.48l-5.48-5.48-5.48,5.48a7.7,7.7,0,0,0-2.27,5.48h-7.57v7.56a7.74,7.74,0,0,0-5.48,2.27l-5.48,5.48,5.48,5.49a7.74,7.74,0,0,0,5.48,2.27v7.56h7.57a7.68,7.68,0,0,0,2.27,5.48l5.48,5.48,5.48-5.48a7.72,7.72,0,0,0,2.27-5.48h7.56v-7.56a7.74,7.74,0,0,0,5.48-2.27l5.48-5.49Zm-1.19,9.78a6,6,0,0,1-4.29,1.78h-1.68V145H663v1.68a6.06,6.06,0,0,1-1.78,4.29l-4.29,4.3-4.29-4.3a6,6,0,0,1-1.78-4.29V145h-7.57v-7.56h-1.68a6.06,6.06,0,0,1-4.29-1.78l-4.29-4.3,4.29-4.28a6,6,0,0,1,4.29-1.78h1.68v-7.57h7.57v-1.68a6,6,0,0,1,1.78-4.3l4.29-4.28,4.29,4.29a6,6,0,0,1,1.78,4.29v1.68h7.56v7.57h1.68a6,6,0,0,1,4.29,1.78l4.3,4.28Z" transform="translate(0 0)"/><path class="cls-4" d="M677.72,178.46a7.74,7.74,0,0,0-5.48-2.27v-7.57h-7.56a7.76,7.76,0,0,0-2.27-5.48l-5.48-5.48-5.48,5.48a7.71,7.71,0,0,0-2.27,5.48h-7.57v7.57a7.74,7.74,0,0,0-5.48,2.27l-5.48,5.48,5.48,5.48a7.74,7.74,0,0,0,5.48,2.27v7.56h7.57a7.68,7.68,0,0,0,2.27,5.48l5.48,5.49,5.48-5.49a7.72,7.72,0,0,0,2.27-5.48h7.56v-7.56a7.74,7.74,0,0,0,5.48-2.27l5.48-5.48Zm-1.19,9.77a6,6,0,0,1-4.29,1.78h-1.68v7.56H663v1.68a6,6,0,0,1-1.78,4.29l-4.29,4.3-4.29-4.3a6,6,0,0,1-1.78-4.29v-1.68h-7.57V190h-1.68a6,6,0,0,1-4.29-1.78L633,183.94l4.29-4.29a6,6,0,0,1,4.29-1.78h1.68v-7.56h7.57v-1.69a6,6,0,0,1,1.78-4.29l4.29-4.29,4.29,4.29a6.06,6.06,0,0,1,1.78,4.29v1.69h7.56v7.56h1.68a6,6,0,0,1,4.29,1.78l4.3,4.29Z" transform="translate(0 0)"/><path class="cls-4" d="M47.08,231a7.76,7.76,0,0,0-5.49-2.27v-7.56H34a7.72,7.72,0,0,0-2.27-5.48l-5.48-5.48L20.8,215.7a7.68,7.68,0,0,0-2.27,5.48H11v7.56A7.76,7.76,0,0,0,5.48,231L0,236.49,5.48,242A7.73,7.73,0,0,0,11,244.25v7.56h7.57a7.7,7.7,0,0,0,2.27,5.48l5.48,5.48,5.48-5.48A7.74,7.74,0,0,0,34,251.81h7.56v-7.56A7.73,7.73,0,0,0,47.08,242l5.47-5.48Zm-1.2,9.77a6,6,0,0,1-4.29,1.78H39.91v7.57H32.35v1.68a6,6,0,0,1-1.78,4.29l-4.29,4.29L22,256.1a6,6,0,0,1-1.78-4.29v-1.68H12.64v-7.57H11a6,6,0,0,1-4.29-1.78l-4.29-4.29,4.29-4.29A6,6,0,0,1,11,230.42h1.68v-7.56h7.57v-1.68a6,6,0,0,1,1.78-4.3l4.29-4.29,4.29,4.3a6,6,0,0,1,1.78,4.29v1.68h7.56v7.56h1.68a6,6,0,0,1,4.29,1.78l4.3,4.29Z" transform="translate(0 0)"/><path class="cls-4" d="M99.63,231a7.74,7.74,0,0,0-5.48-2.27v-7.56H86.58a7.68,7.68,0,0,0-2.27-5.48l-5.48-5.48-5.48,5.48a7.72,7.72,0,0,0-2.27,5.48H63.52v7.56A7.72,7.72,0,0,0,58,231l-5.49,5.48L58,242a7.69,7.69,0,0,0,5.48,2.28v7.56h7.56a7.74,7.74,0,0,0,2.27,5.48l5.48,5.48,5.48-5.48a7.7,7.7,0,0,0,2.27-5.48h7.57v-7.56A7.71,7.71,0,0,0,99.63,242l5.48-5.48Zm-1.19,9.77a6,6,0,0,1-4.29,1.78H92.46v7.57H84.9v1.68a6.05,6.05,0,0,1-1.77,4.29l-4.3,4.29-4.29-4.29a6.05,6.05,0,0,1-1.77-4.29v-1.68H65.2v-7.57H63.52a6,6,0,0,1-4.29-1.78l-4.3-4.29,4.29-4.29a6,6,0,0,1,4.3-1.78H65.2v-7.56h7.57v-1.68a6.08,6.08,0,0,1,1.77-4.3l4.29-4.29,4.29,4.3a6,6,0,0,1,1.78,4.29v1.68h7.56v7.56h1.69a6,6,0,0,1,4.29,1.78l4.29,4.29Z" transform="translate(0 0)"/><path class="cls-4" d="M47.08,283.57a7.72,7.72,0,0,0-5.49-2.27v-7.57H34a7.76,7.76,0,0,0-2.27-5.48l-5.48-5.48-5.48,5.48a7.71,7.71,0,0,0-2.27,5.48H11v7.57a7.71,7.71,0,0,0-5.48,2.27L0,289.05l5.48,5.48A7.76,7.76,0,0,0,11,296.8v7.56h7.57a7.68,7.68,0,0,0,2.27,5.48l5.48,5.48,5.48-5.48A7.72,7.72,0,0,0,34,304.36h7.56V296.8a7.76,7.76,0,0,0,5.49-2.27l5.47-5.48Zm-1.2,9.77a6,6,0,0,1-4.29,1.78H39.91v7.56H32.35v1.68a6,6,0,0,1-1.78,4.29L26.28,313,22,308.65a6,6,0,0,1-1.78-4.29v-1.68H12.64v-7.56H11a6,6,0,0,1-4.29-1.78l-4.29-4.29,4.29-4.29A6,6,0,0,1,11,283h1.68v-7.57h7.57v-1.68A6,6,0,0,1,22,269.44l4.29-4.29,4.29,4.29a6,6,0,0,1,1.78,4.29v1.68h7.56V283h1.68a6,6,0,0,1,4.29,1.78l4.3,4.29Z" transform="translate(0 0)"/><path class="cls-4" d="M99.63,283.57a7.7,7.7,0,0,0-5.48-2.27v-7.57H86.58a7.71,7.71,0,0,0-2.27-5.48l-5.48-5.48-5.48,5.48a7.76,7.76,0,0,0-2.27,5.48H63.52v7.57A7.68,7.68,0,0,0,58,283.57l-5.49,5.48L58,294.53a7.72,7.72,0,0,0,5.48,2.27v7.56h7.56a7.72,7.72,0,0,0,2.27,5.48l5.48,5.48,5.48-5.48a7.68,7.68,0,0,0,2.27-5.48h7.57V296.8a7.74,7.74,0,0,0,5.48-2.27l5.48-5.48Zm-1.19,9.77a6,6,0,0,1-4.29,1.78H92.46v7.56H84.9v1.68a6,6,0,0,1-1.77,4.29l-4.3,4.3-4.29-4.3a6,6,0,0,1-1.77-4.29v-1.68H65.2v-7.56H63.52a6,6,0,0,1-4.29-1.78l-4.3-4.29,4.29-4.29a6,6,0,0,1,4.3-1.78H65.2v-7.57h7.57v-1.68a6,6,0,0,1,1.77-4.29l4.29-4.29,4.29,4.29a6,6,0,0,1,1.78,4.29v1.68h7.56V283h1.69a6,6,0,0,1,4.29,1.78l4.29,4.29Z" transform="translate(0 0)"/><path class="cls-4" d="M152.18,231a7.74,7.74,0,0,0-5.48-2.27v-7.56h-7.56a7.72,7.72,0,0,0-2.27-5.48l-5.48-5.48-5.49,5.48a7.71,7.71,0,0,0-2.26,5.48h-7.57v7.56a7.74,7.74,0,0,0-5.48,2.27l-5.48,5.48,5.48,5.48a7.71,7.71,0,0,0,5.48,2.28v7.56h7.57a7.73,7.73,0,0,0,2.26,5.48l5.49,5.48,5.48-5.48a7.74,7.74,0,0,0,2.27-5.48h7.56v-7.56a7.71,7.71,0,0,0,5.48-2.28l5.48-5.48ZM151,240.78a6,6,0,0,1-4.29,1.78H145v7.57h-7.57v1.68a6.05,6.05,0,0,1-1.77,4.29l-4.29,4.29-4.3-4.29a6.05,6.05,0,0,1-1.77-4.29v-1.68h-7.57v-7.57h-1.68a6,6,0,0,1-4.29-1.78l-4.3-4.29,4.3-4.29a6,6,0,0,1,4.29-1.78h1.68v-7.56h7.57v-1.68a6.08,6.08,0,0,1,1.77-4.3l4.3-4.29,4.29,4.3a6,6,0,0,1,1.77,4.29v1.68H145v7.56h1.68A6,6,0,0,1,151,232.2l4.29,4.29Z" transform="translate(0 0)"/><path class="cls-4" d="M204.74,231a7.76,7.76,0,0,0-5.49-2.27v-7.56h-7.56a7.68,7.68,0,0,0-2.27-5.48l-5.48-5.48-5.48,5.48a7.72,7.72,0,0,0-2.27,5.48h-7.57v7.56a7.76,7.76,0,0,0-5.48,2.27l-5.48,5.48,5.48,5.48a7.73,7.73,0,0,0,5.48,2.28v7.56h7.57a7.74,7.74,0,0,0,2.27,5.48l5.48,5.48,5.48-5.48a7.7,7.7,0,0,0,2.27-5.48h7.56v-7.56a7.73,7.73,0,0,0,5.49-2.28l5.48-5.48Zm-1.19,9.77a6,6,0,0,1-4.3,1.78h-1.68v7.57H190v1.68a6,6,0,0,1-1.78,4.29l-4.29,4.29-4.29-4.29a6,6,0,0,1-1.78-4.29v-1.68h-7.56v-7.57h-1.69a6,6,0,0,1-4.28-1.78l-4.3-4.29,4.29-4.29a6,6,0,0,1,4.29-1.78h1.69v-7.56h7.56v-1.68a6,6,0,0,1,1.78-4.3l4.29-4.29,4.29,4.3a6,6,0,0,1,1.78,4.29v1.68h7.56v7.56h1.68a6,6,0,0,1,4.3,1.78l4.29,4.29Z" transform="translate(0 0)"/><path class="cls-4" d="M152.18,283.57a7.7,7.7,0,0,0-5.48-2.27v-7.57h-7.56a7.76,7.76,0,0,0-2.27-5.48l-5.48-5.48-5.49,5.48a7.75,7.75,0,0,0-2.26,5.48h-7.57v7.57a7.7,7.7,0,0,0-5.48,2.27l-5.48,5.48,5.48,5.48a7.74,7.74,0,0,0,5.48,2.27v7.56h7.57a7.71,7.71,0,0,0,2.26,5.48l5.49,5.48,5.48-5.48a7.72,7.72,0,0,0,2.27-5.48h7.56V296.8a7.74,7.74,0,0,0,5.48-2.27l5.48-5.48ZM151,293.34a6,6,0,0,1-4.29,1.78H145v7.56h-7.57v1.68a6,6,0,0,1-1.77,4.29l-4.29,4.3-4.3-4.3a6,6,0,0,1-1.77-4.29v-1.68h-7.57v-7.56h-1.68a6,6,0,0,1-4.29-1.78l-4.3-4.29,4.3-4.29a6,6,0,0,1,4.29-1.78h1.68v-7.57h7.57v-1.68a6,6,0,0,1,1.77-4.29l4.3-4.29,4.29,4.29a6,6,0,0,1,1.77,4.29v1.68H145V283h1.68a6,6,0,0,1,4.29,1.78l4.29,4.29Z" transform="translate(0 0)"/><path class="cls-4" d="M204.74,283.57a7.72,7.72,0,0,0-5.49-2.27v-7.57h-7.56a7.71,7.71,0,0,0-2.27-5.48l-5.48-5.48-5.48,5.48a7.76,7.76,0,0,0-2.27,5.48h-7.57v7.57a7.71,7.71,0,0,0-5.48,2.27l-5.48,5.48,5.48,5.48a7.76,7.76,0,0,0,5.48,2.27v7.56h7.57a7.72,7.72,0,0,0,2.27,5.48l5.48,5.48,5.48-5.48a7.68,7.68,0,0,0,2.27-5.48h7.56V296.8a7.76,7.76,0,0,0,5.49-2.27l5.48-5.48Zm-1.19,9.77a6,6,0,0,1-4.3,1.78h-1.68v7.56H190v1.68a6,6,0,0,1-1.78,4.29l-4.29,4.3-4.29-4.3a6,6,0,0,1-1.78-4.29v-1.68h-7.56v-7.56h-1.69a6,6,0,0,1-4.28-1.78l-4.3-4.29,4.29-4.29a6,6,0,0,1,4.29-1.78h1.69v-7.57h7.56v-1.68a6,6,0,0,1,1.78-4.29l4.29-4.29,4.29,4.29a6,6,0,0,1,1.78,4.29v1.68h7.56V283h1.68a6,6,0,0,1,4.3,1.78l4.29,4.29Z" transform="translate(0 0)"/><path class="cls-4" d="M47.08,336.12a7.76,7.76,0,0,0-5.49-2.27v-7.56H34a7.76,7.76,0,0,0-2.27-5.49l-5.48-5.48L20.8,320.8a7.72,7.72,0,0,0-2.27,5.49H11v7.56a7.76,7.76,0,0,0-5.48,2.27L0,341.6l5.48,5.48A7.76,7.76,0,0,0,11,349.35v7.57h7.57a7.71,7.71,0,0,0,2.27,5.48l5.48,5.48,5.48-5.48A7.76,7.76,0,0,0,34,356.92h7.56v-7.57a7.76,7.76,0,0,0,5.49-2.27l5.47-5.48Zm-1.2,9.77a6,6,0,0,1-4.29,1.78H39.91v7.56H32.35v1.69a6,6,0,0,1-1.78,4.28l-4.29,4.3L22,361.2a6,6,0,0,1-1.78-4.28v-1.69H12.64v-7.56H11a6,6,0,0,1-4.29-1.78L2.38,341.6l4.29-4.29A6,6,0,0,1,11,335.53h1.68V328h7.57v-1.68A6,6,0,0,1,22,322l4.29-4.29L30.57,322a6,6,0,0,1,1.78,4.3V328h7.56v7.56h1.68a6,6,0,0,1,4.29,1.78l4.3,4.29Z" transform="translate(0 0)"/><path class="cls-4" d="M99.63,336.12a7.74,7.74,0,0,0-5.48-2.27v-7.56H86.58a7.72,7.72,0,0,0-2.27-5.49l-5.48-5.48-5.48,5.48a7.76,7.76,0,0,0-2.27,5.49H63.52v7.56A7.72,7.72,0,0,0,58,336.12l-5.49,5.48L58,347.08a7.72,7.72,0,0,0,5.48,2.27v7.57h7.56a7.76,7.76,0,0,0,2.27,5.48l5.48,5.48,5.48-5.48a7.71,7.71,0,0,0,2.27-5.48h7.57v-7.57a7.74,7.74,0,0,0,5.48-2.27l5.48-5.48Zm-1.19,9.77a6,6,0,0,1-4.29,1.78H92.46v7.56H84.9v1.69a6,6,0,0,1-1.77,4.28l-4.3,4.3-4.29-4.3a6,6,0,0,1-1.77-4.28v-1.69H65.2v-7.56H63.52a6,6,0,0,1-4.29-1.78l-4.3-4.29,4.29-4.29a6,6,0,0,1,4.3-1.78H65.2V328h7.57v-1.68a6.06,6.06,0,0,1,1.77-4.3l4.29-4.29L83.12,322a6,6,0,0,1,1.78,4.3V328h7.56v7.56h1.69a6,6,0,0,1,4.29,1.78l4.29,4.29Z" transform="translate(0 0)"/><path class="cls-4" d="M47.08,388.67a7.76,7.76,0,0,0-5.49-2.27v-7.56H34a7.74,7.74,0,0,0-2.27-5.48l-5.48-5.48-5.48,5.48a7.7,7.7,0,0,0-2.27,5.48H11v7.56a7.76,7.76,0,0,0-5.48,2.27L0,394.15l5.48,5.49A7.76,7.76,0,0,0,11,401.91v7.56h7.57A7.68,7.68,0,0,0,20.8,415l5.48,5.48L31.76,415A7.72,7.72,0,0,0,34,409.47h7.56v-7.56a7.76,7.76,0,0,0,5.49-2.27l5.47-5.49Zm-1.2,9.78a6,6,0,0,1-4.29,1.78H39.91v7.56H32.35v1.68a6,6,0,0,1-1.78,4.29l-4.29,4.3L22,413.76a6,6,0,0,1-1.78-4.29v-1.68H12.64v-7.56H11a6.06,6.06,0,0,1-4.29-1.78l-4.29-4.3,4.29-4.28A6,6,0,0,1,11,388.09h1.68v-7.57h7.57v-1.68a6,6,0,0,1,1.78-4.3l4.29-4.28,4.29,4.29a6,6,0,0,1,1.78,4.29v1.68h7.56v7.57h1.68a6,6,0,0,1,4.29,1.78l4.3,4.28Z" transform="translate(0 0)"/><path class="cls-4" d="M99.63,388.67a7.74,7.74,0,0,0-5.48-2.27v-7.56H86.58a7.7,7.7,0,0,0-2.27-5.48l-5.48-5.48-5.48,5.48a7.74,7.74,0,0,0-2.27,5.48H63.52v7.56A7.72,7.72,0,0,0,58,388.67l-5.49,5.48L58,399.64a7.72,7.72,0,0,0,5.48,2.27v7.56h7.56A7.72,7.72,0,0,0,73.35,415l5.48,5.48L84.31,415a7.68,7.68,0,0,0,2.27-5.48h7.57v-7.56a7.74,7.74,0,0,0,5.48-2.27l5.48-5.49Zm-1.19,9.78a6.06,6.06,0,0,1-4.29,1.78H92.46v7.56H84.9v1.68a6.05,6.05,0,0,1-1.77,4.29l-4.3,4.3-4.29-4.3a6.05,6.05,0,0,1-1.77-4.29v-1.68H65.2v-7.56H63.52a6,6,0,0,1-4.29-1.78l-4.3-4.3,4.29-4.28a6,6,0,0,1,4.3-1.78H65.2v-7.57h7.57v-1.68a6.08,6.08,0,0,1,1.77-4.3l4.29-4.28,4.29,4.29a6,6,0,0,1,1.78,4.29v1.68h7.56v7.57h1.69a6,6,0,0,1,4.29,1.78l4.29,4.28Z" transform="translate(0 0)"/><path class="cls-4" d="M152.18,336.12a7.74,7.74,0,0,0-5.48-2.27v-7.56h-7.56a7.76,7.76,0,0,0-2.27-5.49l-5.48-5.48-5.49,5.48a7.75,7.75,0,0,0-2.26,5.49h-7.57v7.56a7.74,7.74,0,0,0-5.48,2.27l-5.48,5.48,5.48,5.48a7.74,7.74,0,0,0,5.48,2.27v7.57h7.57a7.75,7.75,0,0,0,2.26,5.48l5.49,5.48,5.48-5.48a7.76,7.76,0,0,0,2.27-5.48h7.56v-7.57a7.74,7.74,0,0,0,5.48-2.27l5.48-5.48ZM151,345.89a6,6,0,0,1-4.29,1.78H145v7.56h-7.57v1.69a6,6,0,0,1-1.77,4.28l-4.29,4.3-4.3-4.3a6,6,0,0,1-1.77-4.28v-1.69h-7.57v-7.56h-1.68a6,6,0,0,1-4.29-1.78l-4.3-4.29,4.3-4.29a6,6,0,0,1,4.29-1.78h1.68V328h7.57v-1.68a6.06,6.06,0,0,1,1.77-4.3l4.3-4.29,4.29,4.29a6.06,6.06,0,0,1,1.77,4.3V328H145v7.56h1.68a6,6,0,0,1,4.29,1.78l4.29,4.29Z" transform="translate(0 0)"/><path class="cls-4" d="M204.74,336.12a7.76,7.76,0,0,0-5.49-2.27v-7.56h-7.56a7.72,7.72,0,0,0-2.27-5.49l-5.48-5.48-5.48,5.48a7.76,7.76,0,0,0-2.27,5.49h-7.57v7.56a7.76,7.76,0,0,0-5.48,2.27l-5.48,5.48,5.48,5.48a7.76,7.76,0,0,0,5.48,2.27v7.57h7.57a7.76,7.76,0,0,0,2.27,5.48l5.48,5.48,5.48-5.48a7.71,7.71,0,0,0,2.27-5.48h7.56v-7.57a7.76,7.76,0,0,0,5.49-2.27l5.48-5.48Zm-1.19,9.77a6,6,0,0,1-4.3,1.78h-1.68v7.56H190v1.69a6,6,0,0,1-1.78,4.28l-4.29,4.3-4.29-4.3a6,6,0,0,1-1.78-4.28v-1.69h-7.56v-7.56h-1.69a6,6,0,0,1-4.28-1.78L160,341.6l4.29-4.29a6,6,0,0,1,4.29-1.78h1.69V328h7.56v-1.68a6,6,0,0,1,1.78-4.3l4.29-4.29,4.29,4.29a6,6,0,0,1,1.78,4.3V328h7.56v7.56h1.68a6,6,0,0,1,4.3,1.78l4.29,4.29Z" transform="translate(0 0)"/><path class="cls-4" d="M152.18,388.67a7.74,7.74,0,0,0-5.48-2.27v-7.56h-7.56a7.74,7.74,0,0,0-2.27-5.48l-5.48-5.48-5.49,5.48a7.73,7.73,0,0,0-2.26,5.48h-7.57v7.56a7.74,7.74,0,0,0-5.48,2.27l-5.48,5.48,5.48,5.49a7.74,7.74,0,0,0,5.48,2.27v7.56h7.57A7.71,7.71,0,0,0,125.9,415l5.49,5.48,5.48-5.48a7.72,7.72,0,0,0,2.27-5.48h7.56v-7.56a7.74,7.74,0,0,0,5.48-2.27l5.48-5.49ZM151,398.45a6,6,0,0,1-4.29,1.78H145v7.56h-7.57v1.68a6.05,6.05,0,0,1-1.77,4.29l-4.29,4.3-4.3-4.3a6.05,6.05,0,0,1-1.77-4.29v-1.68h-7.57v-7.56h-1.68a6.06,6.06,0,0,1-4.29-1.78l-4.3-4.3,4.3-4.28a6,6,0,0,1,4.29-1.78h1.68v-7.57h7.57v-1.68a6.08,6.08,0,0,1,1.77-4.3l4.3-4.28,4.29,4.29a6,6,0,0,1,1.77,4.29v1.68H145v7.57h1.68a6,6,0,0,1,4.29,1.78l4.29,4.28Z" transform="translate(0 0)"/><path class="cls-4" d="M204.74,388.67a7.76,7.76,0,0,0-5.49-2.27v-7.56h-7.56a7.7,7.7,0,0,0-2.27-5.48l-5.48-5.48-5.48,5.48a7.74,7.74,0,0,0-2.27,5.48h-7.57v7.56a7.76,7.76,0,0,0-5.48,2.27l-5.48,5.48,5.48,5.49a7.76,7.76,0,0,0,5.48,2.27v7.56h7.57a7.72,7.72,0,0,0,2.27,5.48l5.48,5.48,5.48-5.48a7.68,7.68,0,0,0,2.27-5.48h7.56v-7.56a7.76,7.76,0,0,0,5.49-2.27l5.48-5.49Zm-1.19,9.78a6.07,6.07,0,0,1-4.3,1.78h-1.68v7.56H190v1.68a6,6,0,0,1-1.78,4.29l-4.29,4.3-4.29-4.3a6,6,0,0,1-1.78-4.29v-1.68h-7.56v-7.56h-1.69a6,6,0,0,1-4.28-1.78l-4.3-4.3,4.29-4.28a6,6,0,0,1,4.29-1.78h1.69v-7.57h7.56v-1.68a6,6,0,0,1,1.78-4.3l4.29-4.28,4.29,4.29a6,6,0,0,1,1.78,4.29v1.68h7.56v7.57h1.68a6,6,0,0,1,4.3,1.78l4.29,4.28Z" transform="translate(0 0)"/><path class="cls-4" d="M257.29,231a7.74,7.74,0,0,0-5.48-2.27v-7.56h-7.56A7.69,7.69,0,0,0,242,215.7l-5.47-5.48L231,215.7a7.71,7.71,0,0,0-2.26,5.48h-7.57v7.56A7.74,7.74,0,0,0,215.7,231l-5.48,5.48L215.7,242a7.71,7.71,0,0,0,5.48,2.28v7.56h7.57a7.73,7.73,0,0,0,2.26,5.48l5.49,5.48,5.47-5.48a7.71,7.71,0,0,0,2.28-5.48h7.56v-7.56a7.71,7.71,0,0,0,5.48-2.28l5.48-5.48Zm-1.19,9.77a6,6,0,0,1-4.29,1.78h-1.68v7.57h-7.57v1.68a6.05,6.05,0,0,1-1.77,4.29l-4.29,4.29-4.3-4.29a6.05,6.05,0,0,1-1.77-4.29v-1.68h-7.57v-7.57h-1.68a6,6,0,0,1-4.29-1.78l-4.3-4.29,4.3-4.29a6,6,0,0,1,4.29-1.78h1.68v-7.56h7.57v-1.68a6.08,6.08,0,0,1,1.77-4.3l4.3-4.29,4.28,4.3a6,6,0,0,1,1.78,4.29v1.68h7.57v7.56h1.68a6,6,0,0,1,4.29,1.78l4.29,4.29Z" transform="translate(0 0)"/><path class="cls-4" d="M309.85,231a7.76,7.76,0,0,0-5.49-2.27v-7.56H296.8a7.68,7.68,0,0,0-2.27-5.48l-5.48-5.48-5.48,5.48a7.68,7.68,0,0,0-2.27,5.48h-7.57v7.56a7.76,7.76,0,0,0-5.48,2.27l-5.48,5.48,5.48,5.48a7.73,7.73,0,0,0,5.48,2.28v7.56h7.57a7.7,7.7,0,0,0,2.27,5.48l5.48,5.48,5.48-5.48a7.7,7.7,0,0,0,2.27-5.48h7.56v-7.56a7.73,7.73,0,0,0,5.49-2.28l5.47-5.48Zm-1.19,9.77a6,6,0,0,1-4.3,1.78h-1.68v7.57h-7.56v1.68a6,6,0,0,1-1.78,4.29l-4.29,4.29-4.29-4.29a6,6,0,0,1-1.78-4.29v-1.68h-7.57v-7.57h-1.68a6,6,0,0,1-4.29-1.78l-4.29-4.29,4.29-4.29a6,6,0,0,1,4.29-1.78h1.68v-7.56H283v-1.68a6,6,0,0,1,1.78-4.3l4.29-4.29,4.29,4.3a6,6,0,0,1,1.78,4.29v1.68h7.56v7.56h1.68a6,6,0,0,1,4.3,1.78l4.29,4.29Z" transform="translate(0 0)"/><path class="cls-4" d="M257.29,283.57a7.7,7.7,0,0,0-5.48-2.27v-7.57h-7.56a7.73,7.73,0,0,0-2.28-5.48l-5.47-5.48L231,268.25a7.75,7.75,0,0,0-2.26,5.48h-7.57v7.57a7.7,7.7,0,0,0-5.48,2.27l-5.48,5.48,5.48,5.48a7.74,7.74,0,0,0,5.48,2.27v7.56h7.57a7.71,7.71,0,0,0,2.26,5.48l5.49,5.48,5.47-5.48a7.69,7.69,0,0,0,2.28-5.48h7.56V296.8a7.74,7.74,0,0,0,5.48-2.27l5.48-5.48Zm-1.19,9.77a6,6,0,0,1-4.29,1.78h-1.68v7.56h-7.57v1.68a6,6,0,0,1-1.77,4.29L236.5,313l-4.3-4.3a6,6,0,0,1-1.77-4.29v-1.68h-7.57v-7.56h-1.68a6,6,0,0,1-4.29-1.78l-4.3-4.29,4.3-4.29a6,6,0,0,1,4.29-1.78h1.68v-7.57h7.57v-1.68a6,6,0,0,1,1.77-4.29l4.3-4.29,4.28,4.29a6,6,0,0,1,1.78,4.29v1.68h7.57V283h1.68a6,6,0,0,1,4.29,1.78l4.29,4.29Z" transform="translate(0 0)"/><path class="cls-4" d="M309.85,283.57a7.72,7.72,0,0,0-5.49-2.27v-7.57H296.8a7.71,7.71,0,0,0-2.27-5.48l-5.48-5.48-5.48,5.48a7.71,7.71,0,0,0-2.27,5.48h-7.57v7.57a7.71,7.71,0,0,0-5.48,2.27l-5.48,5.48,5.48,5.48a7.76,7.76,0,0,0,5.48,2.27v7.56h7.57a7.68,7.68,0,0,0,2.27,5.48l5.48,5.48,5.48-5.48a7.68,7.68,0,0,0,2.27-5.48h7.56V296.8a7.76,7.76,0,0,0,5.49-2.27l5.47-5.48Zm-1.19,9.77a6,6,0,0,1-4.3,1.78h-1.68v7.56h-7.56v1.68a6,6,0,0,1-1.78,4.29l-4.29,4.3-4.29-4.3a6,6,0,0,1-1.78-4.29v-1.68h-7.57v-7.56h-1.68a6,6,0,0,1-4.29-1.78l-4.29-4.29,4.29-4.29a6,6,0,0,1,4.29-1.78h1.68v-7.57H283v-1.68a6,6,0,0,1,1.78-4.29l4.29-4.29,4.29,4.29a6,6,0,0,1,1.78,4.29v1.68h7.56V283h1.68a6,6,0,0,1,4.3,1.78l4.29,4.29Z" transform="translate(0 0)"/><path class="cls-4" d="M362.4,231a7.74,7.74,0,0,0-5.48-2.27v-7.56h-7.57a7.68,7.68,0,0,0-2.27-5.48l-5.48-5.48-5.48,5.48a7.72,7.72,0,0,0-2.27,5.48h-7.56v7.56a7.72,7.72,0,0,0-5.48,2.27l-5.49,5.48,5.49,5.48a7.69,7.69,0,0,0,5.48,2.28v7.56h7.56a7.74,7.74,0,0,0,2.27,5.48l5.48,5.48,5.48-5.48a7.7,7.7,0,0,0,2.27-5.48h7.57v-7.56A7.71,7.71,0,0,0,362.4,242l5.48-5.48Zm-1.19,9.77a6,6,0,0,1-4.29,1.78h-1.68v7.57h-7.57v1.68a6.05,6.05,0,0,1-1.77,4.29l-4.3,4.29-4.29-4.29a6.05,6.05,0,0,1-1.77-4.29v-1.68H328v-7.57h-1.68a6,6,0,0,1-4.29-1.78l-4.3-4.29L322,232.2a6,6,0,0,1,4.3-1.78H328v-7.56h7.57v-1.68a6.08,6.08,0,0,1,1.77-4.3l4.29-4.29,4.29,4.3a6,6,0,0,1,1.78,4.29v1.68h7.57v7.56h1.68a6,6,0,0,1,4.29,1.78l4.29,4.29Z" transform="translate(0 0)"/><path class="cls-4" d="M415,231a7.74,7.74,0,0,0-5.48-2.27v-7.56h-7.56a7.72,7.72,0,0,0-2.27-5.48l-5.48-5.48-5.48,5.48a7.68,7.68,0,0,0-2.27,5.48h-7.57v7.56a7.74,7.74,0,0,0-5.48,2.27l-5.48,5.48,5.48,5.48a7.71,7.71,0,0,0,5.48,2.28v7.56h7.57a7.7,7.7,0,0,0,2.27,5.48l5.48,5.48,5.48-5.48a7.74,7.74,0,0,0,2.27-5.48h7.56v-7.56A7.71,7.71,0,0,0,415,242l5.48-5.48Zm-1.19,9.77a6,6,0,0,1-4.29,1.78h-1.68v7.57h-7.56v1.68a6.06,6.06,0,0,1-1.78,4.29l-4.29,4.29-4.29-4.29a6,6,0,0,1-1.78-4.29v-1.68h-7.57v-7.57h-1.68a6,6,0,0,1-4.29-1.78l-4.29-4.29,4.29-4.29a6,6,0,0,1,4.29-1.78h1.68v-7.56h7.57v-1.68a6,6,0,0,1,1.78-4.3l4.29-4.29,4.29,4.3a6,6,0,0,1,1.78,4.29v1.68h7.56v7.56h1.68a6,6,0,0,1,4.29,1.78l4.3,4.29Z" transform="translate(0 0)"/><path class="cls-4" d="M362.4,283.57a7.7,7.7,0,0,0-5.48-2.27v-7.57h-7.57a7.71,7.71,0,0,0-2.27-5.48l-5.48-5.48-5.48,5.48a7.76,7.76,0,0,0-2.27,5.48h-7.56v7.57a7.68,7.68,0,0,0-5.48,2.27l-5.49,5.48,5.49,5.48a7.72,7.72,0,0,0,5.48,2.27v7.56h7.56a7.72,7.72,0,0,0,2.27,5.48l5.48,5.48,5.48-5.48a7.68,7.68,0,0,0,2.27-5.48h7.57V296.8a7.74,7.74,0,0,0,5.48-2.27l5.48-5.48Zm-1.19,9.77a6,6,0,0,1-4.29,1.78h-1.68v7.56h-7.57v1.68a6,6,0,0,1-1.77,4.29l-4.3,4.3-4.29-4.3a6,6,0,0,1-1.77-4.29v-1.68H328v-7.56h-1.68a6,6,0,0,1-4.29-1.78l-4.3-4.29,4.29-4.29a6,6,0,0,1,4.3-1.78H328v-7.57h7.57v-1.68a6,6,0,0,1,1.77-4.29l4.29-4.29,4.29,4.29a6,6,0,0,1,1.78,4.29v1.68h7.57V283h1.68a6,6,0,0,1,4.29,1.78l4.29,4.29Z" transform="translate(0 0)"/><path class="cls-4" d="M415,283.57a7.7,7.7,0,0,0-5.48-2.27v-7.57h-7.56a7.76,7.76,0,0,0-2.27-5.48l-5.48-5.48-5.48,5.48a7.71,7.71,0,0,0-2.27,5.48h-7.57v7.57a7.7,7.7,0,0,0-5.48,2.27l-5.48,5.48,5.48,5.48a7.74,7.74,0,0,0,5.48,2.27v7.56h7.57a7.68,7.68,0,0,0,2.27,5.48l5.48,5.48,5.48-5.48a7.72,7.72,0,0,0,2.27-5.48h7.56V296.8a7.74,7.74,0,0,0,5.48-2.27l5.48-5.48Zm-1.19,9.77a6,6,0,0,1-4.29,1.78h-1.68v7.56h-7.56v1.68a6,6,0,0,1-1.78,4.29l-4.29,4.3-4.29-4.3a6,6,0,0,1-1.78-4.29v-1.68h-7.57v-7.56h-1.68a6,6,0,0,1-4.29-1.78l-4.29-4.29,4.29-4.29a6,6,0,0,1,4.29-1.78h1.68v-7.57h7.57v-1.68a6,6,0,0,1,1.78-4.29l4.29-4.29,4.29,4.29a6,6,0,0,1,1.78,4.29v1.68h7.56V283h1.68a6,6,0,0,1,4.29,1.78l4.3,4.29Z" transform="translate(0 0)"/><path class="cls-4" d="M257.29,336.12a7.74,7.74,0,0,0-5.48-2.27v-7.56h-7.56A7.73,7.73,0,0,0,242,320.8l-5.47-5.48L231,320.8a7.75,7.75,0,0,0-2.26,5.49h-7.57v7.56a7.74,7.74,0,0,0-5.48,2.27l-5.48,5.48,5.48,5.48a7.74,7.74,0,0,0,5.48,2.27v7.57h7.57A7.75,7.75,0,0,0,231,362.4l5.49,5.48L242,362.4a7.73,7.73,0,0,0,2.28-5.48h7.56v-7.57a7.74,7.74,0,0,0,5.48-2.27l5.48-5.48Zm-1.19,9.77a6,6,0,0,1-4.29,1.78h-1.68v7.56h-7.57v1.69a6,6,0,0,1-1.77,4.28l-4.29,4.3-4.3-4.3a6,6,0,0,1-1.77-4.28v-1.69h-7.57v-7.56h-1.68a6,6,0,0,1-4.29-1.78l-4.3-4.29,4.3-4.29a6,6,0,0,1,4.29-1.78h1.68V328h7.57v-1.68a6.06,6.06,0,0,1,1.77-4.3l4.3-4.29,4.28,4.29a6,6,0,0,1,1.78,4.3V328h7.57v7.56h1.68a6,6,0,0,1,4.29,1.78l4.29,4.29Z" transform="translate(0 0)"/><path class="cls-4" d="M309.85,336.12a7.76,7.76,0,0,0-5.49-2.27v-7.56H296.8a7.72,7.72,0,0,0-2.27-5.49l-5.48-5.48-5.48,5.48a7.72,7.72,0,0,0-2.27,5.49h-7.57v7.56a7.76,7.76,0,0,0-5.48,2.27l-5.48,5.48,5.48,5.48a7.76,7.76,0,0,0,5.48,2.27v7.57h7.57a7.71,7.71,0,0,0,2.27,5.48l5.48,5.48,5.48-5.48a7.71,7.71,0,0,0,2.27-5.48h7.56v-7.57a7.76,7.76,0,0,0,5.49-2.27l5.47-5.48Zm-1.19,9.77a6,6,0,0,1-4.3,1.78h-1.68v7.56h-7.56v1.69a6,6,0,0,1-1.78,4.28l-4.29,4.3-4.29-4.3a6,6,0,0,1-1.78-4.28v-1.69h-7.57v-7.56h-1.68a6,6,0,0,1-4.29-1.78l-4.29-4.29,4.29-4.29a6,6,0,0,1,4.29-1.78h1.68V328H283v-1.68a6,6,0,0,1,1.78-4.3l4.29-4.29,4.29,4.29a6,6,0,0,1,1.78,4.3V328h7.56v7.56h1.68a6,6,0,0,1,4.3,1.78L313,341.6Z" transform="translate(0 0)"/><path class="cls-4" d="M257.29,388.67a7.74,7.74,0,0,0-5.48-2.27v-7.56h-7.56a7.71,7.71,0,0,0-2.28-5.48l-5.47-5.48L231,373.36a7.73,7.73,0,0,0-2.26,5.48h-7.57v7.56a7.74,7.74,0,0,0-5.48,2.27l-5.48,5.48,5.48,5.49a7.74,7.74,0,0,0,5.48,2.27v7.56h7.57A7.71,7.71,0,0,0,231,415l5.49,5.48L242,415a7.69,7.69,0,0,0,2.28-5.48h7.56v-7.56a7.74,7.74,0,0,0,5.48-2.27l5.48-5.49Zm-1.19,9.78a6,6,0,0,1-4.29,1.78h-1.68v7.56h-7.57v1.68a6.05,6.05,0,0,1-1.77,4.29l-4.29,4.3-4.3-4.3a6.05,6.05,0,0,1-1.77-4.29v-1.68h-7.57v-7.56h-1.68a6,6,0,0,1-4.29-1.78l-4.3-4.3,4.3-4.28a6,6,0,0,1,4.29-1.78h1.68v-7.57h7.57v-1.68a6.08,6.08,0,0,1,1.77-4.3l4.3-4.28,4.28,4.29a6,6,0,0,1,1.78,4.29v1.68h7.57v7.57h1.68a6,6,0,0,1,4.29,1.78l4.29,4.28Z" transform="translate(0 0)"/><path class="cls-4" d="M309.85,388.67a7.76,7.76,0,0,0-5.49-2.27v-7.56H296.8a7.7,7.7,0,0,0-2.27-5.48l-5.48-5.48-5.48,5.48a7.7,7.7,0,0,0-2.27,5.48h-7.57v7.56a7.76,7.76,0,0,0-5.48,2.27l-5.48,5.48,5.48,5.49a7.76,7.76,0,0,0,5.48,2.27v7.56h7.57a7.68,7.68,0,0,0,2.27,5.48l5.48,5.48,5.48-5.48a7.68,7.68,0,0,0,2.27-5.48h7.56v-7.56a7.76,7.76,0,0,0,5.49-2.27l5.47-5.49Zm-1.19,9.78a6.07,6.07,0,0,1-4.3,1.78h-1.68v7.56h-7.56v1.68a6,6,0,0,1-1.78,4.29l-4.29,4.3-4.29-4.3a6,6,0,0,1-1.78-4.29v-1.68h-7.57v-7.56h-1.68a6.06,6.06,0,0,1-4.29-1.78l-4.29-4.3,4.29-4.28a6,6,0,0,1,4.29-1.78h1.68v-7.57H283v-1.68a6,6,0,0,1,1.78-4.3l4.29-4.28,4.29,4.29a6,6,0,0,1,1.78,4.29v1.68h7.56v7.57h1.68a6,6,0,0,1,4.3,1.78l4.29,4.28Z" transform="translate(0 0)"/><path class="cls-4" d="M362.4,336.12a7.74,7.74,0,0,0-5.48-2.27v-7.56h-7.57a7.72,7.72,0,0,0-2.27-5.49l-5.48-5.48-5.48,5.48a7.76,7.76,0,0,0-2.27,5.49h-7.56v7.56a7.72,7.72,0,0,0-5.48,2.27l-5.49,5.48,5.49,5.48a7.72,7.72,0,0,0,5.48,2.27v7.57h7.56a7.76,7.76,0,0,0,2.27,5.48l5.48,5.48,5.48-5.48a7.71,7.71,0,0,0,2.27-5.48h7.57v-7.57a7.74,7.74,0,0,0,5.48-2.27l5.48-5.48Zm-1.19,9.77a6,6,0,0,1-4.29,1.78h-1.68v7.56h-7.57v1.69a6,6,0,0,1-1.77,4.28l-4.3,4.3-4.29-4.3a6,6,0,0,1-1.77-4.28v-1.69H328v-7.56h-1.68a6,6,0,0,1-4.29-1.78l-4.3-4.29,4.29-4.29a6,6,0,0,1,4.3-1.78H328V328h7.57v-1.68a6.06,6.06,0,0,1,1.77-4.3l4.29-4.29,4.29,4.29a6,6,0,0,1,1.78,4.3V328h7.57v7.56h1.68a6,6,0,0,1,4.29,1.78l4.29,4.29Z" transform="translate(0 0)"/><path class="cls-4" d="M415,336.12a7.74,7.74,0,0,0-5.48-2.27v-7.56h-7.56a7.76,7.76,0,0,0-2.27-5.49l-5.48-5.48-5.48,5.48a7.72,7.72,0,0,0-2.27,5.49h-7.57v7.56a7.74,7.74,0,0,0-5.48,2.27l-5.48,5.48,5.48,5.48a7.74,7.74,0,0,0,5.48,2.27v7.57h7.57a7.71,7.71,0,0,0,2.27,5.48l5.48,5.48,5.48-5.48a7.76,7.76,0,0,0,2.27-5.48h7.56v-7.57a7.74,7.74,0,0,0,5.48-2.27l5.48-5.48Zm-1.19,9.77a6,6,0,0,1-4.29,1.78h-1.68v7.56h-7.56v1.69a6,6,0,0,1-1.78,4.28l-4.29,4.3-4.29-4.3a6,6,0,0,1-1.78-4.28v-1.69h-7.57v-7.56h-1.68a6,6,0,0,1-4.29-1.78l-4.29-4.29,4.29-4.29a6,6,0,0,1,4.29-1.78h1.68V328h7.57v-1.68a6,6,0,0,1,1.78-4.3l4.29-4.29,4.29,4.29a6.07,6.07,0,0,1,1.78,4.3V328h7.56v7.56h1.68a6,6,0,0,1,4.29,1.78l4.3,4.29Z" transform="translate(0 0)"/><path class="cls-4" d="M362.4,388.67a7.74,7.74,0,0,0-5.48-2.27v-7.56h-7.57a7.7,7.7,0,0,0-2.27-5.48l-5.48-5.48-5.48,5.48a7.74,7.74,0,0,0-2.27,5.48h-7.56v7.56a7.72,7.72,0,0,0-5.48,2.27l-5.49,5.48,5.49,5.49a7.72,7.72,0,0,0,5.48,2.27v7.56h7.56a7.72,7.72,0,0,0,2.27,5.48l5.48,5.48,5.48-5.48a7.68,7.68,0,0,0,2.27-5.48h7.57v-7.56a7.74,7.74,0,0,0,5.48-2.27l5.48-5.49Zm-1.19,9.78a6,6,0,0,1-4.29,1.78h-1.68v7.56h-7.57v1.68a6.05,6.05,0,0,1-1.77,4.29l-4.3,4.3-4.29-4.3a6.05,6.05,0,0,1-1.77-4.29v-1.68H328v-7.56h-1.68a6,6,0,0,1-4.29-1.78l-4.3-4.3,4.29-4.28a6,6,0,0,1,4.3-1.78H328v-7.57h7.57v-1.68a6.08,6.08,0,0,1,1.77-4.3l4.29-4.28,4.29,4.29a6,6,0,0,1,1.78,4.29v1.68h7.57v7.57h1.68a6,6,0,0,1,4.29,1.78l4.29,4.28Z" transform="translate(0 0)"/><path class="cls-4" d="M415,388.67a7.74,7.74,0,0,0-5.48-2.27v-7.56h-7.56a7.74,7.74,0,0,0-2.27-5.48l-5.48-5.48-5.48,5.48a7.7,7.7,0,0,0-2.27,5.48h-7.57v7.56a7.74,7.74,0,0,0-5.48,2.27l-5.48,5.48,5.48,5.49a7.74,7.74,0,0,0,5.48,2.27v7.56h7.57a7.68,7.68,0,0,0,2.27,5.48l5.48,5.48,5.48-5.48a7.72,7.72,0,0,0,2.27-5.48h7.56v-7.56a7.74,7.74,0,0,0,5.48-2.27l5.48-5.49Zm-1.19,9.78a6,6,0,0,1-4.29,1.78h-1.68v7.56h-7.56v1.68a6.06,6.06,0,0,1-1.78,4.29l-4.29,4.3-4.29-4.3a6,6,0,0,1-1.78-4.29v-1.68h-7.57v-7.56h-1.68a6.06,6.06,0,0,1-4.29-1.78l-4.29-4.3,4.29-4.28a6,6,0,0,1,4.29-1.78h1.68v-7.57h7.57v-1.68a6,6,0,0,1,1.78-4.3l4.29-4.28,4.29,4.29a6,6,0,0,1,1.78,4.29v1.68h7.56v7.57h1.68a6,6,0,0,1,4.29,1.78l4.3,4.28Z" transform="translate(0 0)"/><path class="cls-4" d="M467.51,231a7.74,7.74,0,0,0-5.48-2.27v-7.56h-7.57a7.68,7.68,0,0,0-2.27-5.48l-5.48-5.48-5.48,5.48a7.72,7.72,0,0,0-2.27,5.48h-7.57v7.56a7.72,7.72,0,0,0-5.47,2.27l-5.49,5.48,5.49,5.48a7.69,7.69,0,0,0,5.47,2.28v7.56H439a7.74,7.74,0,0,0,2.27,5.48l5.48,5.48,5.48-5.48a7.7,7.7,0,0,0,2.27-5.48H462v-7.56a7.71,7.71,0,0,0,5.48-2.28l5.48-5.48Zm-1.19,9.77a6,6,0,0,1-4.29,1.78h-1.69v7.57h-7.56v1.68A6,6,0,0,1,451,256.1l-4.29,4.29-4.29-4.29a6.06,6.06,0,0,1-1.78-4.29v-1.68h-7.56v-7.57h-1.69a6,6,0,0,1-4.28-1.78l-4.3-4.29,4.29-4.29a6,6,0,0,1,4.29-1.78h1.69v-7.56h7.56v-1.68a6.09,6.09,0,0,1,1.78-4.3l4.29-4.29,4.29,4.3a6,6,0,0,1,1.78,4.29v1.68h7.56v7.56H462a6,6,0,0,1,4.29,1.78l4.29,4.29Z" transform="translate(0 0)"/><path class="cls-4" d="M520.06,231a7.74,7.74,0,0,0-5.48-2.27v-7.56H507a7.69,7.69,0,0,0-2.28-5.48l-5.47-5.48-5.49,5.48a7.71,7.71,0,0,0-2.26,5.48H484v7.56a7.74,7.74,0,0,0-5.48,2.27L473,236.49l5.48,5.48a7.71,7.71,0,0,0,5.48,2.28v7.56h7.57a7.73,7.73,0,0,0,2.26,5.48l5.49,5.48,5.47-5.48a7.71,7.71,0,0,0,2.28-5.48h7.56v-7.56a7.71,7.71,0,0,0,5.48-2.28l5.48-5.48Zm-1.19,9.77a6,6,0,0,1-4.29,1.78H512.9v7.57h-7.57v1.68a6.05,6.05,0,0,1-1.77,4.29l-4.29,4.29L495,256.1a6.05,6.05,0,0,1-1.77-4.29v-1.68h-7.57v-7.57H484a6,6,0,0,1-4.29-1.78l-4.3-4.29,4.3-4.29a6,6,0,0,1,4.29-1.78h1.68v-7.56h7.57v-1.68a6.08,6.08,0,0,1,1.77-4.3l4.3-4.29,4.28,4.3a6,6,0,0,1,1.78,4.29v1.68h7.57v7.56h1.68a6,6,0,0,1,4.29,1.78l4.29,4.29Z" transform="translate(0 0)"/><path class="cls-4" d="M467.51,283.57A7.7,7.7,0,0,0,462,281.3v-7.57h-7.57a7.71,7.71,0,0,0-2.27-5.48l-5.48-5.48-5.48,5.48a7.76,7.76,0,0,0-2.27,5.48h-7.57v7.57a7.68,7.68,0,0,0-5.47,2.27l-5.49,5.48,5.49,5.48a7.72,7.72,0,0,0,5.47,2.27v7.56H439a7.72,7.72,0,0,0,2.27,5.48l5.48,5.48,5.48-5.48a7.68,7.68,0,0,0,2.27-5.48H462V296.8a7.74,7.74,0,0,0,5.48-2.27l5.48-5.48Zm-1.19,9.77a6,6,0,0,1-4.29,1.78h-1.69v7.56h-7.56v1.68a6,6,0,0,1-1.78,4.29l-4.29,4.3-4.29-4.3a6,6,0,0,1-1.78-4.29v-1.68h-7.56v-7.56h-1.69a6,6,0,0,1-4.28-1.78l-4.3-4.29,4.29-4.29a6,6,0,0,1,4.29-1.78h1.69v-7.57h7.56v-1.68a6,6,0,0,1,1.78-4.29l4.29-4.29,4.29,4.29a6,6,0,0,1,1.78,4.29v1.68h7.56V283H462a6,6,0,0,1,4.29,1.78l4.29,4.29Z" transform="translate(0 0)"/><path class="cls-4" d="M520.06,283.57a7.7,7.7,0,0,0-5.48-2.27v-7.57H507a7.73,7.73,0,0,0-2.28-5.48l-5.47-5.48-5.49,5.48a7.75,7.75,0,0,0-2.26,5.48H484v7.57a7.7,7.7,0,0,0-5.48,2.27L473,289.05l5.48,5.48A7.74,7.74,0,0,0,484,296.8v7.56h7.57a7.71,7.71,0,0,0,2.26,5.48l5.49,5.48,5.47-5.48a7.69,7.69,0,0,0,2.28-5.48h7.56V296.8a7.74,7.74,0,0,0,5.48-2.27l5.48-5.48Zm-1.19,9.77a6,6,0,0,1-4.29,1.78H512.9v7.56h-7.57v1.68a6,6,0,0,1-1.77,4.29l-4.29,4.3-4.3-4.3a6,6,0,0,1-1.77-4.29v-1.68h-7.57v-7.56H484a6,6,0,0,1-4.29-1.78l-4.3-4.29,4.3-4.29A6,6,0,0,1,484,283h1.68v-7.57h7.57v-1.68a6,6,0,0,1,1.77-4.29l4.3-4.29,4.28,4.29a6,6,0,0,1,1.78,4.29v1.68h7.57V283h1.68a6,6,0,0,1,4.29,1.78l4.29,4.29Z" transform="translate(0 0)"/><path class="cls-4" d="M572.62,231a7.76,7.76,0,0,0-5.49-2.27v-7.56h-7.56a7.68,7.68,0,0,0-2.27-5.48l-5.48-5.48-5.48,5.48a7.68,7.68,0,0,0-2.27,5.48H536.5v7.56A7.76,7.76,0,0,0,531,231l-5.48,5.48L531,242a7.73,7.73,0,0,0,5.48,2.28v7.56h7.57a7.7,7.7,0,0,0,2.27,5.48l5.48,5.48,5.48-5.48a7.7,7.7,0,0,0,2.27-5.48h7.56v-7.56a7.73,7.73,0,0,0,5.49-2.28l5.47-5.48Zm-1.19,9.77a6,6,0,0,1-4.3,1.78h-1.68v7.57h-7.56v1.68a6,6,0,0,1-1.78,4.29l-4.29,4.29-4.29-4.29a6,6,0,0,1-1.78-4.29v-1.68h-7.57v-7.57H536.5a6,6,0,0,1-4.29-1.78l-4.29-4.29,4.29-4.29a6,6,0,0,1,4.29-1.78h1.68v-7.56h7.57v-1.68a6,6,0,0,1,1.78-4.3l4.29-4.29,4.29,4.3a6,6,0,0,1,1.78,4.29v1.68h7.56v7.56h1.68a6,6,0,0,1,4.3,1.78l4.29,4.29Z" transform="translate(0 0)"/><path class="cls-4" d="M625.17,231a7.74,7.74,0,0,0-5.48-2.27v-7.56h-7.57a7.68,7.68,0,0,0-2.27-5.48l-5.48-5.48-5.48,5.48a7.72,7.72,0,0,0-2.27,5.48h-7.56v7.56a7.72,7.72,0,0,0-5.48,2.27l-5.49,5.48,5.49,5.48a7.69,7.69,0,0,0,5.48,2.28v7.56h7.56a7.74,7.74,0,0,0,2.27,5.48l5.48,5.48,5.48-5.48a7.7,7.7,0,0,0,2.27-5.48h7.57v-7.56a7.71,7.71,0,0,0,5.48-2.28l5.48-5.48ZM624,240.78a6,6,0,0,1-4.29,1.78H618v7.57h-7.57v1.68a6.05,6.05,0,0,1-1.77,4.29l-4.3,4.29-4.29-4.29a6.05,6.05,0,0,1-1.77-4.29v-1.68h-7.57v-7.57h-1.68a6,6,0,0,1-4.29-1.78l-4.3-4.29,4.29-4.29a6,6,0,0,1,4.3-1.78h1.68v-7.56h7.57v-1.68a6.08,6.08,0,0,1,1.77-4.3l4.29-4.29,4.29,4.3a6,6,0,0,1,1.78,4.29v1.68H618v7.56h1.68A6,6,0,0,1,624,232.2l4.29,4.29Z" transform="translate(0 0)"/><path class="cls-4" d="M572.62,283.57a7.72,7.72,0,0,0-5.49-2.27v-7.57h-7.56a7.71,7.71,0,0,0-2.27-5.48l-5.48-5.48-5.48,5.48a7.71,7.71,0,0,0-2.27,5.48H536.5v7.57a7.71,7.71,0,0,0-5.48,2.27l-5.48,5.48,5.48,5.48a7.76,7.76,0,0,0,5.48,2.27v7.56h7.57a7.68,7.68,0,0,0,2.27,5.48l5.48,5.48,5.48-5.48a7.68,7.68,0,0,0,2.27-5.48h7.56V296.8a7.76,7.76,0,0,0,5.49-2.27l5.47-5.48Zm-1.19,9.77a6,6,0,0,1-4.3,1.78h-1.68v7.56h-7.56v1.68a6,6,0,0,1-1.78,4.29l-4.29,4.3-4.29-4.3a6,6,0,0,1-1.78-4.29v-1.68h-7.57v-7.56H536.5a6,6,0,0,1-4.29-1.78l-4.29-4.29,4.29-4.29A6,6,0,0,1,536.5,283h1.68v-7.57h7.57v-1.68a6,6,0,0,1,1.78-4.29l4.29-4.29,4.29,4.29a6,6,0,0,1,1.78,4.29v1.68h7.56V283h1.68a6,6,0,0,1,4.3,1.78l4.29,4.29Z" transform="translate(0 0)"/><path class="cls-4" d="M625.17,283.57a7.7,7.7,0,0,0-5.48-2.27v-7.57h-7.57a7.71,7.71,0,0,0-2.27-5.48l-5.48-5.48-5.48,5.48a7.76,7.76,0,0,0-2.27,5.48h-7.56v7.57a7.68,7.68,0,0,0-5.48,2.27l-5.49,5.48,5.49,5.48a7.72,7.72,0,0,0,5.48,2.27v7.56h7.56a7.72,7.72,0,0,0,2.27,5.48l5.48,5.48,5.48-5.48a7.68,7.68,0,0,0,2.27-5.48h7.57V296.8a7.74,7.74,0,0,0,5.48-2.27l5.48-5.48ZM624,293.34a6,6,0,0,1-4.29,1.78H618v7.56h-7.57v1.68a6,6,0,0,1-1.77,4.29l-4.3,4.3-4.29-4.3a6,6,0,0,1-1.77-4.29v-1.68h-7.57v-7.56h-1.68a6,6,0,0,1-4.29-1.78l-4.3-4.29,4.29-4.29a6,6,0,0,1,4.3-1.78h1.68v-7.57h7.57v-1.68a6,6,0,0,1,1.77-4.29l4.29-4.29,4.29,4.29a6,6,0,0,1,1.78,4.29v1.68H618V283h1.68a6,6,0,0,1,4.29,1.78l4.29,4.29Z" transform="translate(0 0)"/><path class="cls-4" d="M467.51,336.12a7.74,7.74,0,0,0-5.48-2.27v-7.56h-7.57a7.72,7.72,0,0,0-2.27-5.49l-5.48-5.48-5.48,5.48a7.76,7.76,0,0,0-2.27,5.49h-7.57v7.56a7.72,7.72,0,0,0-5.47,2.27l-5.49,5.48,5.49,5.48a7.72,7.72,0,0,0,5.47,2.27v7.57H439a7.76,7.76,0,0,0,2.27,5.48l5.48,5.48,5.48-5.48a7.71,7.71,0,0,0,2.27-5.48H462v-7.57a7.74,7.74,0,0,0,5.48-2.27L473,341.6Zm-1.19,9.77a6,6,0,0,1-4.29,1.78h-1.69v7.56h-7.56v1.69A6,6,0,0,1,451,361.2l-4.29,4.3-4.29-4.3a6,6,0,0,1-1.78-4.28v-1.69h-7.56v-7.56h-1.69a6,6,0,0,1-4.28-1.78l-4.3-4.29,4.29-4.29a6,6,0,0,1,4.29-1.78h1.69V328h7.56v-1.68a6.07,6.07,0,0,1,1.78-4.3l4.29-4.29L451,322a6,6,0,0,1,1.78,4.3V328h7.56v7.56H462a6,6,0,0,1,4.29,1.78l4.29,4.29Z" transform="translate(0 0)"/><path class="cls-4" d="M520.06,336.12a7.74,7.74,0,0,0-5.48-2.27v-7.56H507a7.73,7.73,0,0,0-2.28-5.49l-5.47-5.48-5.49,5.48a7.75,7.75,0,0,0-2.26,5.49H484v7.56a7.74,7.74,0,0,0-5.48,2.27L473,341.6l5.48,5.48a7.74,7.74,0,0,0,5.48,2.27v7.57h7.57a7.75,7.75,0,0,0,2.26,5.48l5.49,5.48,5.47-5.48a7.73,7.73,0,0,0,2.28-5.48h7.56v-7.57a7.74,7.74,0,0,0,5.48-2.27l5.48-5.48Zm-1.19,9.77a6,6,0,0,1-4.29,1.78H512.9v7.56h-7.57v1.69a6,6,0,0,1-1.77,4.28l-4.29,4.3-4.3-4.3a6,6,0,0,1-1.77-4.28v-1.69h-7.57v-7.56H484a6,6,0,0,1-4.29-1.78l-4.3-4.29,4.3-4.29a6,6,0,0,1,4.29-1.78h1.68V328h7.57v-1.68A6.06,6.06,0,0,1,495,322l4.3-4.29,4.28,4.29a6,6,0,0,1,1.78,4.3V328h7.57v7.56h1.68a6,6,0,0,1,4.29,1.78l4.29,4.29Z" transform="translate(0 0)"/><path class="cls-4" d="M467.51,388.67A7.74,7.74,0,0,0,462,386.4v-7.56h-7.57a7.7,7.7,0,0,0-2.27-5.48l-5.48-5.48-5.48,5.48a7.74,7.74,0,0,0-2.27,5.48h-7.57v7.56a7.72,7.72,0,0,0-5.47,2.27l-5.49,5.48,5.49,5.49a7.72,7.72,0,0,0,5.47,2.27v7.56H439a7.72,7.72,0,0,0,2.27,5.48l5.48,5.48,5.48-5.48a7.68,7.68,0,0,0,2.27-5.48H462v-7.56a7.74,7.74,0,0,0,5.48-2.27l5.48-5.49Zm-1.19,9.78a6.06,6.06,0,0,1-4.29,1.78h-1.69v7.56h-7.56v1.68a6,6,0,0,1-1.78,4.29l-4.29,4.3-4.29-4.3a6.06,6.06,0,0,1-1.78-4.29v-1.68h-7.56v-7.56h-1.69a6,6,0,0,1-4.28-1.78l-4.3-4.3,4.29-4.28a6,6,0,0,1,4.29-1.78h1.69v-7.57h7.56v-1.68a6.09,6.09,0,0,1,1.78-4.3l4.29-4.28,4.29,4.29a6,6,0,0,1,1.78,4.29v1.68h7.56v7.57H462a6,6,0,0,1,4.29,1.78l4.29,4.28Z" transform="translate(0 0)"/><path class="cls-4" d="M520.06,388.67a7.74,7.74,0,0,0-5.48-2.27v-7.56H507a7.71,7.71,0,0,0-2.28-5.48l-5.47-5.48-5.49,5.48a7.73,7.73,0,0,0-2.26,5.48H484v7.56a7.74,7.74,0,0,0-5.48,2.27L473,394.15l5.48,5.49a7.74,7.74,0,0,0,5.48,2.27v7.56h7.57a7.71,7.71,0,0,0,2.26,5.48l5.49,5.48,5.47-5.48a7.69,7.69,0,0,0,2.28-5.48h7.56v-7.56a7.74,7.74,0,0,0,5.48-2.27l5.48-5.49Zm-1.19,9.78a6,6,0,0,1-4.29,1.78H512.9v7.56h-7.57v1.68a6.05,6.05,0,0,1-1.77,4.29l-4.29,4.3-4.3-4.3a6.05,6.05,0,0,1-1.77-4.29v-1.68h-7.57v-7.56H484a6,6,0,0,1-4.29-1.78l-4.3-4.3,4.3-4.28a6,6,0,0,1,4.29-1.78h1.68v-7.57h7.57v-1.68a6.08,6.08,0,0,1,1.77-4.3l4.3-4.28,4.28,4.29a6,6,0,0,1,1.78,4.29v1.68h7.57v7.57h1.68a6,6,0,0,1,4.29,1.78l4.29,4.28Z" transform="translate(0 0)"/><path class="cls-4" d="M572.62,336.12a7.76,7.76,0,0,0-5.49-2.27v-7.56h-7.56a7.72,7.72,0,0,0-2.27-5.49l-5.48-5.48-5.48,5.48a7.72,7.72,0,0,0-2.27,5.49H536.5v7.56a7.76,7.76,0,0,0-5.48,2.27l-5.48,5.48,5.48,5.48a7.76,7.76,0,0,0,5.48,2.27v7.57h7.57a7.71,7.71,0,0,0,2.27,5.48l5.48,5.48,5.48-5.48a7.71,7.71,0,0,0,2.27-5.48h7.56v-7.57a7.76,7.76,0,0,0,5.49-2.27l5.47-5.48Zm-1.19,9.77a6,6,0,0,1-4.3,1.78h-1.68v7.56h-7.56v1.69a6,6,0,0,1-1.78,4.28l-4.29,4.3-4.29-4.3a6,6,0,0,1-1.78-4.28v-1.69h-7.57v-7.56H536.5a6,6,0,0,1-4.29-1.78l-4.29-4.29,4.29-4.29a6,6,0,0,1,4.29-1.78h1.68V328h7.57v-1.68a6,6,0,0,1,1.78-4.3l4.29-4.29,4.29,4.29a6,6,0,0,1,1.78,4.3V328h7.56v7.56h1.68a6,6,0,0,1,4.3,1.78l4.29,4.29Z" transform="translate(0 0)"/><path class="cls-4" d="M625.17,336.12a7.74,7.74,0,0,0-5.48-2.27v-7.56h-7.57a7.72,7.72,0,0,0-2.27-5.49l-5.48-5.48-5.48,5.48a7.76,7.76,0,0,0-2.27,5.49h-7.56v7.56a7.72,7.72,0,0,0-5.48,2.27l-5.49,5.48,5.49,5.48a7.72,7.72,0,0,0,5.48,2.27v7.57h7.56a7.76,7.76,0,0,0,2.27,5.48l5.48,5.48,5.48-5.48a7.71,7.71,0,0,0,2.27-5.48h7.57v-7.57a7.74,7.74,0,0,0,5.48-2.27l5.48-5.48ZM624,345.89a6,6,0,0,1-4.29,1.78H618v7.56h-7.57v1.69a6,6,0,0,1-1.77,4.28l-4.3,4.3-4.29-4.3a6,6,0,0,1-1.77-4.28v-1.69h-7.57v-7.56h-1.68a6,6,0,0,1-4.29-1.78l-4.3-4.29,4.29-4.29a6,6,0,0,1,4.3-1.78h1.68V328h7.57v-1.68a6.06,6.06,0,0,1,1.77-4.3l4.29-4.29,4.29,4.29a6,6,0,0,1,1.78,4.3V328H618v7.56h1.68a6,6,0,0,1,4.29,1.78l4.29,4.29Z" transform="translate(0 0)"/><path class="cls-4" d="M572.62,388.67a7.76,7.76,0,0,0-5.49-2.27v-7.56h-7.56a7.7,7.7,0,0,0-2.27-5.48l-5.48-5.48-5.48,5.48a7.7,7.7,0,0,0-2.27,5.48H536.5v7.56a7.76,7.76,0,0,0-5.48,2.27l-5.48,5.48,5.48,5.49a7.76,7.76,0,0,0,5.48,2.27v7.56h7.57a7.68,7.68,0,0,0,2.27,5.48l5.48,5.48L557.3,415a7.68,7.68,0,0,0,2.27-5.48h7.56v-7.56a7.76,7.76,0,0,0,5.49-2.27l5.47-5.49Zm-1.19,9.78a6.07,6.07,0,0,1-4.3,1.78h-1.68v7.56h-7.56v1.68a6,6,0,0,1-1.78,4.29l-4.29,4.3-4.29-4.3a6,6,0,0,1-1.78-4.29v-1.68h-7.57v-7.56H536.5a6.06,6.06,0,0,1-4.29-1.78l-4.29-4.3,4.29-4.28a6,6,0,0,1,4.29-1.78h1.68v-7.57h7.57v-1.68a6,6,0,0,1,1.78-4.3l4.29-4.28,4.29,4.29a6,6,0,0,1,1.78,4.29v1.68h7.56v7.57h1.68a6,6,0,0,1,4.3,1.78l4.29,4.28Z" transform="translate(0 0)"/><path class="cls-4" d="M625.17,388.67a7.74,7.74,0,0,0-5.48-2.27v-7.56h-7.57a7.7,7.7,0,0,0-2.27-5.48l-5.48-5.48-5.48,5.48a7.74,7.74,0,0,0-2.27,5.48h-7.56v7.56a7.72,7.72,0,0,0-5.48,2.27l-5.49,5.48,5.49,5.49a7.72,7.72,0,0,0,5.48,2.27v7.56h7.56a7.72,7.72,0,0,0,2.27,5.48l5.48,5.48,5.48-5.48a7.68,7.68,0,0,0,2.27-5.48h7.57v-7.56a7.74,7.74,0,0,0,5.48-2.27l5.48-5.49ZM624,398.45a6,6,0,0,1-4.29,1.78H618v7.56h-7.57v1.68a6.05,6.05,0,0,1-1.77,4.29l-4.3,4.3-4.29-4.3a6.05,6.05,0,0,1-1.77-4.29v-1.68h-7.57v-7.56h-1.68a6,6,0,0,1-4.29-1.78l-4.3-4.3,4.29-4.28a6,6,0,0,1,4.3-1.78h1.68v-7.57h7.57v-1.68a6.08,6.08,0,0,1,1.77-4.3l4.29-4.28,4.29,4.29a6,6,0,0,1,1.78,4.29v1.68H618v7.57h1.68a6,6,0,0,1,4.29,1.78l4.29,4.28Z" transform="translate(0 0)"/><path class="cls-4" d="M677.72,231a7.74,7.74,0,0,0-5.48-2.27v-7.56h-7.56a7.72,7.72,0,0,0-2.27-5.48l-5.48-5.48-5.48,5.48a7.68,7.68,0,0,0-2.27,5.48h-7.57v7.56a7.74,7.74,0,0,0-5.48,2.27l-5.48,5.48,5.48,5.48a7.71,7.71,0,0,0,5.48,2.28v7.56h7.57a7.7,7.7,0,0,0,2.27,5.48l5.48,5.48,5.48-5.48a7.74,7.74,0,0,0,2.27-5.48h7.56v-7.56a7.71,7.71,0,0,0,5.48-2.28l5.48-5.48Zm-1.19,9.77a6,6,0,0,1-4.29,1.78h-1.68v7.57H663v1.68a6.06,6.06,0,0,1-1.78,4.29l-4.29,4.29-4.29-4.29a6,6,0,0,1-1.78-4.29v-1.68h-7.57v-7.57h-1.68a6,6,0,0,1-4.29-1.78L633,236.49l4.29-4.29a6,6,0,0,1,4.29-1.78h1.68v-7.56h7.57v-1.68a6,6,0,0,1,1.78-4.3l4.29-4.29,4.29,4.3a6,6,0,0,1,1.78,4.29v1.68h7.56v7.56h1.68a6,6,0,0,1,4.29,1.78l4.3,4.29Z" transform="translate(0 0)"/><path class="cls-4" d="M677.72,283.57a7.7,7.7,0,0,0-5.48-2.27v-7.57h-7.56a7.76,7.76,0,0,0-2.27-5.48l-5.48-5.48-5.48,5.48a7.71,7.71,0,0,0-2.27,5.48h-7.57v7.57a7.7,7.7,0,0,0-5.48,2.27l-5.48,5.48,5.48,5.48a7.74,7.74,0,0,0,5.48,2.27v7.56h7.57a7.68,7.68,0,0,0,2.27,5.48l5.48,5.48,5.48-5.48a7.72,7.72,0,0,0,2.27-5.48h7.56V296.8a7.74,7.74,0,0,0,5.48-2.27l5.48-5.48Zm-1.19,9.77a6,6,0,0,1-4.29,1.78h-1.68v7.56H663v1.68a6,6,0,0,1-1.78,4.29l-4.29,4.3-4.29-4.3a6,6,0,0,1-1.78-4.29v-1.68h-7.57v-7.56h-1.68a6,6,0,0,1-4.29-1.78L633,289.05l4.29-4.29a6,6,0,0,1,4.29-1.78h1.68v-7.57h7.57v-1.68a6,6,0,0,1,1.78-4.29l4.29-4.29,4.29,4.29a6,6,0,0,1,1.78,4.29v1.68h7.56V283h1.68a6,6,0,0,1,4.29,1.78l4.3,4.29Z" transform="translate(0 0)"/><path class="cls-4" d="M677.72,336.12a7.74,7.74,0,0,0-5.48-2.27v-7.56h-7.56a7.76,7.76,0,0,0-2.27-5.49l-5.48-5.48-5.48,5.48a7.72,7.72,0,0,0-2.27,5.49h-7.57v7.56a7.74,7.74,0,0,0-5.48,2.27l-5.48,5.48,5.48,5.48a7.74,7.74,0,0,0,5.48,2.27v7.57h7.57a7.71,7.71,0,0,0,2.27,5.48l5.48,5.48,5.48-5.48a7.76,7.76,0,0,0,2.27-5.48h7.56v-7.57a7.74,7.74,0,0,0,5.48-2.27l5.48-5.48Zm-1.19,9.77a6,6,0,0,1-4.29,1.78h-1.68v7.56H663v1.69a6,6,0,0,1-1.78,4.28l-4.29,4.3-4.29-4.3a6,6,0,0,1-1.78-4.28v-1.69h-7.57v-7.56h-1.68a6,6,0,0,1-4.29-1.78L633,341.6l4.29-4.29a6,6,0,0,1,4.29-1.78h1.68V328h7.57v-1.68a6,6,0,0,1,1.78-4.3l4.29-4.29,4.29,4.29a6.07,6.07,0,0,1,1.78,4.3V328h7.56v7.56h1.68a6,6,0,0,1,4.29,1.78l4.3,4.29Z" transform="translate(0 0)"/><path class="cls-4" d="M677.72,388.67a7.74,7.74,0,0,0-5.48-2.27v-7.56h-7.56a7.74,7.74,0,0,0-2.27-5.48l-5.48-5.48-5.48,5.48a7.7,7.7,0,0,0-2.27,5.48h-7.57v7.56a7.74,7.74,0,0,0-5.48,2.27l-5.48,5.48,5.48,5.49a7.74,7.74,0,0,0,5.48,2.27v7.56h7.57a7.68,7.68,0,0,0,2.27,5.48l5.48,5.48,5.48-5.48a7.72,7.72,0,0,0,2.27-5.48h7.56v-7.56a7.74,7.74,0,0,0,5.48-2.27l5.48-5.49Zm-1.19,9.78a6,6,0,0,1-4.29,1.78h-1.68v7.56H663v1.68a6.06,6.06,0,0,1-1.78,4.29l-4.29,4.3-4.29-4.3a6,6,0,0,1-1.78-4.29v-1.68h-7.57v-7.56h-1.68a6.06,6.06,0,0,1-4.29-1.78l-4.29-4.3,4.29-4.28a6,6,0,0,1,4.29-1.78h1.68v-7.57h7.57v-1.68a6,6,0,0,1,1.78-4.3l4.29-4.28,4.29,4.29a6,6,0,0,1,1.78,4.29v1.68h7.56v7.57h1.68a6,6,0,0,1,4.29,1.78l4.3,4.28Z" transform="translate(0 0)"/><path class="cls-4" d="M47.08,441.23A7.76,7.76,0,0,0,41.59,439v-7.57H34a7.76,7.76,0,0,0-2.27-5.48l-5.48-5.48-5.48,5.48a7.71,7.71,0,0,0-2.27,5.48H11V439a7.76,7.76,0,0,0-5.48,2.27L0,446.71l5.48,5.48A7.76,7.76,0,0,0,11,454.46V462h7.57a7.68,7.68,0,0,0,2.27,5.48L26.28,473l5.48-5.49A7.72,7.72,0,0,0,34,462h7.56v-7.56a7.76,7.76,0,0,0,5.49-2.27l5.47-5.48ZM45.88,451a6,6,0,0,1-4.29,1.78H39.91v7.56H32.35V462a6,6,0,0,1-1.78,4.29l-4.29,4.3L22,466.31A6,6,0,0,1,20.21,462v-1.68H12.64v-7.56H11A6,6,0,0,1,6.67,451l-4.29-4.29,4.29-4.29A6,6,0,0,1,11,440.64h1.68v-7.56h7.57v-1.69A6,6,0,0,1,22,427.1l4.29-4.29,4.29,4.29a6,6,0,0,1,1.78,4.29v1.69h7.56v7.56h1.68a6,6,0,0,1,4.29,1.78l4.3,4.29Z" transform="translate(0 0)"/><path class="cls-4" d="M99.63,441.23A7.74,7.74,0,0,0,94.15,439v-7.57H86.58a7.71,7.71,0,0,0-2.27-5.48l-5.48-5.48-5.48,5.48a7.76,7.76,0,0,0-2.27,5.48H63.52V439A7.72,7.72,0,0,0,58,441.23l-5.49,5.48L58,452.19a7.72,7.72,0,0,0,5.48,2.27V462h7.56a7.72,7.72,0,0,0,2.27,5.48L78.83,473l5.48-5.49A7.68,7.68,0,0,0,86.58,462h7.57v-7.56a7.74,7.74,0,0,0,5.48-2.27l5.48-5.48ZM98.44,451a6,6,0,0,1-4.29,1.78H92.46v7.56H84.9V462a6,6,0,0,1-1.77,4.29l-4.3,4.3-4.29-4.3A6,6,0,0,1,72.77,462v-1.68H65.2v-7.56H63.52A6,6,0,0,1,59.23,451l-4.3-4.29,4.29-4.29a6,6,0,0,1,4.3-1.78H65.2v-7.56h7.57v-1.69a6.05,6.05,0,0,1,1.77-4.29l4.29-4.29,4.29,4.29a6,6,0,0,1,1.78,4.29v1.69h7.56v7.56h1.69a6,6,0,0,1,4.29,1.78l4.29,4.29Z" transform="translate(0 0)"/><path class="cls-4" d="M152.18,441.23A7.74,7.74,0,0,0,146.7,439v-7.57h-7.56a7.76,7.76,0,0,0-2.27-5.48l-5.48-5.48-5.49,5.48a7.75,7.75,0,0,0-2.26,5.48h-7.57V439a7.74,7.74,0,0,0-5.48,2.27l-5.48,5.48,5.48,5.48a7.74,7.74,0,0,0,5.48,2.27V462h7.57a7.71,7.71,0,0,0,2.26,5.48l5.49,5.49,5.48-5.49a7.72,7.72,0,0,0,2.27-5.48h7.56v-7.56a7.74,7.74,0,0,0,5.48-2.27l5.48-5.48ZM151,451a6,6,0,0,1-4.29,1.78H145v7.56h-7.57V462a6,6,0,0,1-1.77,4.29l-4.29,4.3-4.3-4.3a6,6,0,0,1-1.77-4.29v-1.68h-7.57v-7.56h-1.68a6,6,0,0,1-4.29-1.78l-4.3-4.29,4.3-4.29a6,6,0,0,1,4.29-1.78h1.68v-7.56h7.57v-1.69a6.05,6.05,0,0,1,1.77-4.29l4.3-4.29,4.29,4.29a6.05,6.05,0,0,1,1.77,4.29v1.69H145v7.56h1.68a6,6,0,0,1,4.29,1.78l4.29,4.29Z" transform="translate(0 0)"/><path class="cls-4" d="M204.74,441.23a7.76,7.76,0,0,0-5.49-2.27v-7.57h-7.56a7.71,7.71,0,0,0-2.27-5.48l-5.48-5.48-5.48,5.48a7.76,7.76,0,0,0-2.27,5.48h-7.57V439a7.76,7.76,0,0,0-5.48,2.27l-5.48,5.48,5.48,5.48a7.76,7.76,0,0,0,5.48,2.27V462h7.57a7.72,7.72,0,0,0,2.27,5.48l5.48,5.49,5.48-5.49a7.68,7.68,0,0,0,2.27-5.48h7.56v-7.56a7.76,7.76,0,0,0,5.49-2.27l5.48-5.48ZM203.55,451a6,6,0,0,1-4.3,1.78h-1.68v7.56H190V462a6,6,0,0,1-1.78,4.29l-4.29,4.3-4.29-4.3a6,6,0,0,1-1.78-4.29v-1.68h-7.56v-7.56h-1.69a6,6,0,0,1-4.28-1.78l-4.3-4.29,4.29-4.29a6,6,0,0,1,4.29-1.78h1.69v-7.56h7.56v-1.69a6,6,0,0,1,1.78-4.29l4.29-4.29,4.29,4.29a6,6,0,0,1,1.78,4.29v1.69h7.56v7.56h1.68a6,6,0,0,1,4.3,1.78l4.29,4.29Z" transform="translate(0 0)"/><path class="cls-4" d="M257.29,441.23a7.74,7.74,0,0,0-5.48-2.27v-7.57h-7.56a7.73,7.73,0,0,0-2.28-5.48l-5.47-5.48L231,425.91a7.75,7.75,0,0,0-2.26,5.48h-7.57V439a7.74,7.74,0,0,0-5.48,2.27l-5.48,5.48,5.48,5.48a7.74,7.74,0,0,0,5.48,2.27V462h7.57A7.71,7.71,0,0,0,231,467.5L236.5,473,242,467.5a7.69,7.69,0,0,0,2.28-5.48h7.56v-7.56a7.74,7.74,0,0,0,5.48-2.27l5.48-5.48ZM256.1,451a6,6,0,0,1-4.29,1.78h-1.68v7.56h-7.57V462a6,6,0,0,1-1.77,4.29l-4.29,4.3-4.3-4.3a6,6,0,0,1-1.77-4.29v-1.68h-7.57v-7.56h-1.68a6,6,0,0,1-4.29-1.78l-4.3-4.29,4.3-4.29a6,6,0,0,1,4.29-1.78h1.68v-7.56h7.57v-1.69a6.05,6.05,0,0,1,1.77-4.29l4.3-4.29,4.28,4.29a6,6,0,0,1,1.78,4.29v1.69h7.57v7.56h1.68a6,6,0,0,1,4.29,1.78l4.29,4.29Z" transform="translate(0 0)"/><path class="cls-4" d="M309.85,441.23a7.76,7.76,0,0,0-5.49-2.27v-7.57H296.8a7.71,7.71,0,0,0-2.27-5.48l-5.48-5.48-5.48,5.48a7.71,7.71,0,0,0-2.27,5.48h-7.57V439a7.76,7.76,0,0,0-5.48,2.27l-5.48,5.48,5.48,5.48a7.76,7.76,0,0,0,5.48,2.27V462h7.57a7.68,7.68,0,0,0,2.27,5.48l5.48,5.49,5.48-5.49A7.68,7.68,0,0,0,296.8,462h7.56v-7.56a7.76,7.76,0,0,0,5.49-2.27l5.47-5.48ZM308.66,451a6,6,0,0,1-4.3,1.78h-1.68v7.56h-7.56V462a6,6,0,0,1-1.78,4.29l-4.29,4.3-4.29-4.3A6,6,0,0,1,283,462v-1.68h-7.57v-7.56h-1.68a6,6,0,0,1-4.29-1.78l-4.29-4.29,4.29-4.29a6,6,0,0,1,4.29-1.78h1.68v-7.56H283v-1.69a6,6,0,0,1,1.78-4.29l4.29-4.29,4.29,4.29a6,6,0,0,1,1.78,4.29v1.69h7.56v7.56h1.68a6,6,0,0,1,4.3,1.78l4.29,4.29Z" transform="translate(0 0)"/><path class="cls-4" d="M362.4,441.23a7.74,7.74,0,0,0-5.48-2.27v-7.57h-7.57a7.71,7.71,0,0,0-2.27-5.48l-5.48-5.48-5.48,5.48a7.76,7.76,0,0,0-2.27,5.48h-7.56V439a7.72,7.72,0,0,0-5.48,2.27l-5.49,5.48,5.49,5.48a7.72,7.72,0,0,0,5.48,2.27V462h7.56a7.72,7.72,0,0,0,2.27,5.48L341.6,473l5.48-5.49a7.68,7.68,0,0,0,2.27-5.48h7.57v-7.56a7.74,7.74,0,0,0,5.48-2.27l5.48-5.48ZM361.21,451a6,6,0,0,1-4.29,1.78h-1.68v7.56h-7.57V462a6,6,0,0,1-1.77,4.29l-4.3,4.3-4.29-4.3a6,6,0,0,1-1.77-4.29v-1.68H328v-7.56h-1.68A6,6,0,0,1,322,451l-4.3-4.29,4.29-4.29a6,6,0,0,1,4.3-1.78H328v-7.56h7.57v-1.69a6.05,6.05,0,0,1,1.77-4.29l4.29-4.29,4.29,4.29a6,6,0,0,1,1.78,4.29v1.69h7.57v7.56h1.68a6,6,0,0,1,4.29,1.78l4.29,4.29Z" transform="translate(0 0)"/><path class="cls-4" d="M415,441.23a7.74,7.74,0,0,0-5.48-2.27v-7.57h-7.56a7.76,7.76,0,0,0-2.27-5.48l-5.48-5.48-5.48,5.48a7.71,7.71,0,0,0-2.27,5.48h-7.57V439a7.74,7.74,0,0,0-5.48,2.27l-5.48,5.48,5.48,5.48a7.74,7.74,0,0,0,5.48,2.27V462h7.57a7.68,7.68,0,0,0,2.27,5.48l5.48,5.49,5.48-5.49a7.72,7.72,0,0,0,2.27-5.48h7.56v-7.56a7.74,7.74,0,0,0,5.48-2.27l5.48-5.48ZM413.76,451a6,6,0,0,1-4.29,1.78h-1.68v7.56h-7.56V462a6,6,0,0,1-1.78,4.29l-4.29,4.3-4.29-4.3a6,6,0,0,1-1.78-4.29v-1.68h-7.57v-7.56h-1.68a6,6,0,0,1-4.29-1.78l-4.29-4.29,4.29-4.29a6,6,0,0,1,4.29-1.78h1.68v-7.56h7.57v-1.69a6,6,0,0,1,1.78-4.29l4.29-4.29,4.29,4.29a6.06,6.06,0,0,1,1.78,4.29v1.69h7.56v7.56h1.68a6,6,0,0,1,4.29,1.78l4.3,4.29Z" transform="translate(0 0)"/><path class="cls-4" d="M467.51,441.23A7.74,7.74,0,0,0,462,439v-7.57h-7.57a7.71,7.71,0,0,0-2.27-5.48l-5.48-5.48-5.48,5.48a7.76,7.76,0,0,0-2.27,5.48h-7.57V439a7.72,7.72,0,0,0-5.47,2.27l-5.49,5.48,5.49,5.48a7.72,7.72,0,0,0,5.47,2.27V462H439a7.72,7.72,0,0,0,2.27,5.48l5.48,5.49,5.48-5.49a7.68,7.68,0,0,0,2.27-5.48H462v-7.56a7.74,7.74,0,0,0,5.48-2.27l5.48-5.48ZM466.32,451a6,6,0,0,1-4.29,1.78h-1.69v7.56h-7.56V462a6,6,0,0,1-1.78,4.29l-4.29,4.3-4.29-4.3a6,6,0,0,1-1.78-4.29v-1.68h-7.56v-7.56h-1.69a6,6,0,0,1-4.28-1.78l-4.3-4.29,4.29-4.29a6,6,0,0,1,4.29-1.78h1.69v-7.56h7.56v-1.69a6.06,6.06,0,0,1,1.78-4.29l4.29-4.29L451,427.1a6,6,0,0,1,1.78,4.29v1.69h7.56v7.56H462a6,6,0,0,1,4.29,1.78l4.29,4.29Z" transform="translate(0 0)"/><path class="cls-4" d="M520.06,441.23a7.74,7.74,0,0,0-5.48-2.27v-7.57H507a7.73,7.73,0,0,0-2.28-5.48l-5.47-5.48-5.49,5.48a7.75,7.75,0,0,0-2.26,5.48H484V439a7.74,7.74,0,0,0-5.48,2.27L473,446.71l5.48,5.48a7.74,7.74,0,0,0,5.48,2.27V462h7.57a7.71,7.71,0,0,0,2.26,5.48l5.49,5.49,5.47-5.49A7.69,7.69,0,0,0,507,462h7.56v-7.56a7.74,7.74,0,0,0,5.48-2.27l5.48-5.48ZM518.87,451a6,6,0,0,1-4.29,1.78H512.9v7.56h-7.57V462a6,6,0,0,1-1.77,4.29l-4.29,4.3-4.3-4.3A6,6,0,0,1,493.2,462v-1.68h-7.57v-7.56H484a6,6,0,0,1-4.29-1.78l-4.3-4.29,4.3-4.29a6,6,0,0,1,4.29-1.78h1.68v-7.56h7.57v-1.69A6.05,6.05,0,0,1,495,427.1l4.3-4.29,4.28,4.29a6,6,0,0,1,1.78,4.29v1.69h7.57v7.56h1.68a6,6,0,0,1,4.29,1.78l4.29,4.29Z" transform="translate(0 0)"/><path class="cls-4" d="M572.62,441.23a7.76,7.76,0,0,0-5.49-2.27v-7.57h-7.56a7.71,7.71,0,0,0-2.27-5.48l-5.48-5.48-5.48,5.48a7.71,7.71,0,0,0-2.27,5.48H536.5V439a7.76,7.76,0,0,0-5.48,2.27l-5.48,5.48,5.48,5.48a7.76,7.76,0,0,0,5.48,2.27V462h7.57a7.68,7.68,0,0,0,2.27,5.48l5.48,5.49,5.48-5.49a7.68,7.68,0,0,0,2.27-5.48h7.56v-7.56a7.76,7.76,0,0,0,5.49-2.27l5.47-5.48ZM571.43,451a6,6,0,0,1-4.3,1.78h-1.68v7.56h-7.56V462a6,6,0,0,1-1.78,4.29l-4.29,4.3-4.29-4.3a6,6,0,0,1-1.78-4.29v-1.68h-7.57v-7.56H536.5a6,6,0,0,1-4.29-1.78l-4.29-4.29,4.29-4.29a6,6,0,0,1,4.29-1.78h1.68v-7.56h7.57v-1.69a6,6,0,0,1,1.78-4.29l4.29-4.29,4.29,4.29a6,6,0,0,1,1.78,4.29v1.69h7.56v7.56h1.68a6,6,0,0,1,4.3,1.78l4.29,4.29Z" transform="translate(0 0)"/><path class="cls-4" d="M625.17,441.23a7.74,7.74,0,0,0-5.48-2.27v-7.57h-7.57a7.71,7.71,0,0,0-2.27-5.48l-5.48-5.48-5.48,5.48a7.76,7.76,0,0,0-2.27,5.48h-7.56V439a7.72,7.72,0,0,0-5.48,2.27l-5.49,5.48,5.49,5.48a7.72,7.72,0,0,0,5.48,2.27V462h7.56a7.72,7.72,0,0,0,2.27,5.48l5.48,5.49,5.48-5.49a7.68,7.68,0,0,0,2.27-5.48h7.57v-7.56a7.74,7.74,0,0,0,5.48-2.27l5.48-5.48ZM624,451a6,6,0,0,1-4.29,1.78H618v7.56h-7.57V462a6,6,0,0,1-1.77,4.29l-4.3,4.3-4.29-4.3a6,6,0,0,1-1.77-4.29v-1.68h-7.57v-7.56h-1.68a6,6,0,0,1-4.29-1.78l-4.3-4.29,4.29-4.29a6,6,0,0,1,4.3-1.78h1.68v-7.56h7.57v-1.69a6.05,6.05,0,0,1,1.77-4.29l4.29-4.29,4.29,4.29a6,6,0,0,1,1.78,4.29v1.69H618v7.56h1.68a6,6,0,0,1,4.29,1.78l4.29,4.29Z" transform="translate(0 0)"/><path class="cls-4" d="M677.72,441.23a7.74,7.74,0,0,0-5.48-2.27v-7.57h-7.56a7.76,7.76,0,0,0-2.27-5.48l-5.48-5.48-5.48,5.48a7.71,7.71,0,0,0-2.27,5.48h-7.57V439a7.74,7.74,0,0,0-5.48,2.27l-5.48,5.48,5.48,5.48a7.74,7.74,0,0,0,5.48,2.27V462h7.57a7.68,7.68,0,0,0,2.27,5.48l5.48,5.49,5.48-5.49a7.72,7.72,0,0,0,2.27-5.48h7.56v-7.56a7.74,7.74,0,0,0,5.48-2.27l5.48-5.48ZM676.53,451a6,6,0,0,1-4.29,1.78h-1.68v7.56H663V462a6,6,0,0,1-1.78,4.29l-4.29,4.3-4.29-4.3a6,6,0,0,1-1.78-4.29v-1.68h-7.57v-7.56h-1.68a6,6,0,0,1-4.29-1.78L633,446.71l4.29-4.29a6,6,0,0,1,4.29-1.78h1.68v-7.56h7.57v-1.69a6,6,0,0,1,1.78-4.29l4.29-4.29,4.29,4.29a6.06,6.06,0,0,1,1.78,4.29v1.69h7.56v7.56h1.68a6,6,0,0,1,4.29,1.78l4.3,4.29Z" transform="translate(0 0)"/></g></g><g class="cls-3"><g class="cls-5"><path class="cls-4" d="M262.77,256.78h0a6,6,0,1,0,6,6,6,6,0,0,0-6-6" transform="translate(0 0)"/><rect class="cls-4" x="309.33" y="256.78" width="11.99" height="11.99"/><path class="cls-4" d="M157.66,256.78h0a6,6,0,1,0,6,6,6,6,0,0,0-6-6" transform="translate(0 0)"/><rect class="cls-4" x="204.22" y="256.78" width="11.99" height="11.99"/><path class="cls-4" d="M52.55,256.78h0a6,6,0,1,0,6,6,6,6,0,0,0-6-6" transform="translate(0 0)"/><rect class="cls-4" x="99.11" y="256.78" width="11.99" height="11.99"/><path class="cls-4" d="M367.88,256.78h0a6,6,0,1,0,6,6,6,6,0,0,0-6-6" transform="translate(0 0)"/><rect class="cls-4" x="414.44" y="256.78" width="11.99" height="11.99"/><path class="cls-4" d="M473,256.78h0a6,6,0,1,0,6,6,6,6,0,0,0-6-6" transform="translate(0 0)"/><rect class="cls-4" x="519.55" y="256.78" width="11.99" height="11.99"/><path class="cls-4" d="M578.1,256.78h0a6,6,0,1,0,6,6,6,6,0,0,0-6-6" transform="translate(0 0)"/><rect class="cls-4" x="624.66" y="256.78" width="11.99" height="11.99"/><rect class="cls-4" x="256.78" y="204.22" width="11.99" height="11.99"/><path class="cls-4" d="M315.32,204.22h0a6,6,0,1,0,6,6,6,6,0,0,0-6-6" transform="translate(0 0)"/><rect class="cls-4" x="151.67" y="204.22" width="11.99" height="11.99"/><path class="cls-4" d="M210.22,204.22h0a6,6,0,1,0,6,6,6,6,0,0,0-6-6" transform="translate(0 0)"/><rect class="cls-4" x="46.56" y="204.22" width="11.99" height="11.99"/><path class="cls-4" d="M105.11,204.22h0a6,6,0,1,0,6,6,6,6,0,0,0-6-6" transform="translate(0 0)"/><rect class="cls-4" x="361.88" y="204.22" width="11.99" height="11.99"/><path class="cls-4" d="M420.43,204.22h0a6,6,0,1,0,6,6,6,6,0,0,0-6-6" transform="translate(0 0)"/><rect class="cls-4" x="466.99" y="204.22" width="11.99" height="11.99"/><path class="cls-4" d="M525.54,204.22h0a6,6,0,1,0,6,6,6,6,0,0,0-6-6" transform="translate(0 0)"/><rect class="cls-4" x="572.1" y="204.22" width="11.99" height="11.99"/><path class="cls-4" d="M630.65,204.22h0a6,6,0,1,0,6,6,6,6,0,0,0-6-6" transform="translate(0 0)"/><path class="cls-4" d="M262.77,151.67h0a6,6,0,1,0,6,6,6,6,0,0,0-6-6" transform="translate(0 0)"/><rect class="cls-4" x="309.33" y="151.67" width="11.99" height="11.99"/><path class="cls-4" d="M157.66,151.67h0a6,6,0,1,0,6,6,6,6,0,0,0-6-6" transform="translate(0 0)"/><rect class="cls-4" x="204.22" y="151.67" width="11.99" height="11.99"/><path class="cls-4" d="M52.55,151.67h0a6,6,0,1,0,6,6,6,6,0,0,0-6-6" transform="translate(0 0)"/><rect class="cls-4" x="99.11" y="151.67" width="11.99" height="11.99"/><path class="cls-4" d="M367.88,151.67h0a6,6,0,1,0,6,6,6,6,0,0,0-6-6" transform="translate(0 0)"/><rect class="cls-4" x="414.44" y="151.67" width="11.99" height="11.99"/><path class="cls-4" d="M473,151.67h0a6,6,0,1,0,6,6,6,6,0,0,0-6-6" transform="translate(0 0)"/><rect class="cls-4" x="519.55" y="151.67" width="11.99" height="11.99"/><path class="cls-4" d="M578.1,151.67h0a6,6,0,1,0,6,6,6,6,0,0,0-6-6" transform="translate(0 0)"/><rect class="cls-4" x="624.66" y="151.67" width="11.99" height="11.99"/><rect class="cls-4" x="256.78" y="99.11" width="11.99" height="11.99"/><path class="cls-4" d="M315.32,99.11h0a6,6,0,0,0-6,6h0a6,6,0,0,0,12,0h0a6,6,0,0,0-6-6" transform="translate(0 0)"/><rect class="cls-4" x="151.67" y="99.11" width="11.99" height="11.99"/><path class="cls-4" d="M210.22,99.11h0a6,6,0,0,0-6,6h0a6,6,0,0,0,12,0h0a6,6,0,0,0-6-6" transform="translate(0 0)"/><rect class="cls-4" x="46.56" y="99.11" width="11.99" height="11.99"/><path class="cls-4" d="M105.11,99.11h0a6,6,0,0,0-6,6h0a6,6,0,0,0,12,0h0a6,6,0,0,0-6-6" transform="translate(0 0)"/><rect class="cls-4" x="361.88" y="99.11" width="11.99" height="11.99"/><path class="cls-4" d="M420.43,99.11h0a6,6,0,0,0-6,6h0a6,6,0,0,0,12,0h0a6,6,0,0,0-6-6" transform="translate(0 0)"/><rect class="cls-4" x="466.99" y="99.11" width="11.99" height="11.99"/><path class="cls-4" d="M525.54,99.11h0a6,6,0,0,0-6,6h0a6,6,0,0,0,12,0h0a6,6,0,0,0-6-6" transform="translate(0 0)"/><rect class="cls-4" x="572.1" y="99.11" width="11.99" height="11.99"/><path class="cls-4" d="M630.65,99.11h0a6,6,0,0,0-6,6h0a6,6,0,0,0,12,0h0a6,6,0,0,0-6-6" transform="translate(0 0)"/><path class="cls-4" d="M262.77,46.56h0a6,6,0,1,0,6,6,6,6,0,0,0-6-6" transform="translate(0 0)"/><rect class="cls-4" x="309.33" y="46.56" width="11.99" height="11.99"/><path class="cls-4" d="M157.66,46.56h0a6,6,0,1,0,6,6,6,6,0,0,0-6-6" transform="translate(0 0)"/><rect class="cls-4" x="204.22" y="46.56" width="11.99" height="11.99"/><path class="cls-4" d="M52.55,46.56h0a6,6,0,1,0,6,6,6,6,0,0,0-6-6" transform="translate(0 0)"/><rect class="cls-4" x="99.11" y="46.56" width="11.99" height="11.99"/><path class="cls-4" d="M367.88,46.56h0a6,6,0,1,0,6,6,6,6,0,0,0-6-6" transform="translate(0 0)"/><rect class="cls-4" x="414.44" y="46.56" width="11.99" height="11.99"/><path class="cls-4" d="M473,46.56h0a6,6,0,1,0,6,6,6,6,0,0,0-6-6" transform="translate(0 0)"/><rect class="cls-4" x="519.55" y="46.56" width="11.99" height="11.99"/><path class="cls-4" d="M578.1,46.56h0a6,6,0,1,0,6,6,6,6,0,0,0-6-6" transform="translate(0 0)"/><rect class="cls-4" x="624.66" y="46.56" width="11.99" height="11.99"/><rect class="cls-4" x="256.78" y="309.33" width="11.99" height="11.99"/><path class="cls-4" d="M315.32,309.33h0a6,6,0,1,0,6,6,6,6,0,0,0-6-6" transform="translate(0 0)"/><rect class="cls-4" x="151.67" y="309.33" width="11.99" height="11.99"/><path class="cls-4" d="M210.22,309.33h0a6,6,0,1,0,6,6,6,6,0,0,0-6-6" transform="translate(0 0)"/><rect class="cls-4" x="46.56" y="309.33" width="11.99" height="11.99"/><path class="cls-4" d="M105.11,309.33h0a6,6,0,1,0,6,6,6,6,0,0,0-6-6" transform="translate(0 0)"/><rect class="cls-4" x="361.88" y="309.33" width="11.99" height="11.99"/><path class="cls-4" d="M420.43,309.33h0a6,6,0,1,0,6,6,6,6,0,0,0-6-6" transform="translate(0 0)"/><path class="cls-4" d="M473,309.33h0a6,6,0,1,0,6,6,6,6,0,0,0-6-6" transform="translate(0 0)"/><path class="cls-4" d="M525.54,309.33h0a6,6,0,1,0,6,6,6,6,0,0,0-6-6" transform="translate(0 0)"/><rect class="cls-4" x="572.1" y="309.33" width="11.99" height="11.99"/><path class="cls-4" d="M630.65,309.33h0a6,6,0,1,0,6,6,6,6,0,0,0-6-6" transform="translate(0 0)"/><path class="cls-4" d="M262.77,361.88h0a6,6,0,1,0,6,6,6,6,0,0,0-6-6" transform="translate(0 0)"/><rect class="cls-4" x="309.33" y="361.88" width="11.99" height="11.99"/><path class="cls-4" d="M157.66,361.88h0a6,6,0,1,0,6,6,6,6,0,0,0-6-6" transform="translate(0 0)"/><rect class="cls-4" x="204.22" y="361.88" width="11.99" height="11.99"/><path class="cls-4" d="M52.55,361.88h0a6,6,0,1,0,6,6,6,6,0,0,0-6-6" transform="translate(0 0)"/><rect class="cls-4" x="99.11" y="361.88" width="11.99" height="11.99"/><path class="cls-4" d="M367.88,361.88h0a6,6,0,1,0,6,6,6,6,0,0,0-6-6" transform="translate(0 0)"/><rect class="cls-4" x="414.44" y="361.88" width="11.99" height="11.99"/><path class="cls-4" d="M473,361.88h0a6,6,0,1,0,6,6,6,6,0,0,0-6-6" transform="translate(0 0)"/><rect class="cls-4" x="519.55" y="361.88" width="11.99" height="11.99"/><path class="cls-4" d="M578.1,361.88h0a6,6,0,1,0,6,6,6,6,0,0,0-6-6" transform="translate(0 0)"/><rect class="cls-4" x="624.66" y="361.88" width="11.99" height="11.99"/><rect class="cls-4" x="256.78" y="414.44" width="11.99" height="11.99"/><path class="cls-4" d="M315.32,414.44h0a6,6,0,1,0,6,6,6,6,0,0,0-6-6" transform="translate(0 0)"/><rect class="cls-4" x="151.67" y="414.44" width="11.99" height="11.99"/><path class="cls-4" d="M210.22,414.44h0a6,6,0,1,0,6,6,6,6,0,0,0-6-6" transform="translate(0 0)"/><rect class="cls-4" x="46.56" y="414.44" width="11.99" height="11.99"/><path class="cls-4" d="M105.11,414.44h0a6,6,0,1,0,6,6,6,6,0,0,0-6-6" transform="translate(0 0)"/><rect class="cls-4" x="361.88" y="414.44" width="11.99" height="11.99"/><path class="cls-4" d="M420.43,414.44h0a6,6,0,1,0,6,6,6,6,0,0,0-6-6" transform="translate(0 0)"/><rect class="cls-4" x="466.99" y="414.44" width="11.99" height="11.99"/><path class="cls-4" d="M525.54,414.44h0a6,6,0,1,0,6,6,6,6,0,0,0-6-6" transform="translate(0 0)"/><rect class="cls-4" x="572.1" y="414.44" width="11.99" height="11.99"/><path class="cls-4" d="M630.65,414.44h0a6,6,0,1,0,6,6,6,6,0,0,0-6-6" transform="translate(0 0)"/></g></g></g></g></svg>